<svg width="24" height="24" viewBox="0 0 24 24" fill="none" xmlns="http://www.w3.org/2000/svg">
<path opacity="0.5" d="M4.0828 11.8943C4.52171 9.55339 4.74117 8.38295 5.57434 7.69147C6.40752 7 7.59835 7 9.98003 7H14.0209C16.4026 7 17.5934 7 18.4266 7.69147C19.2598 8.38295 19.4792 9.55339 19.9181 11.8943L20.6681 15.8943C21.2853 19.186 21.5939 20.8318 20.6942 21.9159C19.7945 23 18.12 23 14.7709 23H9.23003C5.88097 23 4.20644 23 3.30672 21.9159C2.40701 20.8318 2.7156 19.186 3.3328 15.8943L4.0828 11.8943Z" fill="#1C274C"/>
<path d="M9.75 5.98509C9.75 4.74245 10.7574 3.73509 12 3.73509C13.2426 3.73509 14.25 4.74245 14.25 5.98509V6.98509C14.816 6.98527 15.3119 6.98683 15.7499 6.99997C15.75 6.99502 15.75 6.99006 15.75 6.98509V5.98509C15.75 3.91402 14.0711 2.23509 12 2.23509C9.92893 2.23509 8.25 3.91402 8.25 5.98509V6.98509C8.25 6.99007 8.25005 6.99504 8.25015 7C8.68814 6.98684 9.18397 6.9853 9.75 6.98512V5.98509Z" fill="#1C274C"/>
<path d="M9.87823 15.75C10.1875 16.6249 11.0219 17.25 12.0004 17.25C12.9789 17.25 13.8133 16.6249 14.1226 15.75C14.2606 15.3595 14.6891 15.1548 15.0796 15.2928C15.4702 15.4309 15.6749 15.8594 15.5368 16.2499C15.0224 17.7054 13.6343 18.75 12.0004 18.75C10.3665 18.75 8.97841 17.7054 8.46397 16.2499C8.32594 15.8594 8.53063 15.4309 8.92117 15.2928C9.31171 15.1548 9.7402 15.3595 9.87823 15.75Z" fill="#1C274C"/>
</svg>
