<svg width="24" height="24" viewBox="0 0 24 24" fill="none" xmlns="http://www.w3.org/2000/svg">
<path opacity="0.5" d="M20.9129 5.88887C21.25 6.39331 21.25 7.09555 21.25 8.50001V21.25H21.75C22.1642 21.25 22.5 21.5858 22.5 22C22.5 22.4142 22.1642 22.75 21.75 22.75H1.75C1.33579 22.75 1 22.4142 1 22C1 21.5858 1.33579 21.25 1.75 21.25H2.25V8.50001C2.25 7.09555 2.25 6.39331 2.58706 5.88887C2.73298 5.67049 2.92048 5.48299 3.13886 5.33707C3.58008 5.04225 5.67561 5.0053 6.75702 5.00067C6.75291 5.29206 6.75294 5.59655 6.75298 5.91051L6.75299 6.00001V7.25001H4.25C3.83579 7.25001 3.5 7.58579 3.5 8.00001C3.5 8.41422 3.83579 8.75001 4.25 8.75001H6.75299V10.25H4.25C3.83579 10.25 3.5 10.5858 3.5 11C3.5 11.4142 3.83579 11.75 4.25 11.75H6.75299V13.25H4.25C3.83579 13.25 3.5 13.5858 3.5 14C3.5 14.4142 3.83579 14.75 4.25 14.75H6.75299V21.25H16.7529V14.75H19.25C19.6642 14.75 20 14.4142 20 14C20 13.5858 19.6642 13.25 19.25 13.25H16.7529V11.75H19.25C19.6642 11.75 20 11.4142 20 11C20 10.5858 19.6642 10.25 19.25 10.25H16.7529V8.75001H19.25C19.6642 8.75001 20 8.41422 20 8.00001C20 7.58579 19.6642 7.25001 19.25 7.25001H16.7529V6.00001L16.7529 5.91052V5.91049C16.753 5.59654 16.753 5.29206 16.7489 5.00067C17.8303 5.0053 19.9199 5.04225 20.3611 5.33707C20.5795 5.48299 20.767 5.67049 20.9129 5.88887Z" fill="#1C274C"/>
<path fill-rule="evenodd" clip-rule="evenodd" d="M10.75 2H12.75C14.6356 2 15.5784 2 16.1642 2.58579C16.75 3.17157 16.75 4.11438 16.75 6V21.25H18.25H21.25H21.75C22.1642 21.25 22.5 21.5858 22.5 22C22.5 22.4142 22.1642 22.75 21.75 22.75H1.75C1.33579 22.75 1 22.4142 1 22C1 21.5858 1.33579 21.25 1.75 21.25H2.25H5.25H6.75V6C6.75 4.11438 6.75 3.17157 7.33579 2.58579C7.92157 2 8.86438 2 10.75 2ZM11.75 18.25C12.1642 18.25 12.5 18.5858 12.5 19V21.25H11V19C11 18.5858 11.3358 18.25 11.75 18.25ZM9.75 14C9.33579 14 9 14.3358 9 14.75C9 15.1642 9.33579 15.5 9.75 15.5H13.75C14.1642 15.5 14.5 15.1642 14.5 14.75C14.5 14.3358 14.1642 14 13.75 14H9.75ZM9 11.75C9 11.3358 9.33579 11 9.75 11H13.75C14.1642 11 14.5 11.3358 14.5 11.75C14.5 12.1642 14.1642 12.5 13.75 12.5H9.75C9.33579 12.5 9 12.1642 9 11.75ZM9.75 8.5C9.33579 8.5 9 8.83579 9 9.25C9 9.66421 9.33579 10 9.75 10H13.75C14.1642 10 14.5 9.66421 14.5 9.25C14.5 8.83579 14.1642 8.5 13.75 8.5H9.75ZM9 6.25C9 5.83579 9.33579 5.5 9.75 5.5H13.75C14.1642 5.5 14.5 5.83579 14.5 6.25C14.5 6.66421 14.1642 7 13.75 7H9.75C9.33579 7 9 6.66421 9 6.25Z" fill="#1C274C"/>
</svg>
