<svg width="24" height="24" viewBox="0 0 24 24" fill="none" xmlns="http://www.w3.org/2000/svg">
<path opacity="0.5" d="M9.77778 21H14.2222C17.3433 21 18.9038 21 20.0248 20.2777C20.51 19.965 20.9267 19.5632 21.251 19.0953C22 18.0143 22 16.5095 22 13.4999C22 10.4903 21.9998 8.9857 21.2508 7.90473C20.9266 7.43676 20.5099 7.03497 20.0246 6.72228C18.9036 6 17.3431 6 14.2221 6H9.77761C6.65659 6 5.09607 6 3.97508 6.72228C3.48979 7.03497 3.07312 7.43676 2.74886 7.90473C2 8.98547 2 10.4896 2 13.4979L2 13.4999C2 16.5095 2 18.0143 2.74902 19.0953C3.07328 19.5632 3.48995 19.965 3.97524 20.2777C5.09624 21 6.65675 21 9.77778 21Z" fill="#1C274C"/>
<path fill-rule="evenodd" clip-rule="evenodd" d="M8 4C8 3.44772 8.41328 3 8.92308 3H15.0769C15.5867 3 16 3.44772 16 4C16 4.55228 15.5867 5 15.0769 5H8.92308C8.41328 5 8 4.55228 8 4Z" fill="#1C274C"/>
<path fill-rule="evenodd" clip-rule="evenodd" d="M17.2784 10.286C17.2784 9.8422 17.6515 9.48242 18.1118 9.48242H18.6673C19.1276 9.48242 19.5007 9.8422 19.5007 10.286C19.5007 10.7298 19.1276 11.0896 18.6673 11.0896H18.1118C17.6515 11.0896 17.2784 10.7298 17.2784 10.286Z" fill="white"/>
<path fill-rule="evenodd" clip-rule="evenodd" d="M7.83398 13.5003C7.83398 11.2813 9.69946 9.48242 12.0007 9.48242C14.3018 9.48242 16.1673 11.2813 16.1673 13.5003C16.1673 15.7194 14.3018 17.5183 12.0007 17.5183C9.69946 17.5183 7.83398 15.7194 7.83398 13.5003ZM9.50065 13.5003C9.50065 12.1689 10.6199 11.0896 12.0007 11.0896C13.3814 11.0896 14.5007 12.1689 14.5007 13.5003C14.5007 14.8318 13.3814 15.9111 12.0007 15.9111C10.6199 15.9111 9.50065 14.8318 9.50065 13.5003Z" fill="#1C274C"/>
<path fill-rule="evenodd" clip-rule="evenodd" d="M18.1118 9.48242C17.6515 9.48242 17.2784 9.8422 17.2784 10.286C17.2784 10.7298 17.6515 11.0896 18.1118 11.0896H18.6673C19.1276 11.0896 19.5007 10.7298 19.5007 10.286C19.5007 9.8422 19.1276 9.48242 18.6673 9.48242H18.1118Z" fill="#1C274C"/>
</svg>
