<svg width="24" height="24" viewBox="0 0 24 24" fill="none" xmlns="http://www.w3.org/2000/svg">
<path opacity="0.5" d="M3.55563 14.2572C2.83717 10.9043 2.47794 9.22793 3.37849 8.11397C4.27904 7 5.99351 7 9.42245 7H14.5786C18.0075 7 19.722 7 20.6226 8.11397C21.5231 9.22793 21.1639 10.9043 20.4454 14.2572L20.0168 16.2572C19.5299 18.5297 19.2864 19.666 18.4613 20.333C17.6362 21 16.4742 21 14.15 21H9.85102C7.52688 21 6.36481 21 5.53974 20.333C4.71467 19.666 4.47118 18.5297 3.9842 16.2572L3.55563 14.2572Z" fill="#1C274C"/>
<path d="M8 11.25C7.58579 11.25 7.25 11.5858 7.25 12C7.25 12.4142 7.58579 12.75 8 12.75H16C16.4142 12.75 16.75 12.4142 16.75 12C16.75 11.5858 16.4142 11.25 16 11.25H8Z" fill="#1C274C"/>
<path d="M9.25 15C9.25 14.5858 9.58579 14.25 10 14.25H14C14.4142 14.25 14.75 14.5858 14.75 15C14.75 15.4142 14.4142 15.75 14 15.75H10C9.58579 15.75 9.25 15.4142 9.25 15Z" fill="#1C274C"/>
<path fill-rule="evenodd" clip-rule="evenodd" d="M14.6648 2.32922C15.0352 2.14398 15.4857 2.29415 15.671 2.66463L18.671 8.66463C18.8562 9.03512 18.7061 9.48562 18.3356 9.67086C17.9651 9.8561 17.5146 9.70594 17.3293 9.33545L14.3293 3.33545C14.1441 2.96497 14.2943 2.51446 14.6648 2.32922Z" fill="#1C274C"/>
<path fill-rule="evenodd" clip-rule="evenodd" d="M9.33525 2.32922C8.96476 2.14398 8.51426 2.29415 8.32902 2.66463L5.32902 8.66463C5.14377 9.03512 5.29394 9.48562 5.66443 9.67086C6.03491 9.8561 6.48541 9.70594 6.67066 9.33545L9.67066 3.33545C9.8559 2.96497 9.70573 2.51446 9.33525 2.32922Z" fill="#1C274C"/>
</svg>
