<svg width="24" height="24" viewBox="0 0 24 24" fill="none" xmlns="http://www.w3.org/2000/svg">
<path opacity="0.5" d="M3.04492 11.75C3.17074 12.4643 3.34793 13.2912 3.55493 14.2572L3.9835 16.2572C4.47047 18.5297 4.71396 19.666 5.53903 20.333C6.3641 21 7.52617 21 9.85031 21H14.1493C16.4735 21 17.6355 21 18.4606 20.333C19.2857 19.666 19.5292 18.5297 20.0161 16.2572L20.4447 14.2572C20.6517 13.2912 20.8289 12.4643 20.9547 11.75H3.04492Z" fill="#1C274C"/>
<path fill-rule="evenodd" clip-rule="evenodd" d="M9.25 14C9.25 13.5858 9.58579 13.25 10 13.25H14C14.4142 13.25 14.75 13.5858 14.75 14C14.75 14.4142 14.4142 14.75 14 14.75H10C9.58579 14.75 9.25 14.4142 9.25 14Z" fill="#1C274C"/>
<path d="M8.32983 2.66463C8.51507 2.29415 8.96558 2.14398 9.33606 2.32922C9.70655 2.51446 9.85672 2.96497 9.67147 3.33545L7.83655 7.0053C8.31973 7.00003 8.84694 7.00003 9.42245 7.00003H14.5786C15.1542 7.00003 15.6815 7.00003 16.1648 7.0053L14.3298 3.33545C14.1446 2.96497 14.2948 2.51446 14.6652 2.32922C15.0357 2.14398 15.4862 2.29415 15.6715 2.66463L17.8726 7.06696C19.2257 7.17091 20.0747 7.43632 20.6226 8.114C21.058 8.65257 21.1989 9.32262 21.1471 10.25H21.0007C21.0506 10.25 21.0994 10.2549 21.1465 10.2642C21.1214 10.6988 21.0543 11.1898 20.9556 11.75H3.04585C2.94718 11.1898 2.88009 10.6988 2.85498 10.2642C2.90212 10.2549 2.95085 10.25 3.00072 10.25H2.85395C2.80217 9.32262 2.94309 8.65257 3.37849 8.114C3.92637 7.43628 4.7755 7.17087 6.12868 7.06694L8.32983 2.66463Z" fill="#1C274C"/>
</svg>
