<svg width="24" height="24" viewBox="0 0 24 24" fill="none" xmlns="http://www.w3.org/2000/svg">
<path d="M10.096 2.00445C6.62225 2.03072 4.71715 2.2121 3.46478 3.46447C2.60711 4.32213 2.25174 5.48593 2.10449 7.25002H6.59892L10.096 2.00445Z" fill="#1C274C"/>
<path d="M21.8961 7.25002C21.7489 5.48593 21.3935 4.32213 20.5358 3.46447C19.9385 2.86714 19.1927 2.51345 18.199 2.30403L14.9017 7.25002H21.8961Z" fill="#1C274C"/>
<path d="M16.5404 2.08783C15.3296 2 13.8455 2 12.0003 2C11.9673 2 11.9345 2 11.9017 2L8.4017 7.25002H13.0989L16.5404 2.08783Z" fill="#1C274C"/>
<path opacity="0.5" d="M2.02644 8.75C2 9.68872 2 10.7632 2 12C2 16.714 2 19.071 3.46447 20.5355C4.92893 22 7.28595 22 12 22C16.714 22 19.0711 22 20.5355 20.5355C22 19.071 22 16.714 22 12C22 10.7632 22 9.68872 21.9736 8.75H2.02644Z" fill="#1C274C"/>
</svg>
