<svg width="24" height="24" viewBox="0 0 24 24" fill="none" xmlns="http://www.w3.org/2000/svg">
<path d="M16.443 7.32787C16.7201 7.01999 17.1943 6.99503 17.5022 7.27213L19.2397 8.83587C19.976 9.49853 20.5868 10.0482 21.0063 10.5468C21.4473 11.071 21.7608 11.6343 21.7608 12.3296C21.7608 13.0249 21.4473 13.5882 21.0063 14.1124C20.5868 14.611 19.976 15.1607 19.2397 15.8233L17.5022 17.3871C17.1943 17.6642 16.7201 17.6392 16.443 17.3313C16.1659 17.0234 16.1909 16.5492 16.4988 16.2721L18.1952 14.7453C18.9831 14.0362 19.5143 13.5558 19.8584 13.1468C20.1887 12.7542 20.2608 12.525 20.2608 12.3296C20.2608 12.1342 20.1887 11.905 19.8584 11.5124C19.5143 11.1034 18.9831 10.623 18.1952 9.91389L16.4988 8.38707C16.1909 8.10997 16.1659 7.63576 16.443 7.32787Z" fill="#1C274C"/>
<path d="M7.50226 8.38707C7.81015 8.10997 7.8351 7.63576 7.55801 7.32787C7.28092 7.01999 6.8067 6.99503 6.49882 7.27213L4.76133 8.83587C4.02499 9.49853 3.41418 10.0482 2.99477 10.5468C2.55374 11.071 2.24023 11.6343 2.24023 12.3296C2.24023 13.0249 2.55374 13.5882 2.99477 14.1124C3.41418 14.611 4.02497 15.1607 4.76131 15.8233L6.49882 17.3871C6.8067 17.6642 7.28092 17.6392 7.55801 17.3313C7.8351 17.0234 7.81015 16.5492 7.50226 16.2721L5.80579 14.7453C5.01792 14.0362 4.48672 13.5558 4.14262 13.1468C3.81237 12.7542 3.74023 12.525 3.74023 12.3296C3.74023 12.1342 3.81237 11.905 4.14262 11.5124C4.48672 11.1034 5.01792 10.623 5.80579 9.91389L7.50226 8.38707Z" fill="#1C274C"/>
<path opacity="0.5" d="M14.1816 4.2755C14.5817 4.3827 14.8191 4.79396 14.7119 5.19406L10.7383 20.0238C10.6311 20.4239 10.2198 20.6613 9.81974 20.5541C9.41964 20.4469 9.18221 20.0356 9.28941 19.6355L13.263 4.80583C13.3702 4.40573 13.7815 4.16829 14.1816 4.2755Z" fill="#1C274C"/>
</svg>
