<svg width="24" height="24" viewBox="0 0 24 24" fill="none" xmlns="http://www.w3.org/2000/svg">
<path opacity="0.5" fill-rule="evenodd" clip-rule="evenodd" d="M6.9777 1.32673C7.31492 1.56726 7.39329 2.03562 7.15276 2.37284L6.76669 2.91409C7.39251 3.38836 7.53122 4.27761 7.07224 4.92108L6.66162 5.49675C6.42108 5.83396 5.95272 5.91234 5.6155 5.67181C5.27829 5.43127 5.19991 4.96291 5.44044 4.62569L5.82651 4.08444C5.20069 3.61018 5.06199 2.72092 5.52097 2.07745L5.93159 1.50179C6.17212 1.16457 6.64048 1.08619 6.9777 1.32673ZM10.9777 1.32673C11.3149 1.56726 11.3933 2.03562 11.1528 2.37284L10.7667 2.91409C11.3925 3.38836 11.5312 4.27761 11.0722 4.92108L10.6616 5.49675C10.4211 5.83396 9.95272 5.91234 9.6155 5.67181C9.27829 5.43127 9.19991 4.96291 9.44044 4.62569L9.82651 4.08444C9.20069 3.61018 9.06199 2.72092 9.52097 2.07745L9.93159 1.50179C10.1721 1.16457 10.6405 1.08619 10.9777 1.32673ZM14.9777 1.32673C15.3149 1.56726 15.3933 2.03562 15.1528 2.37284L14.7667 2.91409C15.3925 3.38836 15.5312 4.27761 15.0722 4.92108L14.6616 5.49675C14.4211 5.83396 13.9527 5.91234 13.6155 5.67181C13.2783 5.43127 13.1999 4.96291 13.4404 4.62569L13.8265 4.08444C13.2007 3.61018 13.062 2.72092 13.521 2.07745L13.9316 1.50179C14.1721 1.16457 14.6405 1.08619 14.9777 1.32673Z" fill="#1C274C"/>
<path opacity="0.5" d="M9.61291 22H10.3863C13.0471 22 14.3775 22 15.2425 21.1907C15.9127 20.5637 16.1168 19.6256 16.257 18H3.74219C3.88243 19.6256 4.08648 20.5637 4.7567 21.1907C5.62171 22 6.95211 22 9.61291 22Z" fill="#1C274C"/>
<path fill-rule="evenodd" clip-rule="evenodd" d="M3.28393 11.2661C3.15064 9.26687 3.084 8.26726 3.6768 7.63363C4.2696 7 5.27142 7 7.27507 7H12.724C14.7276 7 15.7294 7 16.3222 7.63363C16.4847 7.80726 16.5976 8.00837 16.6732 8.25H16.9995C19.6229 8.25 21.7495 10.3766 21.7495 13C21.7495 15.6234 19.6229 17.75 16.9995 17.75H16.2776C16.2708 17.8351 16.264 17.9184 16.2569 18H3.74212C3.70136 17.5275 3.66599 16.997 3.62613 16.3991L3.28393 11.2661ZM16.3829 16.25H16.9995C18.7944 16.25 20.2495 14.7949 20.2495 13C20.2495 11.2051 18.7944 9.75 16.9995 9.75H16.8002C16.7875 10.1801 16.7542 10.6802 16.7151 11.2661L16.3829 16.25Z" fill="#1C274C"/>
</svg>
