<svg width="24" height="24" viewBox="0 0 24 24" fill="none" xmlns="http://www.w3.org/2000/svg">
<path fill-rule="evenodd" clip-rule="evenodd" d="M18 14C18 18.4183 14.4183 22 10 22C8.76449 22 7.5944 21.7199 6.54976 21.2198C6.19071 21.0479 5.78393 20.9876 5.39939 21.0904L4.17335 21.4185C3.20701 21.677 2.32295 20.793 2.58151 19.8267L2.90955 18.6006C3.01245 18.2161 2.95209 17.8093 2.7802 17.4502C2.28008 16.4056 2 15.2355 2 14C2 9.58172 5.58172 6 10 6C14.4183 6 18 9.58172 18 14ZM6.5 15C7.05228 15 7.5 14.5523 7.5 14C7.5 13.4477 7.05228 13 6.5 13C5.94772 13 5.5 13.4477 5.5 14C5.5 14.5523 5.94772 15 6.5 15ZM10 15C10.5523 15 11 14.5523 11 14C11 13.4477 10.5523 13 10 13C9.44772 13 9 13.4477 9 14C9 14.5523 9.44772 15 10 15ZM13.5 15C14.0523 15 14.5 14.5523 14.5 14C14.5 13.4477 14.0523 13 13.5 13C12.9477 13 12.5 13.4477 12.5 14C12.5 14.5523 12.9477 15 13.5 15Z" fill="#1C274C"/>
<path opacity="0.6" d="M17.9838 14.5084C18.0917 14.4638 18.1981 14.4163 18.303 14.3661C18.5947 14.2264 18.9252 14.1774 19.2377 14.261L20.2338 14.5275C21.019 14.7376 21.7373 14.0193 21.5272 13.2342L21.2606 12.238C21.177 11.9256 21.2261 11.595 21.3657 11.3033C21.7721 10.4545 21.9997 9.50385 21.9997 8.5C21.9997 4.91015 19.0895 2 15.4997 2C12.7896 2 10.4669 3.6585 9.49121 6.0159C9.65934 6.00535 9.82887 6 9.99965 6C14.4179 6 17.9997 9.58172 17.9997 14C17.9997 14.1708 17.9943 14.3403 17.9838 14.5084Z" fill="#1C274C"/>
</svg>
