<svg width="24" height="24" viewBox="0 0 24 24" fill="none" xmlns="http://www.w3.org/2000/svg">
<path d="M12.0003 7C13.3133 7 14.4292 6.15653 14.8359 4.98189C15.0166 4.46 14.5526 4 14.0003 4H10.0003C9.44801 4 8.98398 4.46 9.16467 4.98189C9.57135 6.15653 10.6873 7 12.0003 7Z" fill="#1C274C"/>
<path opacity="0.5" d="M12 2C13.1046 2 14 2.89543 14 4H10C10 2.89543 10.8954 2 12 2Z" fill="#1C274C"/>
<path d="M6.45524 10.9797C6.47818 10.9503 6.50051 10.9207 6.52224 10.8908C7.28744 9.83634 7.29645 8.44285 6.62941 7.39285C6.32463 6.91309 5.66143 6.99532 5.31182 7.44287L2.77973 10.6843C2.43012 11.1319 2.50584 11.8017 3.03937 11.9886C4.24023 12.4093 5.6241 12.0437 6.45524 10.9797Z" fill="#1C274C"/>
<path opacity="0.5" d="M2.43904 7.7863C3.13826 6.8912 4.42425 6.73749 5.31139 7.44298L2.7793 10.6844C1.89216 9.97894 1.73982 8.6814 2.43904 7.7863Z" fill="#1C274C"/>
<path d="M17.5448 10.9797C17.5218 10.9503 17.4995 10.9207 17.4778 10.8908C16.7126 9.83634 16.7035 8.44285 17.3706 7.39285C17.6754 6.91309 18.3386 6.99532 18.6882 7.44287L21.2203 10.6843C21.5699 11.1319 21.4942 11.8017 20.9606 11.9886C19.7598 12.4093 18.3759 12.0437 17.5448 10.9797Z" fill="#1C274C"/>
<path opacity="0.5" d="M21.561 7.7863C20.8617 6.8912 19.5757 6.73749 18.6886 7.44298L21.2207 10.6844C22.1078 9.97894 22.2602 8.6814 21.561 7.7863Z" fill="#1C274C"/>
<path fill-rule="evenodd" clip-rule="evenodd" d="M8.25 22C8.25 21.5858 8.58579 21.25 9 21.25H15C15.4142 21.25 15.75 21.5858 15.75 22C15.75 22.4142 15.4142 22.75 15 22.75H9C8.58579 22.75 8.25 22.4142 8.25 22Z" fill="#1C274C"/>
<g opacity="0.55">
<path d="M11.9996 6.99988C12.2566 6.99988 12.5061 6.96755 12.7442 6.90674C12.748 6.93725 12.75 6.96834 12.75 6.99988V13.4069C12.8722 13.2894 13.0011 13.1779 13.1364 13.0729L13.1481 13.0638L17.0888 10.1712C17.1842 10.4222 17.3136 10.6643 17.478 10.8908C17.4997 10.9207 17.5221 10.9503 17.545 10.9797C17.6672 11.1361 17.8012 11.2774 17.9449 11.4033L14.045 14.2665C13.2295 14.9049 12.7501 15.8901 12.7501 16.9367V17.9999L12.75 18.0158V21.2499H11.25V16.9032C11.2398 15.8692 10.7618 14.8982 9.95486 14.2665L6.05469 11.4032C6.19833 11.2773 6.33238 11.136 6.4545 10.9797C6.47744 10.9503 6.49977 10.9207 6.5215 10.8908C6.68589 10.6642 6.81539 10.422 6.91077 10.171L10.8518 13.0638L10.8635 13.0729C10.9988 13.1779 11.1277 13.2894 11.25 13.4068V6.99988C11.25 6.96841 11.2519 6.93739 11.2557 6.90693C11.4935 6.96762 11.7428 6.99988 11.9996 6.99988Z" fill="#1C274C"/>
<path d="M11.9972 22.7499L12 22.7499L12.0027 22.7499H11.9972Z" fill="#1C274C"/>
</g>
</svg>
