<svg width="24" height="24" viewBox="0 0 24 24" fill="none" xmlns="http://www.w3.org/2000/svg">
<path fill-rule="evenodd" clip-rule="evenodd" d="M10.0069 3.77163L4.00691 9.10496C3.36644 9.67426 3 10.4903 3 11.3472V21.25H2C1.58579 21.25 1.25 21.5858 1.25 22C1.25 22.4142 1.58579 22.75 2 22.75H22C22.4142 22.75 22.75 22.4142 22.75 22C22.75 21.5858 22.4142 21.25 22 21.25H21V11.3472C21 10.4903 20.6336 9.67426 19.9931 9.10496L13.9931 3.77163C12.8564 2.76126 11.1436 2.76126 10.0069 3.77163ZM10 8.24999C9.58579 8.24999 9.25 8.58578 9.25 8.99999C9.25 9.4142 9.58579 9.74999 10 9.74999H14C14.4142 9.74999 14.75 9.4142 14.75 8.99999C14.75 8.58578 14.4142 8.24999 14 8.24999H10ZM14.052 11.25C14.9505 11.25 15.6997 11.2499 16.2945 11.3299C16.9223 11.4143 17.4891 11.6 17.9445 12.0554C18.4 12.5109 18.5857 13.0777 18.6701 13.7055C18.7501 14.3003 18.75 15.0495 18.75 15.948L18.75 21.25H17.25H6.75H5.25L5.25 15.948C5.24997 15.0495 5.24994 14.3003 5.32991 13.7055C5.41432 13.0777 5.59999 12.5109 6.05546 12.0554C6.51093 11.6 7.07773 11.4143 7.70552 11.3299C8.3003 11.2499 9.04952 11.25 9.948 11.25H14.052Z" fill="#1C274C"/>
<path opacity="0.5" d="M14.052 11.2501H9.948H9.94797C9.04952 11.25 8.30029 11.25 7.70552 11.33C7.07773 11.4144 6.51093 11.6001 6.05546 12.0555C5.59999 12.511 5.41432 13.0778 5.32991 13.7056C5.24995 14.3003 5.24997 15.0495 5.25 15.948V15.948L5.25 21.25H18.75L18.75 15.9481C18.75 15.0496 18.7501 14.3004 18.6701 13.7056C18.5857 13.0778 18.4 12.511 17.9445 12.0555C17.4891 11.6001 16.9223 11.4144 16.2945 11.33C15.6997 11.25 14.9505 11.25 14.052 11.2501H14.052Z" fill="#1C274C"/>
<path d="M9 14.75C8.58579 14.75 8.25 15.0858 8.25 15.5C8.25 15.9142 8.58579 16.25 9 16.25H15C15.4142 16.25 15.75 15.9142 15.75 15.5C15.75 15.0858 15.4142 14.75 15 14.75H9Z" fill="#1C274C"/>
<path d="M9 17.75C8.58579 17.75 8.25 18.0858 8.25 18.5C8.25 18.9142 8.58579 19.25 9 19.25H15C15.4142 19.25 15.75 18.9142 15.75 18.5C15.75 18.0858 15.4142 17.75 15 17.75H9Z" fill="#1C274C"/>
</svg>
