<svg width="24" height="24" viewBox="0 0 24 24" fill="none" xmlns="http://www.w3.org/2000/svg">
<path fill-rule="evenodd" clip-rule="evenodd" d="M21.5315 11.5856L20.75 10.9605V21.25H22C22.4142 21.25 22.75 21.5858 22.75 22C22.75 22.4142 22.4142 22.75 22 22.75H2.00003C1.58581 22.75 1.25003 22.4142 1.25003 22C1.25003 21.5858 1.58581 21.25 2.00003 21.25H3.25003V10.9605L2.46855 11.5856C2.1451 11.8444 1.67313 11.792 1.41438 11.4685C1.15562 11.1451 1.20806 10.6731 1.53151 10.4143L9.65742 3.9136C11.027 2.81794 12.9731 2.81794 14.3426 3.9136L22.4685 10.4143C22.792 10.6731 22.8444 11.1451 22.5857 11.4685C22.3269 11.792 21.855 11.8444 21.5315 11.5856ZM12 6.74998C10.4812 6.74998 9.25003 7.9812 9.25003 9.49998C9.25003 11.0188 10.4812 12.25 12 12.25C13.5188 12.25 14.75 11.0188 14.75 9.49998C14.75 7.9812 13.5188 6.74998 12 6.74998ZM13.7459 13.3116C13.2871 13.2499 12.7143 13.2499 12.0494 13.25H11.9507C11.2858 13.2499 10.7129 13.2499 10.2542 13.3116C9.76255 13.3777 9.29128 13.5267 8.90904 13.909C8.52679 14.2912 8.37773 14.7625 8.31163 15.2541C8.24996 15.7129 8.24999 16.2857 8.25003 16.9506L8.25003 21.25H9.75003H14.25H15.75L15.75 16.9506L15.75 16.827C15.7498 16.2146 15.7462 15.6842 15.6884 15.2541C15.6223 14.7625 15.4733 14.2912 15.091 13.909C14.7088 13.5267 14.2375 13.3777 13.7459 13.3116Z" fill="#1C274C"/>
<g opacity="0.5">
<path fill-rule="evenodd" clip-rule="evenodd" d="M10.75 9.5C10.75 8.80964 11.3096 8.25 12 8.25C12.6904 8.25 13.25 8.80964 13.25 9.5C13.25 10.1904 12.6904 10.75 12 10.75C11.3096 10.75 10.75 10.1904 10.75 9.5Z" fill="#1C274C"/>
<path fill-rule="evenodd" clip-rule="evenodd" d="M10.75 9.5C10.75 8.80964 11.3096 8.25 12 8.25C12.6904 8.25 13.25 8.80964 13.25 9.5C13.25 10.1904 12.6904 10.75 12 10.75C11.3096 10.75 10.75 10.1904 10.75 9.5Z" fill="#1C274C"/>
</g>
<path opacity="0.5" d="M12.0494 13.2501C12.7142 13.25 13.2871 13.25 13.7458 13.3117C14.2375 13.3778 14.7087 13.5268 15.091 13.9091C15.4732 14.2913 15.6223 14.7626 15.6884 15.2542C15.7462 15.6843 15.7498 16.2147 15.75 16.8271L15.75 21.2501H8.25L8.25 16.9507C8.24997 16.2858 8.24993 15.713 8.31161 15.2542C8.37771 14.7626 8.52677 14.2913 8.90901 13.9091C9.29126 13.5268 9.76252 13.3778 10.2542 13.3117C10.7129 13.25 11.2858 13.25 11.9506 13.2501H12.0494Z" fill="#1C274C"/>
<path opacity="0.5" d="M16 3H18.5C18.7761 3 19 3.22386 19 3.5L19 7.63955L15.5 4.83955V3.5C15.5 3.22386 15.7239 3 16 3Z" fill="#1C274C"/>
</svg>
