<svg width="24" height="24" viewBox="0 0 24 24" fill="none" xmlns="http://www.w3.org/2000/svg">
<g opacity="0.5">
<path d="M11.1566 20.3133C16.2137 20.3133 20.3133 16.2137 20.3133 11.1566C20.3133 6.09956 16.2137 2 11.1566 2C6.09956 2 2 6.09956 2 11.1566C2 16.2137 6.09956 20.3133 11.1566 20.3133Z" fill="#1C274C"/>
</g>
<path fill-rule="evenodd" clip-rule="evenodd" d="M11.156 8.02441C11.5552 8.02441 11.8789 8.34806 11.8789 8.74731V10.4341H13.5656C13.9648 10.4341 14.2885 10.7577 14.2885 11.1569C14.2885 11.5562 13.9648 11.8798 13.5656 11.8798H11.8789V13.5666C11.8789 13.9658 11.5552 14.2895 11.156 14.2895C10.7567 14.2895 10.4331 13.9658 10.4331 13.5666V11.8798H8.74633C8.34709 11.8798 8.02344 11.5562 8.02344 11.1569C8.02344 10.7577 8.34709 10.4341 8.74633 10.4341H10.4331V8.74731C10.4331 8.34806 10.7567 8.02441 11.156 8.02441Z" fill="#1C274C"/>
<path d="M17.0996 18.1224L20.7659 21.7887C21.0482 22.071 21.5059 22.071 21.7882 21.7887C22.0705 21.5064 22.0705 21.0487 21.7882 20.7664L18.1219 17.1001C17.8085 17.4671 17.4666 17.809 17.0996 18.1224Z" fill="#1C274C"/>
</svg>
