<svg width="24" height="24" viewBox="0 0 24 24" fill="none" xmlns="http://www.w3.org/2000/svg">
<path d="M8.03789 9.85761C7.78315 9.73024 7.47363 9.84107 7.35763 10.1012L3.16496 19.5029C2.49789 20.9987 3.97914 22.5503 5.36689 21.8093L11.2706 18.6573C11.7298 18.4121 12.2702 18.4122 12.7294 18.6573L18.6331 21.8093C20.0209 22.5503 21.5021 20.9987 20.835 19.5029L19.2634 15.9785C19.0748 15.5557 18.7453 15.2113 18.3312 15.0043L8.03789 9.85761Z" fill="#1C274C"/>
<path opacity="0.5" d="M8.6095 8.46721C8.37019 8.34755 8.26749 8.06071 8.37646 7.81635L10.5271 2.99379C11.1174 1.67004 12.8818 1.67004 13.4722 2.99379L17.4401 11.8915C17.6313 12.3202 17.1797 12.7523 16.7598 12.5424L8.6095 8.46721Z" fill="#1C274C"/>
</svg>
