<svg width="24" height="24" viewBox="0 0 24 24" fill="none" xmlns="http://www.w3.org/2000/svg">
<path opacity="0.5" d="M2 12C2 7.28595 2 4.92893 3.46447 3.46447C4.92893 2 7.28595 2 12 2C16.714 2 19.0711 2 20.5355 3.46447C22 4.92893 22 7.28595 22 12C22 16.714 22 19.0711 20.5355 20.5355C19.0711 22 16.714 22 12 22C7.28595 22 4.92893 22 3.46447 20.5355C2 19.0711 2 16.714 2 12Z" fill="#1C274C"/>
<path d="M19.9517 2.98779C20.1616 3.12637 20.3553 3.2844 20.5355 3.46459C20.7157 3.64479 20.8738 3.8385 21.0123 4.04845L15.8107 9.25013H17.75C18.1642 9.25013 18.5 9.58591 18.5 10.0001C18.5 10.4143 18.1642 10.7501 17.75 10.7501H14C13.5858 10.7501 13.25 10.4143 13.25 10.0001V6.25013C13.25 5.83591 13.5858 5.50013 14 5.50013C14.4142 5.50013 14.75 5.83591 14.75 6.25013V8.18947L19.9517 2.98779Z" fill="#1C274C"/>
<path d="M4.04797 21.0123C3.83801 20.8738 3.6443 20.7157 3.46411 20.5355C3.28391 20.3553 3.12588 20.1616 2.9873 19.9517L8.18898 14.75H6.24964C5.83543 14.75 5.49964 14.4142 5.49964 14C5.49964 13.5858 5.83543 13.25 6.24964 13.25H9.99964C10.4139 13.25 10.7496 13.5858 10.7496 14V17.75C10.7496 18.1642 10.4139 18.5 9.99964 18.5C9.58543 18.5 9.24964 18.1642 9.24964 17.75V15.8107L4.04797 21.0123Z" fill="#1C274C"/>
</svg>
