<svg width="24" height="24" viewBox="0 0 24 24" fill="none" xmlns="http://www.w3.org/2000/svg">
<path opacity="0.5" fill-rule="evenodd" clip-rule="evenodd" d="M2 16.1438V4.99803C2 3.89986 2.8863 3.00775 3.9824 3.07511C4.95877 3.13512 6.11349 3.25374 7 3.48767C8.04921 3.76454 9.29611 4.35424 10.2823 4.87568C10.8166 5.15825 11.41 5.29016 12 5.27463V20.4744C11.4394 20.4744 10.8788 20.3394 10.3724 20.0695C9.37293 19.5367 8.08145 18.919 7 18.6336C6.12329 18.4022 4.98428 18.2837 4.01486 18.223C2.90605 18.1537 2 17.2548 2 16.1438Z" fill="#1C274D"/>
<path d="M22 16.1436V4.93319C22 3.86075 21.1538 2.98041 20.082 3.01775C18.9534 3.05706 17.5469 3.17403 16.5 3.48744C15.5924 3.75916 14.5353 4.30418 13.6738 4.80275C13.1587 5.10088 12.581 5.25912 12 5.27441V20.4741C12.5606 20.4741 13.1212 20.3392 13.6276 20.0692C14.6271 19.5365 15.9185 18.9187 17 18.6334C17.8767 18.402 19.0157 18.2835 19.9851 18.2228C21.094 18.1535 22 17.2546 22 16.1436Z" fill="#1C274D"/>
</svg>
