<svg width="24" height="24" viewBox="0 0 24 24" fill="none" xmlns="http://www.w3.org/2000/svg">
<path opacity="0.5" d="M3.99057 13.6019C1.33648 10.9478 1.33648 6.64466 3.99057 3.99057C6.64466 1.33648 10.9478 1.33648 13.6019 3.99057L20.0094 10.3981C22.6635 13.0522 22.6635 17.3553 20.0094 20.0094C17.3553 22.6635 13.0522 22.6635 10.3981 20.0094L3.99057 13.6019Z" fill="#1C274C"/>
<path d="M7.80716 17.4187L6.55371 16.1653L7.04923 16.0698C7.04892 16.0699 7.0493 16.0698 7.05022 16.0696L7.06408 16.0666C7.07846 16.0635 7.10306 16.0578 7.13728 16.0492C7.20572 16.0319 7.31261 16.0028 7.45319 15.9579C7.73439 15.8681 8.15013 15.7153 8.66265 15.4683C9.68683 14.9748 11.1003 14.1037 12.6016 12.6024C14.1029 11.1011 14.9741 9.68749 15.4678 8.66318C15.7148 8.15059 15.8677 7.73477 15.9575 7.45352C16.0024 7.31291 16.0316 7.206 16.0488 7.13753C16.0575 7.10331 16.0631 7.0787 16.0663 7.06432L16.0693 7.05048C16.0695 7.04957 16.0696 7.04915 16.0695 7.04946L16.165 6.55396L17.4184 7.80733C17.4085 7.83999 17.3978 7.8742 17.3864 7.90992C17.2769 8.25263 17.0988 8.73402 16.819 9.31443C16.2591 10.4761 15.2936 12.0317 13.6623 13.663C12.0309 15.2944 10.4754 16.2598 9.31384 16.8196C8.73348 17.0993 8.25214 17.2774 7.90946 17.3868C7.87385 17.3982 7.83974 17.4088 7.80716 17.4187Z" fill="#1C274C"/>
</svg>
