<svg width="24" height="24" viewBox="0 0 24 24" fill="none" xmlns="http://www.w3.org/2000/svg">
<path opacity="0.5" d="M20 12C20 16.4183 16.4183 20 12 20C7.58172 20 4 16.4183 4 12C4 7.58172 7.58172 4 12 4C16.4183 4 20 7.58172 20 12Z" fill="#1C274C"/>
<path d="M17.7129 5.45331C18.7598 5.25995 19.7189 5.19444 20.5099 5.30066C21.2802 5.40411 22.0456 5.69443 22.4654 6.36546C22.9117 7.07875 22.7772 7.90702 22.4532 8.62306C22.1239 9.35067 21.5349 10.1218 20.7811 10.8912C19.2657 12.4379 16.9451 14.1173 14.184 15.5883C11.4219 17.0599 8.68973 18.0721 6.49064 18.5079C5.39512 18.7249 4.39246 18.807 3.56794 18.709C2.7678 18.614 1.96828 18.3262 1.53552 17.6345C1.06472 16.882 1.23908 16.0043 1.60511 15.2551C1.98012 14.4875 2.63793 13.6693 3.47735 12.8522L4.00049 12.4165C4.00049 12.6349 4.08385 13.1257 4.1686 13.5624C4.21312 13.7918 4.25802 14.0062 4.29142 14.1584C3.63958 14.8237 3.19353 15.421 2.95285 15.9136C2.67562 16.481 2.74467 16.7391 2.80714 16.8389C2.87997 16.9553 3.11219 17.1443 3.7449 17.2195C4.35324 17.2918 5.18455 17.2375 6.19909 17.0365C8.22011 16.636 10.8123 15.685 13.4787 14.2644C16.1462 12.8433 18.3303 11.2493 19.7097 9.84143C20.4032 9.13359 20.8591 8.50726 21.0866 8.00467C21.3192 7.4905 21.2531 7.25586 21.1938 7.16105C21.1236 7.04882 20.9047 6.86715 20.3102 6.78731C19.7688 6.7146 19.0383 6.74602 18.1471 6.89948L16.8702 5.65597C17.209 5.55454 17.5283 5.48526 17.7129 5.45331Z" fill="#1C274C"/>
</svg>
