<svg width="24" height="24" viewBox="0 0 24 24" fill="none" xmlns="http://www.w3.org/2000/svg">
<path opacity="0.5" d="M17.9665 6.55812L16.1369 4.72848L16.1369 4.72848C14.5913 3.18295 13.8186 2.41018 12.816 2.12264C11.8134 1.83509 10.7485 2.08083 8.61875 2.57231L7.39057 2.85574C5.5988 3.26922 4.70292 3.47597 4.08944 4.08944C3.47597 4.70292 3.26922 5.5988 2.85574 7.39057L2.85574 7.39057L2.57231 8.61875C2.08083 10.7485 1.83509 11.8134 2.12264 12.816C2.41018 13.8186 3.18295 14.5914 4.72848 16.1369L6.55812 17.9665L6.55813 17.9665C9.24711 20.6555 10.5916 22 12.2623 22C13.933 22 15.2775 20.6555 17.9665 17.9665L17.9665 17.9665L17.9665 17.9665C20.6555 15.2775 22 13.933 22 12.2623C22 10.5916 20.6555 9.24711 17.9665 6.55813L17.9665 6.55812Z" fill="#1C274C"/>
<path d="M11.1473 14.3284C10.4744 13.6555 10.4801 12.6899 10.8825 11.9247C10.6814 11.6325 10.7108 11.2295 10.9706 10.9697C11.2294 10.7108 11.6305 10.6807 11.9224 10.8795C12.2622 10.6988 12.6356 10.6033 13.0077 10.6068C13.4219 10.6107 13.7545 10.9497 13.7506 11.3639C13.7467 11.7781 13.4078 12.1107 12.9936 12.1068C12.8167 12.1051 12.5842 12.1845 12.3848 12.3839C11.9972 12.7714 12.0992 13.1589 12.208 13.2678C12.3168 13.3766 12.7044 13.4785 13.0919 13.091C13.8759 12.307 15.2296 12.0467 16.0971 12.9142C16.7701 13.5872 16.7644 14.5528 16.3619 15.318C16.563 15.6102 16.5337 16.0132 16.2739 16.273C16.0149 16.5319 15.6138 16.5619 15.3219 16.3631C14.865 16.6059 14.3452 16.6969 13.8497 16.595C13.444 16.5117 13.1826 16.1152 13.266 15.7094C13.3494 15.3037 13.7459 15.0424 14.1516 15.1257C14.3288 15.1622 14.6144 15.104 14.8597 14.8588C15.2472 14.4712 15.1453 14.0837 15.0364 13.9749C14.9276 13.866 14.5401 13.7641 14.1526 14.1517C13.3685 14.9357 12.0148 15.1959 11.1473 14.3284Z" fill="#1C274C"/>
<path d="M10.0216 10.2931C10.8027 9.51207 10.8027 8.24574 10.0216 7.46469C9.24059 6.68364 7.97426 6.68364 7.19321 7.46469C6.41216 8.24574 6.41216 9.51207 7.19321 10.2931C7.97426 11.0742 9.24059 11.0742 10.0216 10.2931Z" fill="#1C274C"/>
</svg>
