<svg width="24" height="24" viewBox="0 0 24 24" fill="none" xmlns="http://www.w3.org/2000/svg">
<path fill-rule="evenodd" clip-rule="evenodd" d="M2.25042 11.8809C2.23991 12.057 2.26488 12.2706 2.31481 12.6978L2.71549 16.1258C2.89632 17.6729 3.72303 19.0714 4.99133 19.9757C5.92581 20.6419 7.04488 21 8.19255 21H11.8064C12.9541 21 14.0732 20.6419 15.0076 19.9757C15.8111 19.4028 16.4373 18.6317 16.8344 17.75H18.9995C21.0706 17.75 22.7495 16.0711 22.7495 14C22.7495 11.9289 21.0706 10.25 18.9995 10.25H16.7208C16.532 10.1455 16.3239 10.0703 16.1022 10.0309C15.9285 10 15.7135 10 15.2833 10H4.71563C4.28551 10 4.07045 10 3.89676 10.0309C2.98628 10.1928 2.3055 10.9577 2.25042 11.8809ZM17.7365 11.75C17.7419 11.7932 17.7459 11.8369 17.7486 11.8809C17.7591 12.057 17.7341 12.2706 17.6842 12.6977L17.2835 16.1258C17.2786 16.1673 17.2733 16.2087 17.2675 16.25H18.9995C20.2422 16.25 21.2495 15.2426 21.2495 14C21.2495 12.7574 20.2422 11.75 18.9995 11.75H17.7365Z" fill="#1C274C"/>
<g opacity="0.5">
<path fill-rule="evenodd" clip-rule="evenodd" d="M10.5307 1.46967C10.8236 1.76256 10.8236 2.23744 10.5307 2.53033C10.2713 2.78972 10.2713 3.21028 10.5307 3.46967C11.3758 4.31485 11.3758 5.68515 10.5307 6.53033C10.2378 6.82322 9.7629 6.82322 9.47001 6.53033C9.17712 6.23744 9.17712 5.76256 9.47001 5.46967C9.7294 5.21028 9.7294 4.78972 9.47001 4.53033C8.62483 3.68515 8.62483 2.31485 9.47001 1.46967C9.7629 1.17678 10.2378 1.17678 10.5307 1.46967Z" fill="#1C274C"/>
<path fill-rule="evenodd" clip-rule="evenodd" d="M6.03052 2.96967C6.32341 3.26256 6.32341 3.73744 6.03052 4.03033L5.9144 4.14645C5.67115 4.3897 5.64379 4.77479 5.85019 5.05C6.50448 5.92239 6.41772 7.14313 5.64664 7.91421L5.53052 8.03033C5.23763 8.32322 4.76275 8.32322 4.46986 8.03033C4.17697 7.73744 4.17697 7.26256 4.46986 6.96967L4.58598 6.85355C4.82923 6.6103 4.85659 6.22521 4.65019 5.95C3.9959 5.07761 4.08266 3.85687 4.85374 3.08579L4.96986 2.96967C5.26275 2.67678 5.73763 2.67678 6.03052 2.96967Z" fill="#1C274C"/>
<path fill-rule="evenodd" clip-rule="evenodd" d="M15.5305 2.96967C15.8234 3.26256 15.8234 3.73744 15.5305 4.03033L15.4144 4.14645C15.1712 4.3897 15.1438 4.77479 15.3502 5.05C16.0045 5.92239 15.9177 7.14313 15.1466 7.91421L15.0305 8.03033C14.7376 8.32322 14.2628 8.32322 13.9699 8.03033C13.677 7.73744 13.677 7.26256 13.9699 6.96967L14.086 6.85355C14.3292 6.6103 14.3566 6.22521 14.1502 5.95C13.4959 5.07761 13.5827 3.85687 14.3537 3.08579L14.4699 2.96967C14.7628 2.67678 15.2376 2.67678 15.5305 2.96967Z" fill="#1C274C"/>
</g>
</svg>
