<svg width="24" height="24" viewBox="0 0 24 24" fill="none" xmlns="http://www.w3.org/2000/svg">
<path fill-rule="evenodd" clip-rule="evenodd" d="M9 1H14.9768C14.992 0.99965 15.0072 0.999648 15.0225 1H21C21.5523 1 22 1.44772 22 2C22 2.55228 21.5523 3 21 3H15.744H13.656H9C8.44772 3 8 2.55228 8 2C8 1.44772 8.44772 1 9 1ZM8.25597 21H3C2.44772 21 2 21.4477 2 22C2 22.5523 2.44772 23 3 23H8.97753C8.99281 23.0004 9.00805 23.0004 9.02325 23H15C15.5523 23 16 22.5523 16 22C16 21.4477 15.5523 21 15 21H10.344H8.25597Z" fill="#1C274C"/>
<path opacity="0.5" d="M13.6559 3L8.25586 21H10.3439L15.7439 3H13.6559Z" fill="#1C274C"/>
</svg>
