<svg width="24" height="24" viewBox="0 0 24 24" fill="none" xmlns="http://www.w3.org/2000/svg">
<path fill-rule="evenodd" clip-rule="evenodd" d="M6.37589 19.5722C5.89831 19.4015 5.50603 19.1626 5.17184 18.8284C4.19751 17.8541 4.03348 16.3859 4.00586 13.75H19.9947C19.9671 16.3859 19.803 17.8541 18.8287 18.8284C18.4946 19.1625 18.1024 19.4014 17.6249 19.5721L18.6713 21.6648C18.8565 22.0352 18.7063 22.4857 18.3358 22.671C17.9654 22.8562 17.5149 22.7061 17.3296 22.3356L16.1057 19.8877C15.0573 20 13.7263 20 12.0003 20C10.2744 20 8.9435 20 7.89518 19.8877L6.67125 22.3356C6.48601 22.7061 6.03551 22.8562 5.66502 22.671C5.29454 22.4857 5.14437 22.0352 5.32961 21.6648L6.37589 19.5722ZM14.7503 16C14.7503 15.5858 15.0861 15.25 15.5003 15.25H17.0003C17.4145 15.25 17.7503 15.5858 17.7503 16C17.7503 16.4142 17.4145 16.75 17.0003 16.75H15.5003C15.0861 16.75 14.7503 16.4142 14.7503 16ZM7.00027 15.25C6.58606 15.25 6.25027 15.5858 6.25027 16C6.25027 16.4142 6.58606 16.75 7.00027 16.75H8.50027C8.91448 16.75 9.25027 16.4142 9.25027 16C9.25027 15.5858 8.91448 15.25 8.50027 15.25H7.00027Z" fill="#1C274C"/>
<path opacity="0.5" d="M5.17157 3.17153C4 4.3431 4 6.22872 4 9.99995V13.75H20V9.99995C20 6.22872 20 4.3431 18.8284 3.17153C17.9495 2.29264 16.6688 2.07307 14.4917 2.01822C14.2216 2.01142 14 2.22977 14 2.49995C14 3.60452 13.1046 4.49995 12 4.49995C10.8954 4.49995 10 3.60452 10 2.49995C10 2.22977 9.77845 2.01142 9.50835 2.01822C7.33118 2.07307 6.05046 2.29264 5.17157 3.17153Z" fill="#1C274C"/>
</svg>
