<svg width="24" height="24" viewBox="0 0 24 24" fill="none" xmlns="http://www.w3.org/2000/svg">
<path d="M13.752 14.4996C13.752 12.8428 15.0951 11.4996 16.752 11.4996C18.4088 11.4996 19.752 12.8428 19.752 14.4996C19.752 16.1565 18.4088 17.4996 16.752 17.4996C15.0951 17.4996 13.752 16.1565 13.752 14.4996Z" fill="#1C274C"/>
<path d="M3.75195 9.49963C3.75195 11.1565 5.0951 12.4996 6.75195 12.4996C8.40881 12.4996 9.75195 11.1565 9.75195 9.49963C9.75195 7.84278 8.40881 6.49963 6.75195 6.49963C5.0951 6.49963 3.75195 7.84278 3.75195 9.49963Z" fill="#1C274C"/>
<g opacity="0.5">
<path d="M7.46191 6.58355C7.23474 6.52854 6.99747 6.49939 6.75339 6.49939C6.47944 6.49939 6.21406 6.53611 5.96191 6.6049L5.96191 1.99939C5.96191 1.58518 6.2977 1.24939 6.71191 1.24939C7.12613 1.24939 7.46191 1.58518 7.46191 1.99939L7.46191 6.58355Z" fill="#1C274C"/>
<path d="M5.96191 12.3939C6.21406 12.4627 6.47944 12.4994 6.75339 12.4994C6.99747 12.4994 7.23474 12.4702 7.46191 12.4152L7.46191 21.9994C7.46191 22.4136 7.12613 22.7494 6.71191 22.7494C6.2977 22.7494 5.96191 22.4136 5.96191 21.9994L5.96191 12.3939Z" fill="#1C274C"/>
<path d="M15.9619 17.3939V21.9994C15.9619 22.4136 16.2977 22.7494 16.7119 22.7494C17.1261 22.7494 17.4619 22.4136 17.4619 21.9994V17.4152C17.2347 17.4702 16.9975 17.4994 16.7534 17.4994C16.4794 17.4994 16.2141 17.4627 15.9619 17.3939Z" fill="#1C274C"/>
<path d="M17.4619 11.5835V1.99939C17.4619 1.58517 17.1261 1.24939 16.7119 1.24939C16.2977 1.24939 15.9619 1.58518 15.9619 1.99939V11.6049C16.2141 11.5361 16.4794 11.4994 16.7534 11.4994C16.9975 11.4994 17.2347 11.5285 17.4619 11.5835Z" fill="#1C274C"/>
</g>
</svg>
