<svg width="24" height="24" viewBox="0 0 24 24" fill="none" xmlns="http://www.w3.org/2000/svg">
<path d="M15.6646 2.8291C16.0351 2.64386 16.4856 2.79403 16.6708 3.16451L17.1708 4.16451C17.3561 4.53499 17.2059 4.9855 16.8354 5.17074C16.4649 5.35598 16.0144 5.20581 15.8292 4.83533L15.3292 3.83533C15.1439 3.46485 15.2941 3.01434 15.6646 2.8291Z" fill="#1C274C"/>
<path fill-rule="evenodd" clip-rule="evenodd" d="M1.25 14.4999C1.25 9.94357 4.94365 6.24992 9.5 6.24992C11.5081 6.24992 13.3487 6.96739 14.7793 8.15997L16.4697 6.46959C16.7626 6.1767 17.2374 6.1767 17.5303 6.46959C17.8232 6.76248 17.8232 7.23736 17.5303 7.53025L15.84 9.22063C17.0325 10.6512 17.75 12.4918 17.75 14.4999C17.75 19.0563 14.0563 22.7499 9.5 22.7499C4.94365 22.7499 1.25 19.0563 1.25 14.4999ZM9.5 7.74992C5.77208 7.74992 2.75 10.772 2.75 14.4999C2.75 18.2278 5.77208 21.2499 9.5 21.2499C13.2279 21.2499 16.25 18.2278 16.25 14.4999C16.25 10.772 13.2279 7.74992 9.5 7.74992Z" fill="#1C274C"/>
<path d="M19.8354 6.8291C19.4649 6.64386 19.0144 6.79403 18.8292 7.16451C18.6439 7.53499 18.7941 7.9855 19.1646 8.17074L20.1646 8.67074C20.5351 8.85598 20.9856 8.70581 21.1708 8.33533C21.3561 7.96485 21.2059 7.51434 20.8354 7.3291L19.8354 6.8291Z" fill="#1C274C"/>
<path d="M20.5303 4.53025C20.8232 4.23736 20.8232 3.76248 20.5303 3.46959C20.2374 3.1767 19.7626 3.1767 19.4697 3.46959L18.4697 4.46959C18.1768 4.76248 18.1768 5.23736 18.4697 5.53025C18.7626 5.82314 19.2374 5.82314 19.5303 5.53025L20.5303 4.53025Z" fill="#1C274C"/>
</svg>
