<svg width="24" height="24" viewBox="0 0 24 24" fill="none" xmlns="http://www.w3.org/2000/svg">
<path fill-rule="evenodd" clip-rule="evenodd" d="M12.669 1.51033C13.3165 1.14123 14.1524 1.14042 14.8512 1.66457C16.6987 3.05035 18.7502 5.44509 18.7502 8.80739C18.7502 11.5394 17.5555 13.3133 16.0289 14.3768C14.5417 15.4129 12.782 15.7499 11.6002 15.7499C10.5305 15.7499 8.95639 15.4018 7.63303 14.3482C6.27677 13.2683 5.25019 11.4986 5.25019 8.80739C5.25019 6.38391 6.65562 4.82595 7.8436 4.02968C8.76465 3.41234 10.1357 3.81387 10.3156 5.06983C10.3814 5.52966 10.6183 5.85734 10.7876 5.96785C10.8073 5.98073 10.8222 5.98839 10.8328 5.99289C10.852 5.97705 10.8848 5.94352 10.9275 5.87666C11.4101 5.11986 11.6031 4.03939 11.6031 3.3889C11.6031 2.56945 12.0355 1.87144 12.669 1.51033ZM10.8135 6.00565C10.8135 6.00551 10.8149 6.00468 10.8179 6.00358C10.8151 6.00525 10.8136 6.00579 10.8135 6.00565ZM10.8486 5.99844C10.8509 5.99856 10.8521 5.99884 10.8521 5.99895C10.8522 5.99906 10.851 5.999 10.8486 5.99844ZM13.4118 2.81349C13.2458 2.90811 13.1031 3.10904 13.1031 3.3889C13.1031 4.22386 12.8751 5.6123 12.1922 6.68317C11.9452 7.07048 11.5951 7.37008 11.1443 7.46694C10.6971 7.56306 10.2844 7.43066 9.96764 7.22391C9.35866 6.82638 8.94317 6.06746 8.83073 5.28253C8.82865 5.26801 8.82561 5.25962 8.82395 5.25576C8.82228 5.25187 8.82104 5.25031 8.82077 5.24997L8.82076 5.24995C8.82056 5.2497 8.8186 5.24714 8.8113 5.24428C8.79803 5.2391 8.74964 5.22817 8.67875 5.27568C7.76154 5.89046 6.75019 7.0363 6.75019 8.80739C6.75019 11.0702 7.59028 12.3968 8.56734 13.1747C9.57732 13.9788 10.8032 14.2499 11.6002 14.2499C12.5517 14.2499 13.992 13.9677 15.1715 13.146C16.3116 12.3518 17.2502 11.0294 17.2502 8.80739C17.2502 6.10679 15.604 4.10433 13.9511 2.86452C13.7519 2.71514 13.5638 2.72686 13.4118 2.81349ZM15.2157 9.28157C15.6124 9.40059 15.8376 9.81871 15.7186 10.2155C15.4497 11.1118 14.3346 12.7499 12.0002 12.7499C11.586 12.7499 11.2502 12.4142 11.2502 11.9999C11.2502 11.5857 11.586 11.2499 12.0002 11.2499C13.5058 11.2499 14.1507 10.2214 14.2818 9.78443C14.4008 9.38768 14.819 9.16255 15.2157 9.28157ZM3.31307 14.6993C3.4791 14.3198 3.92132 14.1468 4.3008 14.3128L9.3008 16.5003C9.68029 16.6663 9.85333 17.1086 9.68731 17.4881C9.52128 17.8675 9.07906 18.0406 8.69957 17.8746L3.69958 15.6871C3.32009 15.521 3.14705 15.0788 3.31307 14.6993ZM20.6873 14.6993C20.8533 15.0788 20.6803 15.521 20.3008 15.6871L4.3008 22.6871C3.92132 22.8531 3.4791 22.68 3.31307 22.3006C3.14705 21.9211 3.32009 21.4788 3.69958 21.3128L19.6996 14.3128C20.0791 14.1468 20.5213 14.3198 20.6873 14.6993ZM13.8131 19.2931C13.9791 18.9136 14.4213 18.7405 14.8008 18.9066L20.3008 21.3128C20.6803 21.4788 20.8533 21.9211 20.6873 22.3006C20.5213 22.68 20.0791 22.8531 19.6996 22.6871L14.1996 20.2808C13.8201 20.1148 13.647 19.6726 13.8131 19.2931Z" fill="#1C274C"/>
</svg>
