<svg width="24" height="24" viewBox="0 0 24 24" fill="none" xmlns="http://www.w3.org/2000/svg">
<path d="M9.75 10.5C9.75 10.0858 10.0858 9.74999 10.5 9.74999H13.5C13.9142 9.74999 14.25 10.0858 14.25 10.5C14.25 10.9142 13.9142 11.25 13.5 11.25H10.5C10.0858 11.25 9.75 10.9142 9.75 10.5Z" fill="#1C274C"/>
<path d="M10.5 14.75C10.0858 14.75 9.75 15.0858 9.75 15.5C9.75 15.9142 10.0858 16.25 10.5 16.25H13.5C13.9142 16.25 14.25 15.9142 14.25 15.5C14.25 15.0858 13.9142 14.75 13.5 14.75H10.5Z" fill="#1C274C"/>
<path fill-rule="evenodd" clip-rule="evenodd" d="M17.6431 1.61412C17.8562 1.9693 17.7411 2.43 17.3859 2.64311L16.0939 3.41829C17.3788 4.21924 18.4122 5.386 19.0482 6.77288L20.2213 6.30363C20.6059 6.1498 21.0424 6.33686 21.1962 6.72145C21.3501 7.10604 21.163 7.54251 20.7784 7.69635L19.5381 8.19248C19.6766 8.7724 19.75 9.37763 19.75 9.99999V12.25H22C22.4142 12.25 22.75 12.5858 22.75 13C22.75 13.4142 22.4142 13.75 22 13.75H19.75V15C19.75 15.9493 19.5793 16.8587 19.267 17.6992L20.7785 18.3038C21.1631 18.4577 21.3502 18.8941 21.1964 19.2787C21.0425 19.6633 20.606 19.8504 20.2215 19.6965L18.6081 19.0512C17.2448 21.2702 14.7952 22.75 12 22.75C9.20476 22.75 6.75516 21.2702 5.39189 19.0512L3.77854 19.6965C3.39396 19.8504 2.95748 19.6633 2.80364 19.2787C2.64981 18.8941 2.83687 18.4577 3.22146 18.3038L4.733 17.6992C4.42067 16.8587 4.25 15.9493 4.25 15V13.75H2C1.58579 13.75 1.25 13.4142 1.25 13C1.25 12.5858 1.58579 12.25 2 12.25H4.25V9.99999C4.25 9.37763 4.32336 8.7724 4.46191 8.19248L3.22158 7.69635C2.83699 7.54251 2.64993 7.10604 2.80376 6.72145C2.9576 6.33686 3.39408 6.1498 3.77867 6.30363L4.95178 6.77288C5.58782 5.386 6.62116 4.21924 7.9061 3.41829L6.61413 2.64311C6.25894 2.43 6.14377 1.9693 6.35688 1.61412C6.56999 1.25893 7.03069 1.14376 7.38587 1.35687L9.53916 2.64884C10.3123 2.39014 11.1398 2.24999 12 2.24999C12.8602 2.24999 13.6877 2.39014 14.4608 2.64884L16.6141 1.35687C16.9693 1.14376 17.43 1.25893 17.6431 1.61412ZM9.5502 4.24838C9.69997 4.2382 9.84516 4.18327 9.96484 4.08882C10.6028 3.86922 11.2875 3.74999 12 3.74999C12.7125 3.74999 13.3972 3.86922 14.0352 4.08882C14.1548 4.18327 14.3 4.2382 14.4498 4.24838C16.684 5.20119 18.25 7.41771 18.25 9.99999V15C18.25 18.4518 15.4518 21.25 12 21.25C8.54822 21.25 5.75 18.4518 5.75 15V9.99999C5.75 7.41771 7.31604 5.20119 9.5502 4.24838Z" fill="#1C274C"/>
</svg>
