<svg width="24" height="24" viewBox="0 0 24 24" fill="none" xmlns="http://www.w3.org/2000/svg">
<path fill-rule="evenodd" clip-rule="evenodd" d="M17.3859 2.64311C17.7411 2.43 17.8562 1.9693 17.6431 1.61412C17.43 1.25893 16.9693 1.14376 16.6141 1.35687L14.2687 2.76414C13.582 2.43459 12.8126 2.24999 12 2.24999C11.1874 2.24999 10.418 2.43459 9.73131 2.76414L7.38587 1.35687C7.03069 1.14376 6.56999 1.25893 6.35688 1.61412C6.14377 1.9693 6.25894 2.43 6.61413 2.64311L8.37676 3.70069C7.37449 4.65679 6.75 6.00546 6.75 7.49999V7.79065C6.49339 7.92629 6.25088 8.08506 6.02526 8.26417C5.95652 8.19671 5.87356 8.14145 5.77854 8.10344L3.77854 7.30344C3.39396 7.1496 2.95748 7.33667 2.80364 7.72125C2.64981 8.10584 2.83687 8.54232 3.22146 8.69615L4.99257 9.4046C4.52263 10.135 4.25 11.0044 4.25 11.9375V13.25H2C1.58579 13.25 1.25 13.5858 1.25 14C1.25 14.4142 1.58579 14.75 2 14.75H4.25V15C4.25 16.279 4.55983 17.4857 5.10854 18.549L3.22146 19.3038C2.83687 19.4577 2.64981 19.8941 2.80364 20.2787C2.95748 20.6633 3.39396 20.8504 3.77854 20.6965L5.77854 19.8965C5.83233 19.875 5.88225 19.848 5.92792 19.8163C7.34764 21.6038 9.53996 22.75 12 22.75C14.46 22.75 16.6524 21.6038 18.0721 19.8163C18.1177 19.848 18.1677 19.875 18.2215 19.8965L20.2215 20.6965C20.606 20.8504 21.0425 20.6633 21.1964 20.2787C21.3502 19.8941 21.1631 19.4577 20.7785 19.3038L18.8915 18.549C19.4402 17.4857 19.75 16.279 19.75 15V14.75H22C22.4142 14.75 22.75 14.4142 22.75 14C22.75 13.5858 22.4142 13.25 22 13.25H19.75V11.9375C19.75 11.0044 19.4774 10.135 19.0074 9.4046L20.7785 8.69615C21.1631 8.54232 21.3502 8.10584 21.1964 7.72125C21.0425 7.33667 20.606 7.1496 20.2215 7.30344L18.2215 8.10344C18.1264 8.14145 18.0435 8.19671 17.9747 8.26417C17.7491 8.08506 17.5066 7.92629 17.25 7.79065V7.49999C17.25 6.00546 16.6255 4.65679 15.6232 3.70069L17.3859 2.64311ZM5.75 15V11.9375C5.75 10.1771 7.17709 8.74999 8.9375 8.74999H15.0625C16.8229 8.74999 18.25 10.1771 18.25 11.9375V15C18.25 18.198 15.8482 20.8349 12.75 21.2055V15C12.75 14.5858 12.4142 14.25 12 14.25C11.5858 14.25 11.25 14.5858 11.25 15V21.2055C8.15183 20.8349 5.75 18.198 5.75 15ZM12 3.74999C14.0037 3.74999 15.6404 5.32153 15.7447 7.29928C15.522 7.26681 15.2942 7.24999 15.0625 7.24999H8.9375C8.70578 7.24999 8.47799 7.2668 8.25528 7.29928C8.35958 5.32153 9.99627 3.74999 12 3.74999Z" fill="#1C274C"/>
</svg>
