<svg width="24" height="24" viewBox="0 0 24 24" fill="none" xmlns="http://www.w3.org/2000/svg">
<path fill-rule="evenodd" clip-rule="evenodd" d="M8.98569 3.47665C7.9721 2.04307 5.94388 1.80121 4.7177 3.09215L3.1481 4.74464C2.61224 5.30879 2.20497 6.09248 2.25401 7.00615C2.35326 8.85538 3.13844 12.6403 7.27161 16.9917C11.701 21.655 15.9261 21.8895 17.75 21.7095C18.497 21.6358 19.1016 21.2373 19.545 20.7705L20.9655 19.275C22.2705 17.9011 21.8904 15.6019 20.2575 14.662L18.347 13.5623C17.2485 12.9301 15.8862 13.1113 15.0124 14.0312L14.6038 14.4614C14.5748 14.4716 14.484 14.4961 14.3103 14.4679C13.9078 14.4025 13.0391 14.0472 11.607 12.5394C10.1793 11.0364 9.82765 10.1107 9.7609 9.65513C9.7287 9.43538 9.76142 9.31959 9.77436 9.28323L9.7765 9.27743L10.0214 9.01965C10.9889 8.00097 11.0574 6.4068 10.2467 5.26014L8.98569 3.47665ZM5.80528 4.12518C6.32812 3.57473 7.24855 3.61797 7.7609 4.34262L9.02189 6.1261C9.44403 6.72317 9.3793 7.51755 8.93376 7.98662L8.64695 8.28858L9.17861 8.79357C8.64694 8.28859 8.64625 8.28931 8.64556 8.29004L8.64415 8.29154L8.64125 8.29465L8.63514 8.30129L8.62182 8.31627C8.61246 8.32703 8.60219 8.33933 8.5912 8.35322C8.56922 8.381 8.54435 8.41514 8.51826 8.4559C8.46594 8.53766 8.40921 8.64533 8.36116 8.78035C8.26346 9.05492 8.21022 9.41852 8.27675 9.87259C8.40746 10.7647 8.99202 11.9644 10.5194 13.5724C12.0422 15.1757 13.1924 15.806 14.0699 15.9485C14.5201 16.0216 14.8846 15.9633 15.1606 15.8544C15.2955 15.8012 15.4023 15.7387 15.4824 15.6819C15.5223 15.6535 15.5556 15.6266 15.5825 15.6031C15.5959 15.5913 15.6078 15.5803 15.6181 15.5704L15.6324 15.5562L15.6388 15.5498L15.6417 15.5467L15.6432 15.5452C15.6438 15.5445 15.6445 15.5438 15.1174 15.043L15.6446 15.5437L16.1 15.0642C16.4854 14.6584 17.086 14.5673 17.5987 14.8624L19.5092 15.962C20.3301 16.4345 20.4907 17.5968 19.8779 18.2419L18.4574 19.7375C18.1783 20.0313 17.8864 20.1887 17.6026 20.2167C16.1676 20.3584 12.4234 20.2375 8.35919 15.9587C4.48307 11.8779 3.83289 8.43558 3.75185 6.92576C3.73042 6.52646 3.90429 6.12656 4.23568 5.77767L5.80528 4.12518Z" fill="#1C274C"/>
<path d="M15.75 4.00002C15.75 3.58581 15.4143 3.25002 15 3.25002C14.5858 3.25002 14.25 3.58581 14.25 4.00002L14.25 5.05202C14.25 5.9505 14.25 6.69972 14.33 7.2945C14.4144 7.92229 14.6 8.48909 15.0555 8.94456C15.511 9.40003 16.0778 9.5857 16.7056 9.67011C17.1662 9.73204 17.7195 9.74599 18.3631 9.74912L17.5315 10.4144C17.2081 10.6731 17.1556 11.1451 17.4144 11.4685C17.6731 11.792 18.1451 11.8444 18.4686 11.5857L20.9686 9.58567C21.1465 9.44334 21.25 9.22786 21.25 9.00002C21.25 8.77218 21.1465 8.5567 20.9686 8.41437L18.4686 6.41437C18.1451 6.15561 17.6731 6.20805 17.4144 6.5315C17.1556 6.85495 17.2081 7.32691 17.5315 7.58567L18.3606 8.2489C17.7357 8.24563 17.2729 8.23289 16.9054 8.18349C16.444 8.12144 16.2465 8.01422 16.1162 7.8839C15.9858 7.75359 15.8786 7.55609 15.8166 7.09463C15.7516 6.61159 15.75 5.96403 15.75 5.00002V4.00002Z" fill="#1C274C"/>
</svg>
