<svg width="24" height="24" viewBox="0 0 24 24" fill="none" xmlns="http://www.w3.org/2000/svg">
<path d="M7.2502 8.99996C7.2502 8.58575 7.58599 8.24996 8.0002 8.24996H11.0002C11.4144 8.24996 11.7502 8.58575 11.7502 8.99996C11.7502 9.41417 11.4144 9.74996 11.0002 9.74996H8.0002C7.58599 9.74996 7.2502 9.41417 7.2502 8.99996Z" fill="#1C274C"/>
<path fill-rule="evenodd" clip-rule="evenodd" d="M1.28869 2.76279C1.41968 2.36983 1.84442 2.15746 2.23737 2.28845L2.54176 2.38991C3.16813 2.59867 3.69746 2.7751 4.1137 2.96873C4.55613 3.17456 4.94002 3.42965 5.23112 3.83352C5.52222 4.2374 5.64282 4.68226 5.69817 5.16708C5.70129 5.19434 5.70421 5.22197 5.70696 5.24996L16.511 5.24996C17.4869 5.24992 18.3034 5.24989 18.9278 5.34233C19.5793 5.43877 20.2076 5.66045 20.6038 6.26135C21 6.86226 20.9563 7.52707 20.7883 8.16381C20.6273 8.77416 20.3057 9.52459 19.9212 10.4216L19.4544 11.5108C19.2778 11.9229 19.1224 12.2855 18.961 12.5725C18.7862 12.8832 18.5728 13.1653 18.2497 13.3784C17.9266 13.5914 17.5832 13.6764 17.2288 13.7147C16.9014 13.75 16.507 13.75 16.0587 13.75H6.15378C6.22758 13.8839 6.31252 13.9943 6.40921 14.091C6.68598 14.3677 7.07455 14.5482 7.80832 14.6468C8.56367 14.7484 9.56479 14.75 11.0002 14.75H19.0002C19.4144 14.75 19.7502 15.0857 19.7502 15.5C19.7502 15.9142 19.4144 16.25 19.0002 16.25H10.9453C9.57776 16.25 8.47541 16.25 7.60845 16.1334C6.70834 16.0124 5.95047 15.7535 5.34855 15.1516C4.74664 14.5497 4.48774 13.7918 4.36673 12.8917C4.25017 12.0247 4.25018 10.9224 4.2502 9.55484L4.2502 6.883C4.2502 6.17 4.24907 5.69823 4.20785 5.33722C4.16883 4.99538 4.10068 4.83049 4.01426 4.71059C3.92784 4.59069 3.79296 4.47389 3.481 4.32877C3.15155 4.17551 2.70435 4.02524 2.02794 3.79978L1.76303 3.71147C1.37008 3.58049 1.15771 3.15575 1.28869 2.76279ZM5.80693 12.25H16.022C16.5179 12.25 16.8305 12.2489 17.0678 12.2233C17.287 12.1997 17.3713 12.1608 17.424 12.1261C17.4766 12.0914 17.5455 12.0292 17.6537 11.837C17.7707 11.629 17.8948 11.3421 18.0901 10.8863L18.5187 9.88628C18.9332 8.91908 19.2087 8.27127 19.3379 7.78121C19.4636 7.30498 19.3999 7.16045 19.3515 7.08709C19.3032 7.01373 19.1954 6.89828 18.7082 6.82616C18.2068 6.75193 17.5029 6.74996 16.4506 6.74996H5.7502C5.75021 6.7802 5.75021 6.81066 5.7502 6.84135L5.7502 9.49996C5.7502 10.6719 5.75127 11.5544 5.80693 12.25Z" fill="#1C274C"/>
<path fill-rule="evenodd" clip-rule="evenodd" d="M7.5002 21.75C6.25756 21.75 5.2502 20.7426 5.2502 19.5C5.2502 18.2573 6.25756 17.25 7.5002 17.25C8.74284 17.25 9.7502 18.2573 9.7502 19.5C9.7502 20.7426 8.74284 21.75 7.5002 21.75ZM6.7502 19.5C6.7502 19.9142 7.08599 20.25 7.5002 20.25C7.91442 20.25 8.2502 19.9142 8.2502 19.5C8.2502 19.0857 7.91442 18.75 7.5002 18.75C7.08599 18.75 6.7502 19.0857 6.7502 19.5Z" fill="#1C274C"/>
<path fill-rule="evenodd" clip-rule="evenodd" d="M14.2502 19.5C14.2502 20.7427 15.2576 21.75 16.5002 21.75C17.7428 21.75 18.7502 20.7427 18.7502 19.5C18.7502 18.2574 17.7428 17.25 16.5002 17.25C15.2576 17.25 14.2502 18.2574 14.2502 19.5ZM16.5002 20.25C16.086 20.25 15.7502 19.9142 15.7502 19.5C15.7502 19.0858 16.086 18.75 16.5002 18.75C16.9144 18.75 17.2502 19.0858 17.2502 19.5C17.2502 19.9142 16.9144 20.25 16.5002 20.25Z" fill="#1C274C"/>
</svg>
