<svg width="24" height="24" viewBox="0 0 24 24" fill="none" xmlns="http://www.w3.org/2000/svg">
<path d="M9.99995 13.25C9.58573 13.25 9.24995 13.5858 9.24995 14C9.24995 14.4143 9.58573 14.75 9.99995 14.75H13.9999C14.4142 14.75 14.7499 14.4143 14.7499 14C14.7499 13.5858 14.4142 13.25 13.9999 13.25H9.99995Z" fill="#1C274C"/>
<path fill-rule="evenodd" clip-rule="evenodd" d="M14.6645 2.32922C15.035 2.14398 15.4855 2.29415 15.6708 2.66463L17.4841 6.29123C17.9116 6.31297 18.3015 6.34617 18.6548 6.3969C19.7105 6.54848 20.5843 6.87435 21.2053 7.6425C21.8263 8.41065 21.9618 9.33332 21.8888 10.3974C21.8181 11.4285 21.5394 12.7289 21.191 14.3546L20.7396 16.4613C20.5047 17.5577 20.3141 18.4471 20.0743 19.1419C19.8244 19.866 19.4949 20.4614 18.9323 20.9163C18.3696 21.3711 17.7184 21.5685 16.958 21.6612C16.2284 21.7501 15.3188 21.7501 14.1974 21.75H9.80252C8.6812 21.7501 7.77159 21.7501 7.04196 21.6612C6.28159 21.5685 5.63033 21.3711 5.06769 20.9163C4.50505 20.4614 4.17561 19.866 3.92569 19.1419C3.68586 18.4471 3.49529 17.5577 3.26035 16.4612L2.80893 14.3546C2.46055 12.7289 2.18188 11.4285 2.11115 10.3974C2.03816 9.33332 2.17371 8.41065 2.7947 7.6425C3.41568 6.87435 4.28947 6.54848 5.34519 6.3969C5.69846 6.34618 6.08832 6.31297 6.51583 6.29123L8.32913 2.66463C8.51437 2.29415 8.96487 2.14398 9.33536 2.32922C9.70584 2.51446 9.85601 2.96497 9.67077 3.33545L8.21244 6.2521C8.576 6.25003 8.95865 6.25004 9.36076 6.25004H14.6392C15.0412 6.25004 15.424 6.25003 15.7875 6.2521L14.3291 3.33545C14.1439 2.96497 14.2941 2.51446 14.6645 2.32922ZM5.73206 7.85876L5.32913 8.66463C5.14388 9.03512 5.29405 9.48562 5.66454 9.67086C6.03502 9.8561 6.48553 9.70594 6.67077 9.33545L7.45802 7.76095C8.02842 7.75038 8.67786 7.75004 9.42191 7.75004H14.5781C15.3221 7.75004 15.9715 7.75038 16.5419 7.76095L17.3291 9.33545C17.5144 9.70594 17.9649 9.8561 18.3354 9.67086C18.7058 9.48562 18.856 9.03512 18.6708 8.66463L18.2678 7.85875C18.327 7.86591 18.3849 7.87354 18.4416 7.88167C19.3255 8.00858 19.7592 8.2397 20.0388 8.58552C20.3136 8.92551 20.4488 9.38797 20.3953 10.25H3.60471C3.55112 9.38797 3.68634 8.92551 3.9612 8.58552C4.24076 8.2397 4.67449 8.00858 5.55837 7.88167C5.61501 7.87354 5.67289 7.86591 5.73206 7.85876ZM4.28844 14.1001C4.09145 13.1808 3.92663 12.4091 3.80694 11.75H20.193C20.0733 12.4091 19.9085 13.1808 19.7115 14.1001L19.2829 16.1001C19.0355 17.2546 18.8629 18.0542 18.6564 18.6525C18.4565 19.2314 18.2517 19.5376 17.9893 19.7498C17.7268 19.9619 17.3845 20.0981 16.7766 20.1722C16.1482 20.2487 15.3302 20.25 14.1495 20.25H9.85048C8.66972 20.25 7.85175 20.2487 7.22341 20.1722C6.61545 20.0981 6.27314 19.9619 6.01071 19.7498C5.74827 19.5376 5.54343 19.2314 5.3436 18.6525C5.13707 18.0542 4.96442 17.2546 4.71701 16.1001L4.28844 14.1001Z" fill="#1C274C"/>
</svg>
