<svg width="24" height="24" viewBox="0 0 24 24" fill="none" xmlns="http://www.w3.org/2000/svg">
<path fill-rule="evenodd" clip-rule="evenodd" d="M2.24896 2.29242C1.8582 2.15503 1.43005 2.36044 1.29266 2.7512C1.15527 3.14197 1.36068 3.57012 1.75145 3.7075L2.01266 3.79934C2.68026 4.03406 3.11902 4.18961 3.44186 4.34802C3.74509 4.4968 3.87876 4.61723 3.96682 4.74609C4.05708 4.87818 4.12678 5.0596 4.16611 5.42295C4.20726 5.80316 4.20828 6.29837 4.20828 7.03832V9.75996C4.20828 11.2125 4.22191 12.2598 4.35897 13.0601C4.50529 13.9144 4.79742 14.526 5.34366 15.1022C5.93752 15.7285 6.69032 16.0012 7.58656 16.1283C8.44479 16.25 9.53464 16.25 10.8804 16.25L16.2861 16.25C17.0278 16.25 17.6518 16.25 18.1568 16.1882C18.6925 16.1226 19.1811 15.9793 19.6076 15.6318C20.0341 15.2842 20.2731 14.8346 20.4455 14.3231C20.6079 13.841 20.7339 13.2299 20.8836 12.5034L21.3925 10.0341L21.3935 10.0295L21.4039 9.97723C21.5686 9.15234 21.7071 8.45845 21.7416 7.90034C21.7777 7.31414 21.711 6.73613 21.3292 6.23974C21.0942 5.93432 20.7639 5.76141 20.4634 5.65583C20.1569 5.54814 19.8103 5.48584 19.4606 5.44674C18.7735 5.36993 17.9389 5.36995 17.1203 5.36996L5.66809 5.36996C5.6648 5.33321 5.66124 5.29706 5.6574 5.26153C5.60367 4.76515 5.48725 4.31243 5.20527 3.89979C4.92109 3.48393 4.54324 3.21759 4.10261 3.00139C3.69052 2.79919 3.16689 2.61511 2.55036 2.39838L2.24896 2.29242ZM5.70828 6.86996H8.30391L9.6938 14.746C8.91096 14.738 8.29853 14.7143 7.79716 14.6432C7.08235 14.5418 6.70473 14.3576 6.43219 14.0701C6.11202 13.7324 5.93933 13.4018 5.83744 12.8068C5.72628 12.1578 5.70828 11.249 5.70828 9.75996L5.70828 6.86996ZM11.2177 14.75H14.2827L15.6733 6.86996H9.82709L11.2177 14.75ZM15.8059 14.75L17.1965 6.86997C18.0085 6.87016 18.7241 6.87376 19.2939 6.93745C19.5895 6.97049 19.8107 7.01639 19.9661 7.07101C20.0931 7.11565 20.1361 7.1521 20.1423 7.15737C20.2037 7.23878 20.2704 7.38648 20.2444 7.80793C20.217 8.2515 20.1005 8.84376 19.9229 9.73369L19.9225 9.73591L19.4237 12.156C19.2623 12.9389 19.1537 13.4592 19.024 13.8441C18.9009 14.2095 18.7853 14.3669 18.66 14.469C18.5348 14.571 18.3573 14.6525 17.9746 14.6993C17.5714 14.7487 17.0399 14.75 16.2406 14.75H15.8059Z" fill="#1C274C"/>
<path fill-rule="evenodd" clip-rule="evenodd" d="M7.5002 21.75C6.25756 21.75 5.2502 20.7426 5.2502 19.5C5.2502 18.2573 6.25756 17.25 7.5002 17.25C8.74285 17.25 9.7502 18.2573 9.7502 19.5C9.7502 20.7426 8.74285 21.75 7.5002 21.75ZM6.7502 19.5C6.7502 19.9142 7.08599 20.25 7.5002 20.25C7.91442 20.25 8.2502 19.9142 8.2502 19.5C8.2502 19.0857 7.91442 18.75 7.5002 18.75C7.08599 18.75 6.7502 19.0857 6.7502 19.5Z" fill="#1C274C"/>
<path fill-rule="evenodd" clip-rule="evenodd" d="M16.5002 21.75C15.2576 21.75 14.2502 20.7427 14.2502 19.5C14.2502 18.2574 15.2576 17.25 16.5002 17.25C17.7428 17.25 18.7502 18.2574 18.7502 19.5C18.7502 20.7427 17.7428 21.75 16.5002 21.75ZM15.7502 19.5C15.7502 19.9142 16.086 20.25 16.5002 20.25C16.9144 20.25 17.2502 19.9142 17.2502 19.5C17.2502 19.0858 16.9144 18.75 16.5002 18.75C16.086 18.75 15.7502 19.0858 15.7502 19.5Z" fill="#1C274C"/>
</svg>
