<svg width="24" height="24" viewBox="0 0 24 24" fill="none" xmlns="http://www.w3.org/2000/svg">
<path fill-rule="evenodd" clip-rule="evenodd" d="M6.11603 4.3328C5.40767 5.38599 4.89405 6.82109 4.89405 8.31555C4.89405 8.72976 4.55826 9.06555 4.14405 9.06555C3.72984 9.06555 3.39405 8.72976 3.39405 8.31555C3.39405 6.49422 4.0133 4.77142 4.87137 3.49565C5.30122 2.85657 5.80475 2.30904 6.34523 1.91453C6.87914 1.52481 7.49848 1.24976 8.14405 1.24976C9.70921 1.24976 10.894 2.3624 11.6493 4.14089C12.4046 5.91965 12.8223 8.53556 12.8223 11.9999C12.8223 15.3777 13.2343 17.7618 13.8758 19.2726C14.5174 20.7836 15.2967 21.2499 16.0002 21.2499C16.2218 21.2499 16.536 21.15 16.9147 20.8736C17.2868 20.602 17.6749 20.1923 18.0283 19.6669C18.7366 18.6137 19.2502 17.1786 19.2502 15.6841C19.2502 15.2699 19.586 14.9341 20.0002 14.9341C20.4145 14.9341 20.7502 15.2699 20.7502 15.6841C20.7502 17.5055 20.131 19.2283 19.2729 20.504C18.8431 21.1431 18.3395 21.6906 17.7991 22.0851C17.2651 22.4749 16.6458 22.7499 16.0002 22.7499C14.4351 22.7499 13.2503 21.6373 12.4951 19.8588C11.7398 18.0801 11.3223 15.4643 11.3223 11.9999C11.3223 8.62218 10.9102 6.238 10.2686 4.7272C9.62691 3.21614 8.84761 2.74976 8.14405 2.74976C7.92249 2.74976 7.60826 2.8497 7.22959 3.1261C6.85749 3.39771 6.46941 3.80741 6.11603 4.3328ZM1.25 11.9999C1.25 11.5857 1.58579 11.2499 2 11.2499H9.5C9.91421 11.2499 10.25 11.5857 10.25 11.9999C10.25 12.4141 9.91421 12.7499 9.5 12.7499H2C1.58579 12.7499 1.25 12.4141 1.25 11.9999ZM13.75 11.9999C13.75 11.5857 14.0858 11.2499 14.5 11.2499H22C22.4142 11.2499 22.75 11.5857 22.75 11.9999C22.75 12.4141 22.4142 12.7499 22 12.7499H14.5C14.0858 12.7499 13.75 12.4141 13.75 11.9999Z" fill="#1C274C"/>
</svg>
