<svg width="24" height="24" viewBox="0 0 24 24" fill="none" xmlns="http://www.w3.org/2000/svg">
<path fill-rule="evenodd" clip-rule="evenodd" d="M12 7.75024C6.51318 7.75025 3.90179 10.2014 3.01834 11.2677C2.84345 11.4788 2.75 11.7743 2.75 12.1417L2.75 14.0646C2.75 14.8283 3.5319 15.4414 4.36905 15.1961L6.36905 14.61C6.90669 14.4524 7.25 13.9835 7.25 13.4785L7.25 12.862L8 12.862C7.25 12.862 7.25 12.861 7.25 12.8599L7.25001 12.8579L7.25004 12.8536L7.25019 12.8447L7.25085 12.8248C7.25147 12.8107 7.25248 12.7949 7.25406 12.7775C7.25722 12.7429 7.26263 12.7018 7.27167 12.6555C7.2898 12.5625 7.32239 12.4487 7.37982 12.3224C7.49703 12.0648 7.7059 11.7813 8.05672 11.5243C8.74267 11.0217 9.93056 10.6465 12 10.6465C14.0694 10.6465 15.2573 11.0217 15.9433 11.5243C16.2941 11.7813 16.503 12.0648 16.6202 12.3224C16.6776 12.4487 16.7102 12.5625 16.7283 12.6555C16.7374 12.7018 16.7428 12.7429 16.7459 12.7775C16.7475 12.7949 16.7485 12.8107 16.7492 12.8248L16.7498 12.8447L16.75 12.8536L16.75 12.8579L16.75 12.8599C16.75 12.861 16.75 12.862 16 12.862H16.75V13.2502C16.75 13.8159 17.1811 14.3286 17.8091 14.4207L19.8091 14.7137C20.5953 14.829 21.25 14.2409 21.25 13.5432V11.4185C21.25 10.9781 21.1133 10.6323 20.8708 10.4157C19.8648 9.51732 17.233 7.75024 12 7.75024ZM15.25 12.9338V13.2502C15.25 14.5973 16.2642 15.7103 17.5916 15.9048L19.5916 16.1979C21.2257 16.4374 22.75 15.213 22.75 13.5432V11.4185C22.75 10.685 22.5191 9.87663 21.8699 9.29685C20.5944 8.1578 17.6087 6.25024 12 6.25024C5.98964 6.25025 2.97874 8.96443 1.86331 10.3106C1.40595 10.8626 1.25 11.5312 1.25 12.1417L1.25 14.0646C1.25 15.8968 3.05932 17.143 4.7909 16.6356L6.7909 16.0494C7.93988 15.7127 8.75 14.6779 8.75 13.4785L8.75 12.9338C8.76534 12.9047 8.8133 12.8295 8.94328 12.7342C9.25733 12.5041 10.0694 12.1465 12 12.1465C13.9306 12.1465 14.7427 12.5041 15.0567 12.7342C15.1867 12.8295 15.2347 12.9047 15.25 12.9338Z" fill="#1C274C"/>
</svg>
