<svg width="28" height="28" viewBox="0 0 28 28" fill="none" xmlns="http://www.w3.org/2000/svg">
<path d="M20.9343 5.30517L18.7316 7.50788C17.7242 6.74927 16.2905 6.01683 14.2333 6.01683C11.0434 6.01683 8.35299 7.91109 7.1673 10.5797C7.11842 10.6507 7.08412 10.7189 7.05958 10.7753C7.02001 10.8663 6.99415 10.9551 6.97884 11.0087C6.97528 11.0212 6.97197 11.0328 6.96888 11.0436C6.93922 11.1477 6.93019 11.1794 6.9125 11.2148C6.89663 11.2465 6.88303 11.2793 6.8718 11.313C6.60875 12.1022 6.48332 13.0008 6.48332 13.8835C6.48332 14.7646 6.60829 15.6615 6.87036 16.4497C7.90249 19.6688 10.8693 21.8668 14.2333 21.8668C16.1034 21.8668 17.6666 21.3704 18.7552 20.5587C20.4629 19.3707 21.258 17.5362 21.3954 16.2997C21.419 16.0876 21.3511 15.8756 21.2088 15.7166C21.0666 15.5577 20.8633 15.4668 20.65 15.4668H14.9833V12.6502H24.5604C24.6313 13.1324 24.6833 13.6296 24.6833 14.2335C24.6833 17.6723 23.4662 20.4889 21.4332 22.3079L21.4204 22.3197C19.7091 23.924 17.2165 24.9168 14.2333 24.9168C9.97029 24.9168 6.26596 22.514 4.52484 18.923L4.52489 18.9229L4.5208 18.9148C3.75 17.3731 3.31665 15.7373 3.31665 14.0002C3.31665 12.2631 3.75 10.6272 4.5208 9.08557L4.52085 9.0856L4.52484 9.07737C6.26596 5.48632 9.97029 3.0835 14.2333 3.0835C16.8732 3.0835 19.1559 3.9546 20.9343 5.30517Z" fill="#344251" stroke="#344251" stroke-width="1.5" stroke-miterlimit="10" stroke-linecap="round" stroke-linejoin="round"/>
</svg>
