<svg width="24" height="24" viewBox="0 0 24 24" fill="none" xmlns="http://www.w3.org/2000/svg">
<path fill-rule="evenodd" clip-rule="evenodd" d="M12 9.2499C9.92893 9.2499 8.25 10.9288 8.25 12.9999C8.25 15.071 9.92893 16.7499 12 16.7499C14.0711 16.7499 15.75 15.071 15.75 12.9999C15.75 10.9288 14.0711 9.2499 12 9.2499ZM9.75 12.9999C9.75 11.7573 10.7574 10.7499 12 10.7499C13.2426 10.7499 14.25 11.7573 14.25 12.9999C14.25 14.2425 13.2426 15.2499 12 15.2499C10.7574 15.2499 9.75 14.2425 9.75 12.9999Z" fill="#1C274D"/>
<path d="M10 18.2499C9.58579 18.2499 9.25 18.5857 9.25 18.9999C9.25 19.4141 9.58579 19.7499 10 19.7499H14C14.4142 19.7499 14.75 19.4141 14.75 18.9999C14.75 18.5857 14.4142 18.2499 14 18.2499H10Z" fill="#1C274D"/>
<path fill-rule="evenodd" clip-rule="evenodd" d="M15.6111 1.58358C17.2678 1.34691 18.75 2.63243 18.75 4.30594V5.68242C19.9395 6.31117 20.75 7.56087 20.75 8.9999V18.9999C20.75 21.071 19.0711 22.7499 17 22.7499H7C4.92893 22.7499 3.25 21.071 3.25 18.9999V4.9999H3.25136C3.25046 4.97633 3.25 4.95264 3.25 4.92885C3.25 4.0226 3.91638 3.25425 4.81353 3.12608L15.6111 1.58358ZM5.07107 6.74992L5.06244 6.7499H4.75V18.9999C4.75 20.2425 5.75736 21.2499 7 21.2499H17C18.2426 21.2499 19.25 20.2425 19.25 18.9999V8.9999C19.25 7.76046 18.2478 6.75509 17.0096 6.74992H5.07107ZM17.25 5.24992H17.0125L17 5.2499H5.0674C4.89177 5.24793 4.75 5.10495 4.75 4.92885C4.75 4.76907 4.86749 4.6336 5.02566 4.61101L15.8232 3.0685C16.5763 2.96092 17.25 3.54525 17.25 4.30594V5.24992Z" fill="#1C274D"/>
</svg>
