<svg width="24" height="24" viewBox="0 0 24 24" fill="none" xmlns="http://www.w3.org/2000/svg">
<path fill-rule="evenodd" clip-rule="evenodd" d="M8.25 13.9999C8.25 11.9288 9.92893 10.2499 12 10.2499C14.0711 10.2499 15.75 11.9288 15.75 13.9999C15.75 16.071 14.0711 17.7499 12 17.7499C9.92893 17.7499 8.25 16.071 8.25 13.9999ZM12 11.7499C10.7574 11.7499 9.75 12.7573 9.75 13.9999C9.75 15.2425 10.7574 16.2499 12 16.2499C13.2426 16.2499 14.25 15.2425 14.25 13.9999C14.25 12.7573 13.2426 11.7499 12 11.7499Z" fill="#1C274D"/>
<path fill-rule="evenodd" clip-rule="evenodd" d="M18.75 4.30594C18.75 2.63243 17.2678 1.34691 15.6111 1.58358L4.81353 3.12608C3.91638 3.25425 3.25 4.0226 3.25 4.92885C3.25 4.95264 3.25046 4.97633 3.25136 4.9999H3.25V18.9999C3.25 21.071 4.92893 22.7499 7 22.7499H17C19.0711 22.7499 20.75 21.071 20.75 18.9999V8.9999C20.75 7.56087 19.9395 6.31117 18.75 5.68242V4.30594ZM5.06244 6.7499C5.06531 6.74991 5.06819 6.74992 5.07107 6.74992H17.0096C18.2478 6.75509 19.25 7.76046 19.25 8.9999V18.9999C19.25 20.2425 18.2426 21.2499 17 21.2499H7C5.75736 21.2499 4.75 20.2425 4.75 18.9999V6.7499H5.06244ZM17.0125 5.24992H17.25V4.30594C17.25 3.54525 16.5763 2.96092 15.8232 3.0685L5.02566 4.61101C4.86749 4.6336 4.75 4.76907 4.75 4.92885C4.75 5.10495 4.89177 5.24793 5.0674 5.2499H17C17.0042 5.2499 17.0084 5.2499 17.0125 5.24992Z" fill="#1C274D"/>
</svg>
