<svg width="24" height="24" viewBox="0 0 24 24" fill="none" xmlns="http://www.w3.org/2000/svg">
<path fill-rule="evenodd" clip-rule="evenodd" d="M14.9826 1.25H9C8.58579 1.25 8.25 1.58579 8.25 2C8.25 2.41421 8.58579 2.75 9 2.75H13.992L8.44198 21.25H3C2.58579 21.25 2.25 21.5858 2.25 22C2.25 22.4142 2.58579 22.75 3 22.75H8.98314C8.9946 22.7503 9.00604 22.7503 9.01744 22.75H15C15.4142 22.75 15.75 22.4142 15.75 22C15.75 21.5858 15.4142 21.25 15 21.25H10.008L15.558 2.75H21C21.4142 2.75 21.75 2.41421 21.75 2C21.75 1.58579 21.4142 1.25 21 1.25H15.0169C15.0054 1.24974 14.994 1.24974 14.9826 1.25Z" fill="#1C274C"/>
</svg>
