<svg width="24" height="24" viewBox="0 0 24 24" fill="none" xmlns="http://www.w3.org/2000/svg">
<path d="M18.357 1.61412C18.5701 1.25893 19.0308 1.14376 19.386 1.35687L19.0001 1.99999C19.386 1.35687 19.3857 1.35667 19.386 1.35687L19.3874 1.35771L19.389 1.35866L19.3927 1.36091L19.4023 1.36683C19.4096 1.3714 19.4189 1.37724 19.4299 1.38436C19.4519 1.39859 19.481 1.41797 19.5162 1.4426C19.5865 1.49182 19.6815 1.56232 19.7928 1.65508C20.0149 1.84016 20.3053 2.11666 20.5946 2.49271C21.1775 3.25044 21.7501 4.40734 21.7501 5.99999C21.7501 7.59265 21.1775 8.74954 20.5946 9.50727C20.3053 9.88332 20.0149 10.1598 19.7928 10.3449C19.6815 10.4377 19.5865 10.5082 19.5162 10.5574C19.481 10.582 19.4519 10.6014 19.4299 10.6156C19.4189 10.6227 19.4096 10.6286 19.4023 10.6332L19.3927 10.6391L19.389 10.6413L19.3874 10.6423C19.3871 10.6425 19.386 10.6431 19.0001 9.99999L19.386 10.6431C19.0308 10.8562 18.5701 10.741 18.357 10.3859C18.1448 10.0322 18.2581 9.57386 18.6098 9.35958L18.6153 9.35604C18.6226 9.35133 18.6365 9.34219 18.656 9.32854C18.695 9.30119 18.7563 9.25607 18.8325 9.19258C18.9854 9.06516 19.1949 8.86666 19.4057 8.59271C19.8228 8.05044 20.2501 7.20734 20.2501 5.99999C20.2501 4.79264 19.8228 3.94954 19.4057 3.40727C19.1949 3.13332 18.9854 2.93482 18.8325 2.80741C18.7563 2.74391 18.695 2.69879 18.656 2.67145C18.6365 2.6578 18.6226 2.64866 18.6153 2.64394L18.6098 2.64041C18.2581 2.42613 18.1448 1.96781 18.357 1.61412Z" fill="#1C274C"/>
<path fill-rule="evenodd" clip-rule="evenodd" d="M10.0001 1.24999C7.37678 1.24999 5.25013 3.37664 5.25013 5.99999C5.25013 8.62334 7.37678 10.75 10.0001 10.75C12.6235 10.75 14.7501 8.62334 14.7501 5.99999C14.7501 3.37664 12.6235 1.24999 10.0001 1.24999ZM6.75013 5.99999C6.75013 4.20507 8.20521 2.74999 10.0001 2.74999C11.7951 2.74999 13.2501 4.20507 13.2501 5.99999C13.2501 7.79492 11.7951 9.24999 10.0001 9.24999C8.20521 9.24999 6.75013 7.79492 6.75013 5.99999Z" fill="#1C274C"/>
<path fill-rule="evenodd" clip-rule="evenodd" d="M10.0001 12.25C7.68658 12.25 5.55506 12.7759 3.97558 13.6643C2.41962 14.5396 1.25013 15.8661 1.25013 17.5L1.25007 17.6019C1.24894 18.7638 1.24752 20.222 2.52655 21.2635C3.15602 21.7761 4.03661 22.1406 5.22634 22.3815C6.4194 22.6229 7.97436 22.75 10.0001 22.75C12.0259 22.75 13.5809 22.6229 14.7739 22.3815C15.9637 22.1406 16.8443 21.7761 17.4737 21.2635C18.7527 20.222 18.7513 18.7638 18.7502 17.6019L18.7501 17.5C18.7501 15.8661 17.5807 14.5396 16.0247 13.6643C14.4452 12.7759 12.3137 12.25 10.0001 12.25ZM2.75013 17.5C2.75013 16.6486 3.37151 15.7251 4.71098 14.9717C6.02693 14.2315 7.89541 13.75 10.0001 13.75C12.1049 13.75 13.9733 14.2315 15.2893 14.9717C16.6288 15.7251 17.2501 16.6486 17.2501 17.5C17.2501 18.8078 17.2098 19.544 16.5265 20.1004C16.156 20.4021 15.5366 20.6967 14.4763 20.9113C13.4194 21.1252 11.9744 21.25 10.0001 21.25C8.02591 21.25 6.58087 21.1252 5.52393 20.9113C4.46366 20.6967 3.84425 20.4021 3.47372 20.1004C2.79045 19.544 2.75013 18.8078 2.75013 17.5Z" fill="#1C274C"/>
<path d="M17.386 3.35687C17.0308 3.14376 16.5701 3.25893 16.357 3.61412L16.6052 4.63761L16.613 4.64293C16.6247 4.65113 16.6469 4.66735 16.6762 4.69178C16.7354 4.74107 16.8199 4.82082 16.9057 4.93227C17.0728 5.14954 17.2501 5.49264 17.2501 5.99999C17.2501 6.50734 17.0728 6.85044 16.9057 7.06771C16.8199 7.17916 16.7354 7.25891 16.6762 7.3082C16.6469 7.33263 16.6247 7.34885 16.613 7.35705L16.6052 7.36237C16.2571 7.57782 16.1457 8.0337 16.357 8.38586C16.5701 8.74105 17.0308 8.85622 17.386 8.64311L17.0001 7.99999C17.386 8.64311 17.3857 8.64331 17.386 8.64311L17.3873 8.6423L17.3888 8.64144L17.3919 8.63951L17.3994 8.63492L17.4186 8.6227C17.4333 8.61321 17.4517 8.60096 17.4732 8.5859C17.5162 8.55582 17.5721 8.51423 17.6365 8.46053C17.7649 8.35357 17.9303 8.19582 18.0946 7.98227C18.4275 7.54954 18.7501 6.89264 18.7501 5.99999C18.7501 5.10734 18.4275 4.45044 18.0946 4.01771C17.9303 3.80416 17.7649 3.64641 17.6365 3.53945C17.5721 3.48576 17.5162 3.44416 17.4732 3.41408C17.4517 3.39902 17.4333 3.38678 17.4186 3.37728L17.3994 3.36507L17.3919 3.36047L17.3888 3.35855L17.3873 3.35768C17.387 3.35748 17.386 3.35687 17.0001 3.99999L17.386 3.35687Z" fill="#1C274C"/>
</svg>
