<svg width="24" height="24" viewBox="0 0 24 24" fill="none" xmlns="http://www.w3.org/2000/svg">
<path d="M8 12.862H7.25L7.25 12.862L8 12.862ZM8 13.4785H8.75L8.75 13.4785L8 13.4785ZM6.57997 15.3297L6.36905 14.61H6.36905L6.57997 15.3297ZM4.57997 15.9158L4.36905 15.1961H4.36905L4.57997 15.9158ZM2 14.0646L2.75 14.0646L2 14.0646ZM2 12.1417H2.75H2ZM2.44083 10.7892L1.86331 10.3106H1.86331L2.44083 10.7892ZM12 7.00024V7.75024V7.00024ZM21.3703 9.85626L21.8699 9.29685V9.29685L21.3703 9.85626ZM16 13.2502H15.25H16ZM17.7004 15.1627L17.5916 15.9048L17.7004 15.1627ZM19.7004 15.4558L19.8091 14.7137L19.7004 15.4558ZM22 13.5432H21.25V13.5432L22 13.5432ZM22 11.4185H22.75V11.4185L22 11.4185ZM12 11.3965V10.6465V11.3965ZM7.25 12.862L7.25 13.4785L8.75 13.4785L8.75 12.862L7.25 12.862ZM6.36905 14.61L4.36905 15.1961L4.7909 16.6356L6.7909 16.0494L6.36905 14.61ZM2.75 14.0646L2.75 12.1417H1.25L1.25 14.0646L2.75 14.0646ZM3.01834 11.2677C3.90179 10.2014 6.51318 7.75025 12 7.75024V6.25024C5.98964 6.25025 2.97874 8.96443 1.86331 10.3106L3.01834 11.2677ZM12 7.75024C17.233 7.75024 19.8648 9.51732 20.8708 10.4157L21.8699 9.29685C20.5944 8.1578 17.6087 6.25024 12 6.25024V7.75024ZM15.25 12.862V13.2502H16.75V12.862H15.25ZM17.5916 15.9048L19.5916 16.1979L19.8091 14.7137L17.8091 14.4207L17.5916 15.9048ZM22.75 13.5432V11.4185H21.25V13.5432H22.75ZM16 12.862C16.75 12.862 16.75 12.861 16.75 12.8599C16.75 12.8596 16.75 12.8586 16.75 12.8579C16.75 12.8565 16.75 12.8551 16.75 12.8536C16.7499 12.8507 16.7499 12.8478 16.7498 12.8447C16.7497 12.8385 16.7495 12.8318 16.7492 12.8248C16.7485 12.8107 16.7475 12.7949 16.7459 12.7775C16.7428 12.7429 16.7374 12.7018 16.7283 12.6555C16.7102 12.5625 16.6776 12.4487 16.6202 12.3224C16.503 12.0648 16.2941 11.7813 15.9433 11.5243C15.2573 11.0217 14.0694 10.6465 12 10.6465V12.1465C13.9306 12.1465 14.7427 12.5041 15.0567 12.7342C15.2059 12.8435 15.247 12.9264 15.2548 12.9436C15.2599 12.9547 15.2586 12.9554 15.256 12.9425C15.2548 12.9362 15.2533 12.9267 15.2521 12.9135C15.2515 12.9068 15.251 12.8993 15.2506 12.8907C15.2504 12.8865 15.2503 12.8819 15.2502 12.8771C15.2501 12.8747 15.2501 12.8723 15.25 12.8698C15.25 12.8685 15.25 12.8672 15.25 12.8659C15.25 12.8653 15.25 12.8643 15.25 12.8639C15.25 12.863 15.25 12.862 16 12.862ZM12 10.6465C9.93056 10.6465 8.74267 11.0217 8.05672 11.5243C7.7059 11.7813 7.49703 12.0648 7.37982 12.3224C7.32239 12.4487 7.2898 12.5625 7.27167 12.6555C7.26263 12.7018 7.25722 12.7429 7.25406 12.7775C7.25248 12.7949 7.25147 12.8107 7.25085 12.8248C7.25054 12.8318 7.25032 12.8385 7.25019 12.8447C7.25012 12.8478 7.25008 12.8507 7.25004 12.8536C7.25003 12.8551 7.25002 12.8565 7.25001 12.8579C7.25001 12.8586 7.25 12.8596 7.25 12.8599C7.25 12.861 7.25 12.862 8 12.862C8.75 12.862 8.75 12.863 8.75 12.8639C8.75 12.8643 8.74999 12.8653 8.74999 12.8659C8.74998 12.8672 8.74997 12.8685 8.74996 12.8698C8.74993 12.8723 8.74989 12.8747 8.74984 12.8771C8.74973 12.8819 8.74958 12.8865 8.7494 12.8907C8.74902 12.8993 8.74849 12.9068 8.74789 12.9135C8.74669 12.9267 8.74518 12.9362 8.74395 12.9425C8.74145 12.9554 8.74011 12.9547 8.74518 12.9436C8.75297 12.9264 8.7941 12.8435 8.94328 12.7342C9.25733 12.5041 10.0694 12.1465 12 12.1465V10.6465ZM19.5916 16.1979C21.2257 16.4374 22.75 15.213 22.75 13.5432L21.25 13.5432C21.25 14.2409 20.5953 14.829 19.8091 14.7137L19.5916 16.1979ZM20.8708 10.4157C21.1133 10.6323 21.25 10.9781 21.25 11.4185L22.75 11.4185C22.75 10.685 22.5191 9.87663 21.8699 9.29685L20.8708 10.4157ZM2.75 12.1417C2.75 11.7743 2.84345 11.4788 3.01834 11.2677L1.86331 10.3106C1.40595 10.8626 1.25 11.5312 1.25 12.1417H2.75ZM15.25 13.2502C15.25 14.5973 16.2642 15.7103 17.5916 15.9048L17.8091 14.4207C17.1811 14.3286 16.75 13.8159 16.75 13.2502L15.25 13.2502ZM4.36905 15.1961C3.5319 15.4414 2.75 14.8283 2.75 14.0646L1.25 14.0646C1.25 15.8968 3.05932 17.143 4.7909 16.6356L4.36905 15.1961ZM7.25 13.4785C7.25 13.9835 6.90669 14.4524 6.36905 14.61L6.7909 16.0494C7.93988 15.7127 8.75 14.6779 8.75 13.4785L7.25 13.4785Z" fill="#1C274C"/>
</svg>
