<svg width="24" height="24" viewBox="0 0 24 24" fill="none" xmlns="http://www.w3.org/2000/svg">
<path d="M17.8445 6.15547C17.8445 6.15547 17.4119 8.39999 14.9057 10.9061C12.3996 13.4123 10.1555 13.8445 10.1555 13.8445M20.4075 16.4075C18.2843 18.5308 14.8418 18.5308 12.7185 16.4075L7.59246 11.2815C5.46918 9.15824 5.46918 5.71573 7.59246 3.59246C9.71573 1.46918 13.1582 1.46918 15.2815 3.59246L20.4075 8.71849C22.5308 10.8418 22.5308 14.2843 20.4075 16.4075Z" stroke="#1C274C" stroke-width="1.5"/>
<path d="M14.5 6.5L13 5" stroke="#1C274C" stroke-width="1.5" stroke-linecap="round"/>
<path d="M6.73022 10.1345C4.02637 10.7171 2 13.1219 2 15.9999C2 19.3136 4.68629 21.9999 8 21.9999C10.8911 21.9999 13.3046 19.9551 13.8732 17.2328" stroke="#1C274C" stroke-width="1.5"/>
</svg>
