<svg width="24" height="24" viewBox="0 0 24 24" fill="none" xmlns="http://www.w3.org/2000/svg">
<path d="M11.0005 14.75C10.3101 14.75 9.75047 15.3096 9.75047 16C9.75047 16.6904 10.3101 17.25 11.0005 17.25C11.6908 17.25 12.2505 16.6904 12.2505 16C12.2505 15.3096 11.6908 14.75 11.0005 14.75Z" fill="#1C274C"/>
<path fill-rule="evenodd" clip-rule="evenodd" d="M8.25063 6.01489C8.25054 6.00994 8.25049 6.00498 8.25049 6V5C8.25049 2.92893 9.92942 1.25 12.0005 1.25C14.0716 1.25 15.7505 2.92893 15.7505 5V6C15.7505 6.00498 15.7504 6.00994 15.7503 6.0149C17.0376 6.05353 17.8253 6.1924 18.4266 6.69147C19.2598 7.38295 19.4792 8.55339 19.9181 10.8943L20.6681 14.8943C21.2853 18.186 21.5939 19.8318 20.6942 20.9159C19.7945 22 18.12 22 14.7709 22H9.23003C5.88097 22 4.20644 22 3.30672 20.9159C2.40701 19.8318 2.7156 18.186 3.3328 14.8943L4.0828 10.8943C4.52171 8.55339 4.74117 7.38295 5.57434 6.69147C6.1757 6.19239 6.96337 6.05353 8.25063 6.01489ZM9.75049 5C9.75049 3.75736 10.7578 2.75 12.0005 2.75C13.2431 2.75 14.2505 3.75736 14.2505 5V6C14.2505 5.99999 14.2505 6.00001 14.2505 6C14.1752 5.99998 14.0987 6 14.0209 6H9.98003C9.90226 6 9.82575 6 9.75049 6.00002C9.75049 6.00002 9.75049 6.00003 9.75049 6.00002V5ZM13.7505 10C13.7505 9.58579 13.4147 9.25 13.0005 9.25C12.5863 9.25 12.2505 9.58579 12.2505 10V13.5499C11.8754 13.3581 11.4506 13.25 11.0005 13.25C9.48169 13.25 8.25047 14.4812 8.25047 16C8.25047 17.5188 9.48169 18.75 11.0005 18.75C12.5193 18.75 13.7505 17.5188 13.7505 16V12.4501C14.1255 12.6419 14.5504 12.75 15.0005 12.75C15.4147 12.75 15.7505 12.4142 15.7505 12C15.7505 11.5858 15.4147 11.25 15.0005 11.25C14.3101 11.25 13.7505 10.6904 13.7505 10Z" fill="#1C274C"/>
</svg>
