<svg width="24" height="24" viewBox="0 0 24 24" fill="none" xmlns="http://www.w3.org/2000/svg">
<path d="M14.8689 10.4115C14.9387 10.381 14.971 10.3713 14.979 10.3689C15.0889 10.3594 15.1922 10.4232 15.2329 10.5258C15.2343 10.5341 15.24 10.5673 15.244 10.6433C15.2502 10.761 15.2505 10.9198 15.2505 11.1708C15.2505 11.2779 15.2504 11.339 15.2487 11.3853C15.2477 11.4142 15.2463 11.4264 15.2459 11.4295C15.2343 11.4894 15.2012 11.543 15.1528 11.5802C15.1502 11.5819 15.1399 11.5886 15.1145 11.6025C15.0738 11.6246 15.0192 11.6521 14.9234 11.7L13.6067 12.3583C13.3822 12.4706 13.2401 12.5414 13.132 12.5885C13.0622 12.6189 13.03 12.6287 13.0219 12.631C12.912 12.6405 12.8087 12.5767 12.7681 12.4741C12.7666 12.4659 12.7609 12.4327 12.7569 12.3566C12.7507 12.239 12.7505 12.0801 12.7505 11.8291C12.7505 11.722 12.7506 11.6609 12.7522 11.6147C12.7533 11.5857 12.7546 11.5735 12.755 11.5704C12.7667 11.5105 12.7998 11.4569 12.8482 11.4198C12.8507 11.418 12.861 11.4113 12.8865 11.3975C12.9271 11.3753 12.9817 11.3479 13.0775 11.3L14.3942 10.6416C14.6187 10.5294 14.7609 10.4586 14.8689 10.4115Z" fill="#1C274C"/>
<path d="M10.0005 15.75C10.6908 15.75 11.2505 16.3096 11.2505 17C11.2505 17.6903 10.6908 18.25 10.0005 18.25C9.31012 18.25 8.75047 17.6903 8.75047 17C8.75047 16.3096 9.31012 15.75 10.0005 15.75Z" fill="#1C274C"/>
<path fill-rule="evenodd" clip-rule="evenodd" d="M8.25063 6.01489C8.25054 6.00994 8.25049 6.00498 8.25049 6V5C8.25049 2.92893 9.92942 1.25 12.0005 1.25C14.0716 1.25 15.7505 2.92893 15.7505 5V6C15.7505 6.00498 15.7504 6.00994 15.7503 6.0149C17.0376 6.05353 17.8253 6.1924 18.4266 6.69147C19.2598 7.38295 19.4792 8.55339 19.9181 10.8943L20.6681 14.8943C21.2853 18.186 21.5939 19.8318 20.6942 20.9159C19.7945 22 18.12 22 14.7709 22H9.23003C5.88097 22 4.20644 22 3.30672 20.9159C2.40701 19.8318 2.7156 18.186 3.3328 14.8943L4.0828 10.8943C4.52171 8.55339 4.74117 7.38295 5.57434 6.69147C6.1757 6.19239 6.96337 6.05353 8.25063 6.01489ZM9.75049 5C9.75049 3.75736 10.7578 2.75 12.0005 2.75C13.2431 2.75 14.2505 3.75736 14.2505 5V6C14.2505 5.99999 14.2505 6.00001 14.2505 6C14.1752 5.99998 14.0987 6 14.0209 6H9.98003C9.90226 6 9.82575 6 9.75049 6.00002C9.75049 6.00002 9.75049 6.00003 9.75049 6.00002V5ZM10.0005 19.75C11.5193 19.75 12.7505 18.5188 12.7505 17V14.1142C12.8978 14.1354 13.0498 14.138 13.2032 14.1201C13.4017 14.097 13.5806 14.0293 13.7314 13.9635C13.8801 13.8987 14.058 13.8098 14.2608 13.7083L15.6308 13.0234C15.7757 12.9512 15.9294 12.8746 16.0634 12.7721C16.405 12.511 16.6384 12.1332 16.7193 11.7109C16.751 11.5452 16.7507 11.3735 16.7505 11.2116L16.7505 11.1521C16.7505 10.9253 16.7505 10.7264 16.742 10.5645C16.7333 10.4002 16.7139 10.2098 16.6459 10.022C16.3693 9.25865 15.6041 8.78572 14.7977 8.87979C14.5993 8.90293 14.4204 8.97068 14.2695 9.03644C14.1208 9.10124 13.943 9.19018 13.7402 9.2916L12.3702 9.97654C12.2253 10.0487 12.0716 10.1253 11.9375 10.2278C11.596 10.4889 11.3625 10.8667 11.2817 11.289C11.25 11.4547 11.2502 11.6672 11.2505 11.8291V14.5498C10.8754 14.3581 10.4506 14.25 10.0005 14.25C8.48169 14.25 7.25047 15.4812 7.25047 17C7.25047 18.5188 8.48169 19.75 10.0005 19.75Z" fill="#1C274C"/>
</svg>
