<svg width="24" height="24" viewBox="0 0 24 24" fill="none" xmlns="http://www.w3.org/2000/svg">
<path fill-rule="evenodd" clip-rule="evenodd" d="M8.25063 6.01489C8.25054 6.00994 8.25049 6.00498 8.25049 6V5C8.25049 2.92893 9.92942 1.25 12.0005 1.25C14.0716 1.25 15.7505 2.92893 15.7505 5V6C15.7505 6.00498 15.7504 6.00994 15.7503 6.0149C17.0376 6.05353 17.8253 6.1924 18.4266 6.69147C19.2598 7.38295 19.4792 8.55339 19.9181 10.8943L20.6681 14.8943C21.2853 18.186 21.5939 19.8318 20.6942 20.9159C19.7945 22 18.12 22 14.7709 22H9.23003C5.88097 22 4.20644 22 3.30672 20.9159C2.40701 19.8318 2.7156 18.186 3.3328 14.8943L4.0828 10.8943C4.52171 8.55339 4.74117 7.38295 5.57434 6.69147C6.1757 6.19239 6.96337 6.05353 8.25063 6.01489ZM9.75049 5C9.75049 3.75736 10.7578 2.75 12.0005 2.75C13.2431 2.75 14.2505 3.75736 14.2505 5V6C14.2505 5.99999 14.2505 6.00001 14.2505 6C14.1752 5.99998 14.0987 6 14.0209 6H9.98003C9.90226 6 9.82575 6 9.75049 6.00002C9.75049 6.00002 9.75049 6.00003 9.75049 6.00002V5ZM9.00047 13.1967C9.00047 14.1812 10.1653 15.2213 11.0433 15.8656C11.4631 16.1736 11.673 16.3276 12.0005 16.3276C12.328 16.3276 12.5379 16.1736 12.9576 15.8656C13.8356 15.2214 15.0005 14.1812 15.0005 13.1967C15.0005 11.5235 13.3504 10.8988 12.0005 12.1913C10.6505 10.8988 9.00047 11.5235 9.00047 13.1967Z" fill="#1C274C"/>
</svg>
