<svg width="24" height="24" viewBox="0 0 24 24" fill="none" xmlns="http://www.w3.org/2000/svg">
<path fill-rule="evenodd" clip-rule="evenodd" d="M21.9882 12.9848L17.0152 8.0118C17.8215 7.9828 18.584 8.01031 19.248 8.06108C20.7038 8.17239 21.8276 9.29618 21.9389 10.752C21.9897 11.416 22.0172 12.1785 21.9882 12.9848Z" fill="#1C274C"/>
<path d="M10.752 21.9389C9.29618 21.8276 8.17239 20.7038 8.06108 19.248C8.01033 18.5843 7.98282 17.8221 8.01177 17.0161L12.9839 21.9882C12.1779 22.0172 11.4157 21.9897 10.752 21.9389Z" fill="#1C274C"/>
<path fill-rule="evenodd" clip-rule="evenodd" d="M10.3664 10.3665C11.6267 9.10615 13.3555 8.4788 15.0799 8.19778L21.8022 14.9201C21.5212 16.6445 20.8939 18.3733 19.6336 19.6335C18.373 20.8941 16.644 21.5214 14.9193 21.8024L8.19764 15.0807C8.4786 13.356 9.10595 11.627 10.3664 10.3665ZM14.9697 11.9697C15.2626 11.6768 15.7374 11.6768 16.0303 11.9697L16.5 12.4393L16.9697 11.9697C17.2626 11.6768 17.7374 11.6768 18.0303 11.9697C18.3232 12.2625 18.3232 12.7374 18.0303 13.0303L17.5607 13.5L18.0303 13.9697C18.3232 14.2625 18.3232 14.7374 18.0303 15.0303C17.7374 15.3232 17.2626 15.3232 16.9697 15.0303L16.5 14.5606L16.0607 15L16.5303 15.4697C16.8232 15.7625 16.8232 16.2374 16.5303 16.5303C16.2374 16.8232 15.7626 16.8232 15.4697 16.5303L15 16.0606L14.5607 16.5L15.0303 16.9697C15.3232 17.2625 15.3232 17.7374 15.0303 18.0303C14.7374 18.3232 14.2626 18.3232 13.9697 18.0303L13.5 17.5606L13.0303 18.0303C12.7374 18.3232 12.2626 18.3232 11.9697 18.0303C11.6768 17.7374 11.6768 17.2625 11.9697 16.9697L12.4393 16.5L11.9697 16.0303C11.6768 15.7374 11.6768 15.2625 11.9697 14.9697C12.2626 14.6768 12.7374 14.6768 13.0303 14.9697L13.5 15.4393L13.9393 15L13.4697 14.5303C13.1768 14.2374 13.1768 13.7625 13.4697 13.4697C13.7626 13.1768 14.2374 13.1768 14.5303 13.4697L15 13.9393L15.4393 13.5L14.9697 13.0303C14.6768 12.7374 14.6768 12.2625 14.9697 11.9697Z" fill="#1C274C"/>
<path d="M5.93229 10.4979C5.11398 9.21523 4.23559 8.37343 3.57194 7.8564C3.23989 7.59771 2.96159 7.42034 2.77168 7.31001C2.67676 7.25487 2.60405 7.21656 2.55793 7.19328C2.53488 7.18165 2.51849 7.17379 2.5093 7.16946L2.50134 7.16577L2.189 7.0286C1.7678 8.80145 2.07276 10.7435 3.19 12.3562C4.0863 13.6499 5.35803 14.5189 6.75073 14.9175L6.77028 14.9231C6.77028 14.9231 6.83165 14.2374 6.92519 13.8078C6.9937 13.493 7.06213 13.2778 7.14537 13.0128C6.89402 12.2739 6.51212 11.4067 5.93229 10.4979Z" fill="#1C274C"/>
<path d="M9.62753 3.31214C9.84663 4.18569 10.2707 5.38621 11.0896 6.66976C11.3126 7.01917 11.5399 7.33579 11.7661 7.62201C12.4339 7.31581 12.9859 7.11134 13.8075 6.92489C14.1743 6.84163 14.7559 6.75626 14.7559 6.75626L14.7514 6.74072C14.5564 6.06879 14.2514 5.4169 13.8319 4.81146C12.7528 3.25384 11.1295 2.31193 9.40602 2.06527C9.41092 2.12083 9.41839 2.19373 9.42965 2.28236C9.46006 2.52193 9.51803 2.87558 9.62753 3.31214Z" fill="#1C274C"/>
<path d="M7.90526 2.12588C7.90213 2.08438 7.90014 2.05137 7.89889 2.02734C6.81004 2.12811 5.73213 2.50881 4.77316 3.18868C3.86679 3.83126 3.17254 4.66609 2.70636 5.60088L3.09988 5.7737L3.10125 5.7743L3.10455 5.77577L3.11335 5.77974L3.13958 5.79189C3.16084 5.80189 3.18953 5.81574 3.2251 5.83369C3.29622 5.86958 3.3949 5.92188 3.51651 5.99253C3.75968 6.13379 4.0951 6.34873 4.48562 6.65298C5.2671 7.26181 6.26925 8.2283 7.19251 9.67543C7.49865 10.1553 7.75629 10.6255 7.97311 11.0764C8.32844 10.445 8.7667 9.84537 9.30628 9.30579C9.66068 8.95138 10.041 8.64069 10.4392 8.36849C10.2343 8.09819 10.03 7.80651 9.82944 7.4922C8.90676 6.046 8.42464 4.68681 8.17289 3.68308C8.04696 3.18101 7.97835 2.76663 7.94105 2.47284C7.92239 2.32588 7.91153 2.20886 7.90526 2.12588Z" fill="#1C274C"/>
</svg>
