<svg width="24" height="24" viewBox="0 0 24 24" fill="none" xmlns="http://www.w3.org/2000/svg">
<path d="M15.6646 2.8291C16.0351 2.64386 16.4856 2.79403 16.6708 3.16451L17.1708 4.16451C17.3561 4.53499 17.2059 4.9855 16.8354 5.17074C16.4649 5.35598 16.0144 5.20581 15.8292 4.83533L15.3292 3.83533C15.1439 3.46485 15.2941 3.01434 15.6646 2.8291Z" fill="#1C274C"/>
<path d="M18.8292 7.16451C19.0144 6.79403 19.4649 6.64386 19.8354 6.8291L20.8354 7.3291C21.2059 7.51434 21.3561 7.96485 21.1708 8.33533C20.9856 8.70581 20.5351 8.85598 20.1646 8.67074L19.1646 8.17074C18.7941 7.9855 18.6439 7.53499 18.8292 7.16451Z" fill="#1C274C"/>
<path d="M20.5303 4.53025C20.8232 4.23736 20.8232 3.76248 20.5303 3.46959C20.2374 3.1767 19.7626 3.1767 19.4697 3.46959L18.4697 4.46959C18.1768 4.76248 18.1768 5.23736 18.4697 5.53025C18.7626 5.82314 19.2374 5.82314 19.5303 5.53025L20.5303 4.53025Z" fill="#1C274C"/>
<path d="M17 14.4999C17 18.6421 13.6421 21.9999 9.5 21.9999C5.35786 21.9999 2 18.6421 2 14.4999C2 10.3578 5.35786 6.99992 9.5 6.99992C13.6421 6.99992 17 10.3578 17 14.4999Z" fill="#1C274C"/>
<path d="M17.5302 7.53025L16.3722 8.68829C16.0486 8.30606 15.6938 7.95119 15.3115 7.62763L16.4696 6.46959C16.7625 6.1767 17.2373 6.1767 17.5302 6.46959C17.8231 6.76248 17.8231 7.23736 17.5302 7.53025Z" fill="#1C274C"/>
</svg>
