<svg width="24" height="24" viewBox="0 0 24 24" fill="none" xmlns="http://www.w3.org/2000/svg">
<path fill-rule="evenodd" clip-rule="evenodd" d="M10.422 3.17858L7.38587 1.35687C7.03069 1.14376 6.56999 1.25893 6.35688 1.61412C6.14377 1.9693 6.25894 2.43 6.61413 2.64311L8.63912 3.85811C7.33296 4.57437 6.28013 5.69516 5.64925 7.05187L3.77867 6.30363C3.39408 6.1498 2.9576 6.33686 2.80376 6.72145C2.64993 7.10604 2.83699 7.54251 3.22158 7.69635L5.16673 8.47441C5.05757 8.96551 5 9.47603 5 10V12.25H2C1.58579 12.25 1.25 12.5858 1.25 13C1.25 13.4142 1.58579 13.75 2 13.75H5V15C5 15.8508 5.15179 16.6662 5.42978 17.4205L3.22146 18.3038C2.83687 18.4577 2.64981 18.8941 2.80364 19.2787C2.95748 19.6633 3.39396 19.8504 3.77854 19.6965L6.09969 18.7681C7.34348 20.7117 9.52129 22 12 22C14.4787 22 16.6565 20.7117 17.9003 18.7681L20.2215 19.6965C20.606 19.8504 21.0425 19.6633 21.1964 19.2787C21.3502 18.8941 21.1631 18.4577 20.7785 18.3038L18.5702 17.4205C18.8482 16.6662 19 15.8508 19 15V13.75H22C22.4142 13.75 22.75 13.4142 22.75 13C22.75 12.5858 22.4142 12.25 22 12.25H19V10C19 9.47604 18.9424 8.96553 18.8333 8.47444L20.7784 7.69634C21.163 7.5425 21.3501 7.10602 21.1962 6.72144C21.0424 6.33685 20.6059 6.1498 20.2213 6.30364L18.3508 7.0519C17.7199 5.69518 16.6671 4.57437 15.3609 3.85811L17.3859 2.64311C17.7411 2.43 17.8562 1.9693 17.6431 1.61412C17.43 1.25893 16.9693 1.14376 16.6141 1.35687L13.578 3.17858C13.0708 3.06174 12.5426 3 12 3C11.4574 3 10.9292 3.06174 10.422 3.17858ZM10.5 9.75C10.0858 9.75 9.75 10.0858 9.75 10.5C9.75 10.9142 10.0858 11.25 10.5 11.25H13.5C13.9142 11.25 14.25 10.9142 14.25 10.5C14.25 10.0858 13.9142 9.75 13.5 9.75H10.5ZM9.75 15.5C9.75 15.0858 10.0858 14.75 10.5 14.75H13.5C13.9142 14.75 14.25 15.0858 14.25 15.5C14.25 15.9142 13.9142 16.25 13.5 16.25H10.5C10.0858 16.25 9.75 15.9142 9.75 15.5Z" fill="#1C274C"/>
</svg>
