<svg width="24" height="24" viewBox="0 0 24 24" fill="none" xmlns="http://www.w3.org/2000/svg">
<path fill-rule="evenodd" clip-rule="evenodd" d="M3.03998 2.29242C2.64921 2.15503 2.22106 2.36044 2.08368 2.7512C1.94629 3.14197 2.1517 3.57012 2.54246 3.7075L2.80367 3.79934C3.47128 4.03406 3.91003 4.18961 4.23288 4.34802C4.5361 4.4968 4.66977 4.61723 4.75783 4.74609C4.84809 4.87818 4.91779 5.0596 4.95712 5.42295C4.99828 5.80316 4.9993 6.29837 4.9993 7.03832L4.9993 9.64C4.9993 12.5816 5.06254 13.5523 5.92894 14.4662C6.79534 15.38 8.18979 15.38 10.9787 15.38H16.2816C17.8426 15.38 18.6231 15.38 19.1748 14.9304C19.7266 14.4808 19.8841 13.7164 20.1992 12.1875L20.699 9.76275C21.0461 8.02369 21.2197 7.15417 20.7757 6.57708C20.3318 6 18.815 6 17.1301 6H6.49184C6.48515 5.72967 6.47247 5.48373 6.44841 5.26153C6.39468 4.76515 6.27827 4.31243 5.99629 3.89979C5.71211 3.48393 5.33426 3.21759 4.89363 3.00139C4.48154 2.79919 3.95791 2.61511 3.34138 2.39838L3.03998 2.29242ZM12.9995 8.25C13.4137 8.25 13.7495 8.58579 13.7495 9V10.25H14.9995C15.4137 10.25 15.7495 10.5858 15.7495 11C15.7495 11.4142 15.4137 11.75 14.9995 11.75H13.7495V13C13.7495 13.4142 13.4137 13.75 12.9995 13.75C12.5853 13.75 12.2495 13.4142 12.2495 13V11.75H10.9995C10.5853 11.75 10.2495 11.4142 10.2495 11C10.2495 10.5858 10.5853 10.25 10.9995 10.25H12.2495V9C12.2495 8.58579 12.5853 8.25 12.9995 8.25Z" fill="#1C274C"/>
<path d="M7.49951 18C8.32794 18 8.99951 18.6716 8.99951 19.5C8.99951 20.3284 8.32794 21 7.49951 21C6.67108 21 5.99951 20.3284 5.99951 19.5C5.99951 18.6716 6.67108 18 7.49951 18Z" fill="#1C274C"/>
<path d="M16.4995 18.0001C17.3279 18.0001 17.9995 18.6716 17.9995 19.5001C17.9995 20.3285 17.3279 21.0001 16.4995 21.0001C15.6711 21.0001 14.9995 20.3285 14.9995 19.5001C14.9995 18.6716 15.6711 18.0001 16.4995 18.0001Z" fill="#1C274C"/>
</svg>
