<svg width="24" height="24" viewBox="0 0 24 24" fill="none" xmlns="http://www.w3.org/2000/svg">
<path d="M8.4175 3.25089C8.69818 2.65917 9.30106 2.25 9.99951 2.25H13.9995C14.698 2.25 15.3008 2.65917 15.5815 3.25089C16.265 3.25586 16.7978 3.28724 17.2733 3.47309C17.8415 3.69516 18.3357 4.07266 18.6994 4.56242C19.0663 5.0565 19.2386 5.68979 19.4757 6.56144L19.5127 6.69747L19.5145 6.70412L20.3881 10.0282L20.4 10.0107C20.4423 10.0563 20.4828 10.104 20.5218 10.1539C21.4226 11.3076 20.9936 13.0235 20.1357 16.4553C20.0575 16.7679 19.985 17.0582 19.9156 17.3279L17.4381 14.3549L19.2687 11.67L18.7636 9.74813L16.4396 13.1567L12.9758 9.00012H14.3148C16.2085 9.00012 17.5954 9.00012 18.6135 9.17713L18.0646 7.08876C17.7744 6.02451 17.6711 5.69364 17.4952 5.45674C17.2993 5.19303 17.0332 4.98976 16.7273 4.87018C16.5075 4.78427 16.2419 4.759 15.58 4.75231C15.2987 5.3423 14.6967 5.75 13.9995 5.75H9.99951C9.30232 5.75 8.70035 5.3423 8.41902 4.75231C7.75714 4.759 7.49156 4.78427 7.27175 4.87018C6.9658 4.98976 6.69969 5.19303 6.50384 5.45674C6.32791 5.69363 6.22461 6.02451 5.9344 7.08874L5.38552 9.17711C6.40366 9.00012 7.79046 9.00012 9.68413 9.00012H11.0232L7.55944 13.1567L5.23545 9.74813L4.73033 11.67L6.56093 14.3549L4.08336 17.328C4.014 17.0582 3.94143 16.768 3.86327 16.4553C3.00532 13.0235 2.57635 11.3076 3.47718 10.1539C3.51612 10.104 3.55668 10.0563 3.59894 10.0106L3.6109 10.0282L4.48454 6.70412L4.48632 6.69746L4.52335 6.56145C4.76043 5.6898 4.93267 5.0565 5.2996 4.56242C5.66332 4.07266 6.15753 3.69516 6.72572 3.4731C7.20126 3.28724 7.73399 3.25586 8.4175 3.25089Z" fill="#1C274C"/>
<path d="M4.60162 19.0491C4.83437 19.6426 5.10157 20.0571 5.49556 20.3647C6.30935 21.0001 7.43427 21.0001 9.68413 21.0001H11.0918L7.43958 15.6436L4.60162 19.0491Z" fill="#1C274C"/>
<path d="M12.9073 21.0001H14.3148C16.5647 21.0001 17.6896 21.0001 18.5034 20.3647C18.8974 20.0571 19.1646 19.6426 19.3973 19.0491L16.5594 15.6436L12.9073 21.0001Z" fill="#1C274C"/>
<path d="M11.9995 19.6688L8.4381 14.4454L11.9995 10.1717L15.5609 14.4454L11.9995 19.6688Z" fill="#1C274C"/>
</svg>
