<svg width="24" height="24" viewBox="0 0 24 24" fill="none" xmlns="http://www.w3.org/2000/svg">
<path d="M14.6646 2.32922C15.0351 2.14398 15.4856 2.29415 15.6708 2.66463L17.872 7.06695C19.2251 7.1709 20.0742 7.43631 20.6221 8.11401C21.0575 8.65259 21.1984 9.32263 21.1466 10.25H2.85346C2.80168 9.32263 2.94261 8.65259 3.378 8.11401C3.92585 7.43632 4.77494 7.17091 6.12802 7.06696L8.32918 2.66463C8.51442 2.29415 8.96493 2.14398 9.33541 2.32922C9.70589 2.51446 9.85606 2.96497 9.67082 3.33545L7.83589 7.00531C8.31911 7.00004 8.84638 7.00004 9.42196 7.00004H14.5781C15.1537 7.00004 15.6809 7.00004 16.1641 7.00531L14.3292 3.33545C14.1439 2.96497 14.2941 2.51446 14.6646 2.32922Z" fill="#1C274C"/>
<path fill-rule="evenodd" clip-rule="evenodd" d="M3.55514 14.2572C3.34814 13.2912 3.17096 12.4644 3.04514 11.75H20.9549C20.8291 12.4644 20.6519 13.2912 20.4449 14.2571L20.0164 16.2572C19.5294 18.5298 19.2859 19.666 18.4608 20.333C17.6357 21 16.4737 21 14.1495 21H9.85053C7.52639 21 6.36432 21 5.53925 20.333C4.71418 19.666 4.47069 18.5298 3.98372 16.2572L3.55514 14.2572ZM10 13.25C9.58579 13.25 9.25 13.5858 9.25 14C9.25 14.4143 9.58579 14.75 10 14.75H14C14.4142 14.75 14.75 14.4143 14.75 14C14.75 13.5858 14.4142 13.25 14 13.25H10Z" fill="#1C274C"/>
</svg>
