<svg width="24" height="24" viewBox="0 0 24 24" fill="none" xmlns="http://www.w3.org/2000/svg">
<path d="M14.8407 8.09511L18.2482 7.18208C18.4726 7.12195 18.5848 7.09188 18.6732 7.04832C19.0359 6.86943 19.2552 6.48964 19.2287 6.08604C19.2223 5.98776 19.1922 5.87556 19.1321 5.65114C18.9517 4.97791 18.8615 4.64129 18.7308 4.37629C18.1941 3.28804 17.0548 2.63022 15.844 2.70958C15.7208 2.71766 15.5903 2.73811 15.4309 2.77235C15.45 2.85465 15.4553 2.94159 15.4448 3.0303L14.8407 8.09511Z" fill="#1C274C"/>
<path d="M9.14976 4.44361L13.9179 3.16598L13.3176 8.19993C13.3053 8.30276 13.3145 8.40322 13.3415 8.49682L8.56217 9.77744L9.16624 4.71262C9.1773 4.61993 9.17095 4.52917 9.14976 4.44361Z" fill="#1C274C"/>
<path fill-rule="evenodd" clip-rule="evenodd" d="M15.9995 11H3.99951V16C3.99951 18.8284 3.99951 20.2426 4.87819 21.1213C5.75687 22 7.17108 22 9.99951 22H13.9995C16.8279 22 18.2422 22 19.1208 21.1213C19.9995 20.2426 19.9995 18.8284 19.9995 16V15C19.9995 13.1144 19.9995 12.1716 19.4137 11.5858C18.8279 11 17.8851 11 15.9995 11ZM12.8079 15.2235C13.6023 15.793 13.9995 16.0778 13.9995 16.5C13.9995 16.9222 13.6023 17.207 12.8079 17.7765C12.0026 18.3538 11.6 18.6425 11.2998 18.4305C10.9995 18.2186 10.9995 17.6457 10.9995 16.5C10.9995 15.3543 10.9995 14.7814 11.2998 14.5695C11.6 14.3575 12.0026 14.6462 12.8079 15.2235Z" fill="#1C274C"/>
<path d="M7.03904 9.88225C7.02678 9.98509 7.03594 10.0855 7.063 10.1791L4.00079 10.9997C3.517 9.19412 3.2751 8.29135 3.48316 7.51489C3.61945 7.00623 3.88724 6.5424 4.25961 6.17003C4.82802 5.60162 5.73079 5.35973 7.53633 4.87593L7.63943 4.84831L7.03904 9.88225Z" fill="#1C274C"/>
</svg>
