<svg width="24" height="24" viewBox="0 0 24 24" fill="none" xmlns="http://www.w3.org/2000/svg">
<path d="M9.18576 2H14.8153C16.6531 2 17.572 2 18.2948 2.44432C18.4195 2.52098 18.5384 2.60666 18.6506 2.70069C19.3008 3.24562 19.5917 4.11727 20.1734 5.8605L20.2092 5.96791C20.528 6.92318 20.6874 7.40081 20.519 7.76195C20.4658 7.87592 20.3917 7.97884 20.3004 8.06533C20.0111 8.33937 19.5076 8.33937 18.5006 8.33937L18.0744 11.25H5.92662L5.50049 8.33937C4.49348 8.33937 3.98997 8.33936 3.70071 8.06533C3.60942 7.97884 3.53526 7.87592 3.48212 7.76195C3.31374 7.40081 3.47312 6.92318 3.79188 5.96791L3.8277 5.86056C4.40942 4.11727 4.70028 3.24563 5.35053 2.70069C5.46272 2.60666 5.58164 2.52098 5.70634 2.44432C6.42908 2 7.34797 2 9.18576 2Z" fill="#1C274C"/>
<path d="M17.3423 16.25H6.65865L6.14623 12.75H17.8547L17.3423 16.25Z" fill="#1C274C"/>
<path d="M13.0435 22H10.9575C9.30884 22 8.4845 22 7.92122 21.5132C7.35794 21.0264 7.23853 20.2107 6.9997 18.5794L6.87826 17.75H17.1227L17.0013 18.5794C16.7624 20.2107 16.643 21.0264 16.0798 21.5132C15.5165 22 14.6921 22 13.0435 22Z" fill="#1C274C"/>
</svg>
