<svg width="24" height="24" viewBox="0 0 24 24" fill="none" xmlns="http://www.w3.org/2000/svg">
<path d="M8.38119 20.5682L3.43205 15.6191C2.52786 14.7149 2.07577 14.2628 2.01128 13.7107C1.99689 13.5874 1.99689 13.4629 2.01128 13.3397C2.07577 12.7876 2.52786 12.3355 3.43205 11.4313C4.33624 10.5271 4.78834 10.075 5.34043 10.0106C5.46367 9.99616 5.58817 9.99616 5.71141 10.0106C6.2635 10.075 6.71559 10.5271 7.61979 11.4313L8.35302 12.1646L12.1653 8.35229L11.4321 7.61906C10.5279 6.71486 10.0758 6.26277 10.0113 5.71068C9.99689 5.58744 9.99689 5.46294 10.0113 5.3397C10.0758 4.78761 10.5279 4.33551 11.4321 3.43132C12.3362 2.52713 12.7883 2.07503 13.3404 2.01055C13.4637 1.99616 13.5882 1.99616 13.7114 2.01055C14.2635 2.07503 14.7156 2.52713 15.6198 3.43132L20.5689 8.38046C21.4731 9.28465 21.9252 9.73675 21.9897 10.2888C22.0041 10.4121 22.0041 10.5366 21.9897 10.6598C21.9252 11.2119 21.4731 11.664 20.5689 12.5682C19.6647 13.4724 19.2126 13.9245 18.6605 13.989C18.5373 14.0034 18.4128 14.0034 18.2896 13.989C17.7375 13.9245 17.2854 13.4724 16.3812 12.5682L15.2693 11.4563L11.457 15.2686L12.5689 16.3805C13.4731 17.2846 13.9252 17.7367 13.9897 18.2888C14.0041 18.4121 14.0041 18.5366 13.9897 18.6598C13.9252 19.2119 13.4731 19.664 12.5689 20.5682C11.6647 21.4724 11.2126 21.9245 10.6605 21.989C10.5373 22.0034 10.4128 22.0034 10.2896 21.989C9.73748 21.9245 9.28538 21.4724 8.38119 20.5682Z" fill="#1C274C"/>
<path fill-rule="evenodd" clip-rule="evenodd" d="M17.489 1.96772C17.7819 1.67482 18.2567 1.67482 18.5496 1.96772L21.6536 5.07173C21.9465 5.36462 21.9465 5.83949 21.6536 6.13239C21.3607 6.42528 20.8859 6.42528 20.593 6.13239L17.489 3.02838C17.1961 2.73548 17.1961 2.26061 17.489 1.96772ZM1.96772 17.4876C2.26061 17.1947 2.73548 17.1947 3.02838 17.4876L6.13239 20.5916C6.42528 20.8845 6.42528 21.3594 6.13239 21.6523C5.83949 21.9452 5.36462 21.9452 5.07173 21.6523L1.96772 18.5483C1.67482 18.2554 1.67482 17.7805 1.96772 17.4876Z" fill="#1C274C"/>
</svg>
