<svg width="24" height="24" viewBox="0 0 24 24" fill="none" xmlns="http://www.w3.org/2000/svg">
<path d="M8 13.4785L8 12.862C8 12.862 8 11.3965 12 11.3965C16 11.3965 16 12.862 16 12.862V13.2502C16 14.2066 16.7227 15.0195 17.7004 15.1627L19.7004 15.4558C20.9105 15.6332 22 14.7269 22 13.5432V11.4185C22 10.8316 21.8162 10.2544 21.3703 9.85626C20.2296 8.83756 17.4208 7.00024 12 7.00024C6.25141 7.00025 3.44027 9.58293 2.44083 10.7892C2.1247 11.1707 2 11.6528 2 12.1417L2 14.0646C2 15.3626 3.29561 16.2922 4.57997 15.9158L6.57997 15.3297C7.42329 15.0826 8 14.3307 8 13.4785Z" fill="#1C274C"/>
</svg>
