<svg width="24" height="24" viewBox="0 0 24 24" fill="none" xmlns="http://www.w3.org/2000/svg">
<path fill-rule="evenodd" clip-rule="evenodd" d="M8.66748 9.41667C7.2407 9.41667 6.08415 10.5731 6.08415 11.9998C6.08415 13.4266 7.24074 14.5832 8.66748 14.5832H11.2508V12.0519C11.2506 12.0346 11.2505 12.0172 11.2505 11.9998C11.2505 11.9825 11.2506 11.9651 11.2508 11.9478V9.41667H8.66748ZM11.2508 7.91667H8.66748C7.24074 7.91667 6.08415 6.76007 6.08415 5.33333C6.08415 3.9066 7.24075 2.75 8.66748 2.75H11.2508V7.91667ZM12.7508 2.75V7.91663L15.3335 7.9165C16.7602 7.9165 17.9172 6.76002 17.9172 5.33333C17.9172 3.9066 16.7606 2.75 15.3338 2.75H12.7508ZM15.3336 9.4165C13.9208 9.41664 12.7729 10.5509 12.7508 11.9584V12.0412C12.7729 13.4489 13.9209 14.5832 15.3338 14.5832C16.7606 14.5832 17.9172 13.4266 17.9172 11.9998C17.9172 10.5731 16.7603 9.41652 15.3336 9.4165ZM8.66748 16.0832C7.24079 16.0832 6.08398 17.24 6.08398 18.6668C6.08398 20.0936 7.24058 21.2502 8.66732 21.2502C10.0941 21.2502 11.2507 20.0936 11.2507 18.6668L11.2508 16.0832H8.66748Z" fill="#1C274C"/>
</svg>
