<svg width="24" height="24" viewBox="0 0 24 24" fill="none" xmlns="http://www.w3.org/2000/svg">
<path d="M6.01341 8.6655C5.94287 8.17919 5.79206 7.60031 5.61164 6.90773L5.07088 4.83172L5.06135 4.79513C5.77158 4.11058 6.58279 3.5303 7.47039 3.07888L9.10263 4.31685C9.66218 4.74127 10.1326 5.0981 10.5491 5.34436C10.7672 5.4733 10.9868 5.58222 11.2159 5.66013V8.68205C11.0928 8.7394 10.9748 8.81148 10.8645 8.89814L8.9322 10.4166C8.86011 10.4733 8.79324 10.5346 8.73176 10.6L6.05361 9.44032C6.0698 9.18713 6.05184 8.93042 6.01341 8.6655Z" fill="#1C274C"/>
<path d="M4.04461 10.2027C3.74962 10.4568 3.33429 10.7403 2.7098 11.1644L2.00586 11.6426C2.07735 9.60523 2.75759 7.72294 3.87005 6.17241L4.1497 7.24601C4.34317 7.98876 4.47179 8.48678 4.52894 8.88083C4.58346 9.25662 4.56014 9.46319 4.4988 9.62945C4.43796 9.79436 4.32425 9.96174 4.04461 10.2027Z" fill="#1C274C"/>
<path d="M5.30063 16.8851C5.9952 16.8851 6.58075 16.8851 7.05911 16.9413C7.31139 16.9709 7.55234 17.0178 7.78214 17.0953L9.19783 15.2429C9.14625 15.1429 9.10335 15.0373 9.07018 14.9268L8.31122 12.4004C8.27362 12.2752 8.2498 12.1482 8.23913 12.0213L5.51257 10.8406C5.37027 11.0193 5.20553 11.1824 5.0237 11.3391C4.65567 11.6562 4.16791 11.9874 3.5874 12.3817L2.09596 13.3946C2.27057 14.6474 2.67702 15.8259 3.27051 16.8851L5.30063 16.8851Z" fill="#1C274C"/>
<path d="M11.7913 10.0775C11.8454 10.0351 11.9064 10.0158 11.9659 10.0158C12.0254 10.0158 12.0864 10.0351 12.1405 10.0775L14.0728 11.596C14.1243 11.6365 14.1635 11.6939 14.184 11.762C14.2038 11.828 14.2047 11.8999 14.184 11.9688L13.425 14.4953C13.4042 14.5648 13.3649 14.62 13.3173 14.6585C13.2647 14.701 13.2028 14.723 13.1392 14.723H10.7926C10.729 14.723 10.6671 14.701 10.6145 14.6585C10.5669 14.62 10.5276 14.5648 10.5068 14.4953L9.7478 11.9688C9.7271 11.8999 9.72798 11.828 9.7478 11.762C9.76827 11.6939 9.8075 11.6365 9.85903 11.596L11.7913 10.0775Z" fill="#1C274C"/>
<path d="M13.3753 5.37566C13.797 5.13868 14.2749 4.79236 14.8432 4.38051L16.5839 3.11906C17.4486 3.56852 18.2394 4.14086 18.9332 4.81298L18.3876 6.90784C18.2071 7.60042 18.0563 8.17929 17.9858 8.6656C17.9476 8.9291 17.9296 9.18448 17.9453 9.43635L15.203 10.6032C15.1407 10.5366 15.0729 10.4742 14.9996 10.4166L13.0673 8.89814C12.957 8.81148 12.839 8.7394 12.7159 8.68205V5.67216C12.9416 5.59958 13.159 5.49725 13.3753 5.37566Z" fill="#1C274C"/>
<path d="M11.3125 4.05316C10.9793 3.85615 10.5776 3.55293 9.97514 3.09597L9.0926 2.42661C10.0091 2.14916 10.9812 2 11.9881 2C13.0206 2 14.0166 2.15686 14.9535 2.44808L13.9975 3.14087C13.3855 3.58435 12.9776 3.87852 12.6404 4.06803C12.32 4.24814 12.1334 4.29193 11.9742 4.29016C11.815 4.2884 11.6293 4.24043 11.3125 4.05316Z" fill="#1C274C"/>
<path d="M18.9755 11.3392C19.3435 11.6563 19.8313 11.9875 20.4118 12.3818L21.8821 13.3804C21.7086 14.6385 21.3013 15.8219 20.7056 16.8851L18.8474 16.8851C18.1528 16.8851 17.5673 16.8851 17.0889 16.9413C16.8261 16.9721 16.5756 17.0217 16.3372 17.1052L14.7476 15.2159C14.7931 15.124 14.8314 15.0274 14.8616 14.9268L15.6206 12.4004C15.6578 12.2765 15.6815 12.1507 15.6923 12.0251L18.4839 10.8373C18.6268 11.0174 18.7925 11.1815 18.9755 11.3392Z" fill="#1C274C"/>
<path d="M14.808 18.6265C14.6062 19.0727 14.4219 19.6414 14.2016 20.3213L13.7054 21.8528C13.1474 21.9496 12.5736 22 11.9881 22C11.4658 22 10.9529 21.9599 10.4523 21.8825L9.94642 20.3213C9.72613 19.6414 9.54185 19.0727 9.34008 18.6265C9.23705 18.3987 9.12245 18.1861 8.9845 17.9923L10.3748 16.1731C10.5094 16.2058 10.6493 16.223 10.7926 16.223H13.1392C13.2929 16.223 13.4429 16.2031 13.5864 16.1657L15.1452 18.0183C15.0154 18.205 14.9064 18.4088 14.808 18.6265Z" fill="#1C274C"/>
<path d="M8.53227 20.8232C8.29582 20.0935 8.13649 19.6053 7.97334 19.2446C7.81757 18.9001 7.68925 18.7453 7.55496 18.6457C7.42243 18.5475 7.24426 18.4733 6.88415 18.431C6.50355 18.3863 6.00663 18.3851 5.25771 18.3851H4.30049C5.45845 19.781 6.98847 20.8563 8.73823 21.4588L8.53227 20.8232Z" fill="#1C274C"/>
<path d="M17.2639 18.431C17.6445 18.3863 18.1414 18.3851 18.8903 18.3851H19.6756C18.5607 19.729 17.101 20.7759 15.4322 21.3896L15.6158 20.8232C15.8522 20.0935 16.0115 19.6053 16.1747 19.2446C16.3305 18.9001 16.4588 18.7453 16.5931 18.6457C16.7256 18.5475 16.9038 18.4733 17.2639 18.431Z" fill="#1C274C"/>
<path d="M19.4703 8.88093C19.5274 8.48688 19.656 7.98886 19.8495 7.24611L20.123 6.1961C21.2225 7.73804 21.8956 9.60576 21.9697 11.6266L21.2894 11.1645C20.6649 10.7404 20.2496 10.4569 19.9546 10.2028C19.6749 9.96184 19.5612 9.79446 19.5004 9.62955C19.4391 9.46329 19.4157 9.25672 19.4703 8.88093Z" fill="#1C274C"/>
</svg>
