<svg width="24" height="24" viewBox="0 0 24 24" fill="none" xmlns="http://www.w3.org/2000/svg">
<path d="M19.9898 3.99114C18.4371 2.46995 16.3085 2.41192 15.2251 3.47329L11.5251 7.09826C11.2292 7.38814 10.7543 7.38327 10.4645 7.08739C10.1746 6.79151 10.1795 6.31666 10.4753 6.02678L14.1754 2.40181C16.0113 0.603142 19.0891 1.00882 21.0395 2.91966C22.9927 4.83318 23.4179 7.87521 21.5681 9.68751L18.6609 12.5357C18.365 12.8256 17.8902 12.8207 17.6003 12.5249C17.3104 12.229 17.3153 11.7541 17.6112 11.4643L20.5184 8.61604C21.5878 7.56831 21.5398 5.50965 19.9898 3.99114Z" fill="#1C274C"/>
<path d="M6.62424 3.58398C6.39448 3.23933 5.92882 3.1462 5.58418 3.37596C5.23953 3.60573 5.1464 4.07138 5.37617 4.41603L7.37617 7.41603C7.60593 7.76067 8.07158 7.8538 8.41623 7.62404C8.76088 7.39427 8.85401 6.92862 8.62424 6.58398L6.62424 3.58398Z" fill="#1C274C"/>
<path d="M2.23737 7.28849C1.84442 7.1575 1.41968 7.36987 1.28869 7.76283C1.15771 8.15579 1.37008 8.58053 1.76303 8.71151L7.76303 10.7115C8.15599 10.8425 8.58073 10.6301 8.71172 10.2372C8.8427 9.84421 8.63033 9.41947 8.23737 9.28849L2.23737 7.28849Z" fill="#1C274C"/>
<path d="M6.72775 12.506C7.00721 12.2002 6.98589 11.7259 6.68015 11.4464C6.37441 11.1669 5.90001 11.1883 5.62056 11.494L4.3597 12.8735C2.63286 14.7628 3.01004 17.9268 4.86404 19.9552C6.72921 21.9958 9.73449 22.4594 11.5191 20.507L15.5538 16.0926C15.8333 15.7869 15.8119 15.3125 15.5062 15.033C15.2004 14.7536 14.7261 14.7749 14.4466 15.0806L10.4119 19.495C9.41099 20.59 7.44859 20.5596 5.97124 18.9432C4.48273 17.3147 4.4083 15.0437 5.4669 13.8855L6.72775 12.506Z" fill="#1C274C"/>
</svg>
