<svg width="24" height="24" viewBox="0 0 24 24" fill="none" xmlns="http://www.w3.org/2000/svg">
<path d="M15.7285 3.88393C17.1629 2.44404 19.2609 2.4138 20.4224 3.57977C21.586 4.74794 21.5547 6.85918 20.1194 8.30005L17.6956 10.7333C17.4033 11.0268 17.4042 11.5016 17.6976 11.794C17.9911 12.0863 18.466 12.0854 18.7583 11.7919L21.1821 9.35865C23.0934 7.43994 23.3334 4.37661 21.4851 2.52117C19.6346 0.663513 16.5781 0.905626 14.6658 2.82532L9.81817 7.69178C7.90688 9.6105 7.66692 12.6739 9.51519 14.5293C9.80751 14.8228 10.2824 14.8237 10.5758 14.5314C10.8693 14.239 10.8702 13.7642 10.5779 13.4707C9.41425 12.3025 9.44559 10.1913 10.8809 8.75038L15.7285 3.88393Z" fill="#1C274C"/>
<path d="M14.4851 9.4707C14.1928 9.17724 13.7179 9.17632 13.4244 9.46865C13.131 9.76097 13.1301 10.2358 13.4224 10.5293C14.586 11.6975 14.5547 13.8087 13.1194 15.2496L8.27178 20.1161C6.83745 21.556 4.73937 21.5862 3.57791 20.4202C2.41424 19.2521 2.44559 17.1408 3.88089 15.6999L6.30473 13.2666C6.59706 12.9732 6.59614 12.4983 6.30268 12.206C6.00922 11.9137 5.53434 11.9146 5.24202 12.208L2.81818 14.6413C0.906876 16.56 0.666916 19.6234 2.51519 21.4788C4.36567 23.3365 7.42221 23.0944 9.33449 21.1747L14.1821 16.3082C16.0934 14.3895 16.3334 11.3262 14.4851 9.4707Z" fill="#1C274C"/>
</svg>
