<svg width="24" height="24" viewBox="0 0 24 24" fill="none" xmlns="http://www.w3.org/2000/svg">
<path fill-rule="evenodd" clip-rule="evenodd" d="M13.4355 5.78311C12.5403 5.29495 11.4584 5.29495 10.5631 5.78311L5.76889 8.39728C4.8049 8.92292 4.20508 9.93319 4.20508 11.0312V15.9688C4.20508 17.0668 4.8049 18.0771 5.76888 18.6027L10.5631 21.2169C11.4584 21.705 12.5403 21.705 13.4355 21.2169L18.2297 18.6027C19.1937 18.0771 19.7935 17.0668 19.7935 15.9688V11.0312C19.7935 9.93319 19.1937 8.92292 18.2297 8.39728L13.4355 5.78311ZM11.9995 10.5C11.7155 10.5 11.5255 10.8408 11.1455 11.5225L11.0472 11.6989C10.9392 11.8926 10.8852 11.9894 10.801 12.0533C10.7168 12.1172 10.612 12.141 10.4023 12.1884L10.2114 12.2316C9.47347 12.3986 9.10452 12.482 9.01674 12.7643C8.92896 13.0466 9.18049 13.3407 9.68354 13.929L9.81369 14.0812C9.95664 14.2483 10.0281 14.3319 10.0603 14.4353C10.0924 14.5387 10.0816 14.6502 10.06 14.8733L10.0403 15.0763C9.96428 15.8612 9.92625 16.2536 10.1561 16.4281C10.3859 16.6025 10.7313 16.4435 11.4222 16.1254L11.601 16.0431C11.7973 15.9527 11.8955 15.9075 11.9995 15.9075C12.1036 15.9075 12.2017 15.9527 12.3981 16.0431L12.5768 16.1254C13.2677 16.4435 13.6132 16.6025 13.843 16.4281C14.0728 16.2536 14.0347 15.8612 13.9587 15.0763L13.939 14.8733C13.9174 14.6502 13.9066 14.5387 13.9388 14.4353C13.9709 14.3319 14.0424 14.2483 14.1853 14.0812L14.3155 13.929C14.8185 13.3407 15.0701 13.0466 14.9823 12.7643C14.8945 12.482 14.5256 12.3986 13.7877 12.2316L13.5967 12.1884C13.3871 12.141 13.2822 12.1172 13.198 12.0533C13.1138 11.9894 13.0599 11.8926 12.9519 11.6989L12.8536 11.5225C12.4736 10.8408 12.2836 10.5 11.9995 10.5Z" fill="#1C274C"/>
<path d="M11 2H13C14.8856 2 15.8284 2 16.4142 2.58579C17 3.17157 17 4.11438 17 6V6.01797L14.1541 4.46616C12.8112 3.73394 11.1884 3.73393 9.84551 4.46616L7 6.01775V6C7 4.11438 7 3.17157 7.58579 2.58579C8.17157 2 9.11438 2 11 2Z" fill="#1C274C"/>
</svg>
