<svg width="24" height="24" viewBox="0 0 24 24" fill="none" xmlns="http://www.w3.org/2000/svg">
<path d="M6 4.5C6 3.56538 6 3.09808 6.20096 2.75C6.33261 2.52197 6.52197 2.33261 6.75 2.20096C7.09808 2 7.56538 2 8.5 2H15.5C16.4346 2 16.9019 2 17.25 2.20096C17.478 2.33261 17.6674 2.52197 17.799 2.75C18 3.09808 18 3.56538 18 4.5C18 5.43462 18 5.90192 17.799 6.25C17.6674 6.47803 17.478 6.66739 17.25 6.79904C16.9019 7 16.4346 7 15.5 7H8.5C7.56538 7 7.09808 7 6.75 6.79904C6.52197 6.66739 6.33261 6.47803 6.20096 6.25C6 5.90192 6 5.43462 6 4.5Z" fill="#1C274C"/>
<path d="M5.00214 3.93896C4.84746 4.07635 4.75 4.27674 4.75 4.4999C4.75 4.72305 4.84746 4.92344 5.00214 5.06083C4.99998 4.89607 4.99999 4.72193 5 4.54013V4.45968C4.99999 4.27787 4.99998 4.10373 5.00214 3.93896Z" fill="#1C274C"/>
<path d="M10 16V20C10 20.9428 10 21.4142 10.2929 21.7071C10.5858 22 11.0572 22 12 22C12.9428 22 13.4142 22 13.7071 21.7071C14 21.4142 14 20.9428 14 20V16C14 15.0572 14 14.5858 13.7071 14.2929C13.4142 14 12.9428 14 12 14C11.0572 14 10.5858 14 10.2929 14.2929C10 14.5858 10 15.0572 10 16Z" fill="#1C274C"/>
<path d="M18.9939 5.25H19.0448C19.4994 5.25 19.8046 5.25037 20.0411 5.26579C20.2713 5.2808 20.3838 5.30776 20.4578 5.3369C20.7805 5.46395 21.0359 5.71937 21.163 6.04208C21.1921 6.11609 21.2191 6.22858 21.2341 6.45878C21.2495 6.6953 21.2499 7.00044 21.2499 7.4551C21.2499 8.29243 21.2393 8.52185 21.1785 8.69392C21.0742 8.98918 20.8629 9.23455 20.5864 9.38148C20.4252 9.4671 20.1999 9.5116 19.3719 9.63581L15.2485 10.2543C14.4758 10.3702 13.8272 10.4675 13.3147 10.6116C12.7717 10.7643 12.2911 10.9923 11.9161 11.4278C11.5329 11.8727 11.3748 12.4055 11.3066 13.0062C11.5108 12.9999 11.7265 13 11.9453 13H12.0541C12.3191 13 12.5794 12.9999 12.8203 13.011C12.8703 12.6902 12.9477 12.5286 13.0527 12.4067C13.1622 12.2796 13.3302 12.1654 13.7208 12.0556C14.1316 11.94 14.686 11.8555 15.5178 11.7307L19.7135 11.1014C20.3643 11.0044 20.8711 10.9288 21.2902 10.7061C21.8986 10.3829 22.3635 9.84304 22.5929 9.19346C22.7509 8.74599 22.7505 8.23353 22.7499 7.57559L22.7499 7.43098C22.7499 7.00661 22.7499 6.65233 22.7309 6.3612C22.7111 6.05823 22.6686 5.77171 22.5587 5.49258C22.2792 4.78261 21.7173 4.22069 21.0073 3.94117C20.7282 3.83128 20.4416 3.78872 20.1387 3.76897C19.8475 3.74999 19.4932 3.74999 19.0689 3.75H18.9939C18.9997 3.96867 18.9997 4.20681 18.9997 4.45976V4.54024C18.9997 4.7932 18.9997 5.03133 18.9939 5.25Z" fill="#1C274C"/>
</svg>
