<svg width="24" height="24" viewBox="0 0 24 24" fill="none" xmlns="http://www.w3.org/2000/svg">
<path d="M11.25 2.07349C10.6437 2.18658 9.93159 2.43035 8.83772 2.80479L8.26491 3.00086C5.25832 4.03003 3.75503 4.54461 3.37752 5.08248C3.00825 5.6086 3.00018 7.14981 3 10.2095L11.25 7.4595V2.07349Z" fill="#1C274C"/>
<path d="M11.25 9.04064L3 11.7906V11.9914C3 17.6295 7.23896 20.3656 9.89856 21.5273C10.4093 21.7504 10.7392 21.8946 11.25 21.9597V9.04064Z" fill="#1C274C"/>
<path d="M12.75 21.9597V9.04064L21 11.7906V11.9914C21 17.6295 16.761 20.3656 14.1014 21.5273C13.5907 21.7504 13.2608 21.8946 12.75 21.9597Z" fill="#1C274C"/>
<path d="M12.75 7.4595V2.07349C13.3563 2.18658 14.0684 2.43035 15.1623 2.80479L15.7351 3.00086C18.7417 4.03003 20.245 4.54461 20.6225 5.08248C20.9918 5.6086 20.9998 7.14981 21 10.2095L12.75 7.4595Z" fill="#1C274C"/>
</svg>
