<svg width="24" height="24" viewBox="0 0 24 24" fill="none" xmlns="http://www.w3.org/2000/svg">
<path d="M9.75049 9C9.75049 7.75736 10.7578 6.75 12.0005 6.75C13.2431 6.75 14.2505 7.75736 14.2505 9C14.2505 10.2426 13.2431 11.25 12.0005 11.25C10.7578 11.25 9.75049 10.2426 9.75049 9Z" fill="#1C274C"/>
<path fill-rule="evenodd" clip-rule="evenodd" d="M21.2097 15.904C21.7189 14.7045 22.0005 13.3852 22.0005 12C22.0005 6.47715 17.5233 2 12.0005 2C6.47764 2 2.00049 6.47715 2.00049 12C2.00049 13.385 2.28206 14.7043 2.79108 15.9036L2.70504 15.9998C2.11169 16.6627 1.75 17.54 1.75 18.5C1.75 20.571 3.42893 22.25 5.5 22.25C6.45996 22.25 7.33724 21.8883 8.00018 21.2949L8.09608 21.2091C9.29565 21.7183 10.6152 22 12.0005 22C13.3857 22 14.7051 21.7184 15.9046 21.2092L16.0003 21.2949C16.6633 21.8883 17.5405 22.25 18.5005 22.25C20.5716 22.25 22.2505 20.571 22.2505 18.5C22.2505 17.54 21.8888 16.6627 21.2954 15.9998L21.2097 15.904ZM20.4425 17.3627C19.6543 18.6008 18.6013 19.6538 17.3632 20.442C17.6968 20.6379 18.0851 20.75 18.5005 20.75C19.7431 20.75 20.7505 19.7426 20.7505 18.5C20.7505 18.0846 20.6384 17.6963 20.4425 17.3627ZM6.63754 20.4418C5.3994 19.6536 4.34636 18.6005 3.55824 17.3623C3.36214 17.696 3.25 18.0844 3.25 18.5C3.25 19.7426 4.25736 20.75 5.5 20.75C5.91547 20.75 6.30383 20.6379 6.63754 20.4418ZM12.0005 5.25C9.92942 5.25 8.25049 6.92893 8.25049 9C8.25049 11.0711 9.92942 12.75 12.0005 12.75C14.0716 12.75 15.7505 11.0711 15.7505 9C15.7505 6.92893 14.0716 5.25 12.0005 5.25ZM12.0005 15.25C12.4147 15.25 12.7505 15.5858 12.7505 16V18C12.7505 18.4142 12.4147 18.75 12.0005 18.75C11.5863 18.75 11.2505 18.4142 11.2505 18V16C11.2505 15.5858 11.5863 15.25 12.0005 15.25Z" fill="#1C274C"/>
</svg>
