<svg width="24" height="24" viewBox="0 0 24 24" fill="none" xmlns="http://www.w3.org/2000/svg">
<path fill-rule="evenodd" clip-rule="evenodd" d="M11.9996 1.25C12.4138 1.25 12.7496 1.58579 12.7496 2V4.18934L14.4693 2.46967C14.7622 2.17678 15.237 2.17678 15.5299 2.46967C15.8228 2.76256 15.8228 3.23744 15.5299 3.53033L12.7496 6.31066V10.701L16.5516 8.50588L17.5693 4.70788C17.6765 4.30778 18.0877 4.07034 18.4878 4.17755C18.8879 4.28475 19.1254 4.69601 19.0182 5.09611L18.3887 7.44522L20.2847 6.35055C20.6435 6.14344 21.1022 6.26635 21.3093 6.62507C21.5164 6.98379 21.3935 7.44248 21.0347 7.64959L19.1387 8.74426L21.4878 9.3737C21.8879 9.48091 22.1254 9.89216 22.0182 10.2923C21.911 10.6924 21.4997 10.9298 21.0996 10.8226L17.3016 9.80492L13.4996 12L17.3018 14.1952L21.0998 13.1775C21.4999 13.0703 21.9112 13.3078 22.0184 13.7079C22.1256 14.108 21.8881 14.5192 21.488 14.6264L19.1389 15.2559L21.0349 16.3505C21.3937 16.5577 21.5166 17.0163 21.3095 17.3751C21.1024 17.7338 20.6437 17.8567 20.2849 17.6496L18.3889 16.5549L19.0184 18.904C19.1256 19.3041 18.8881 19.7154 18.488 19.8226C18.0879 19.9298 17.6767 19.6924 17.5695 19.2923L16.5518 15.4943L12.7496 13.299V17.6893L15.5299 20.4697C15.8228 20.7626 15.8228 21.2374 15.5299 21.5303C15.237 21.8232 14.7622 21.8232 14.4693 21.5303L12.7496 19.8107V22C12.7496 22.4142 12.4138 22.75 11.9996 22.75C11.5854 22.75 11.2496 22.4142 11.2496 22V19.8107L9.52992 21.5303C9.23703 21.8232 8.76215 21.8232 8.46926 21.5303C8.17637 21.2374 8.17637 20.7626 8.46926 20.4697L11.2496 17.6893V13.299L7.44738 15.4943L6.42971 19.2923C6.3225 19.6924 5.91125 19.9298 5.51115 19.8226C5.11105 19.7154 4.87361 19.3041 4.98082 18.904L5.61026 16.5549L3.71424 17.6496C3.35552 17.8567 2.89683 17.7338 2.68972 17.3751C2.48261 17.0163 2.60552 16.5577 2.96424 16.3505L4.86026 15.2559L2.51115 14.6264C2.11105 14.5192 1.87361 14.108 1.98082 13.7079C2.08803 13.3078 2.49928 13.0703 2.89938 13.1775L6.69738 14.1952L10.4996 12L6.69758 9.80492L2.89957 10.8226C2.49948 10.9298 2.08822 10.6924 1.98102 10.2923C1.87381 9.89216 2.11125 9.48091 2.51135 9.3737L4.86046 8.74426L2.96443 7.64959C2.60572 7.44248 2.48281 6.98379 2.68992 6.62507C2.89702 6.26635 3.35572 6.14344 3.71443 6.35055L5.61046 7.44522L4.98102 5.09611C4.87381 4.69601 5.11125 4.28475 5.51135 4.17755C5.91145 4.07034 6.3227 4.30778 6.4299 4.70788L7.44758 8.50588L11.2496 10.701V6.31066L8.46926 3.53033C8.17637 3.23744 8.17637 2.76256 8.46926 2.46967C8.76215 2.17678 9.23703 2.17678 9.52992 2.46967L11.2496 4.18934V2C11.2496 1.58579 11.5854 1.25 11.9996 1.25Z" fill="#1C274C"/>
</svg>
