<svg width="24" height="24" viewBox="0 0 24 24" fill="none" xmlns="http://www.w3.org/2000/svg">
<path fill-rule="evenodd" clip-rule="evenodd" d="M14.9768 1H9C8.44772 1 8 1.44772 8 2C8 2.55228 8.44772 3 9 3H13.656L8.25597 21H3C2.44772 21 2 21.4477 2 22C2 22.5523 2.44772 23 3 23H8.97753C8.99281 23.0004 9.00805 23.0004 9.02325 23H15C15.5523 23 16 22.5523 16 22C16 21.4477 15.5523 21 15 21H10.344L15.744 3H21C21.5523 3 22 2.55228 22 2C22 1.44772 21.5523 1 21 1H15.0225C15.0072 0.999648 14.992 0.99965 14.9768 1Z" fill="#1C274C"/>
</svg>
