<svg width="311" height="264" viewBox="0 0 311 264" fill="none" xmlns="http://www.w3.org/2000/svg">
<g clip-path="url(#clip0_703_4816)">
<path opacity="0.1" d="M253.285 127.433C253.285 131.129 253.13 134.787 252.82 138.408C252.576 141.234 252.243 144.035 251.821 146.811C251.372 149.749 250.822 152.653 250.172 155.521V155.524C249.746 157.411 249.279 159.284 248.77 161.14C247.293 166.538 245.456 171.83 243.272 176.98C242.797 178.101 242.307 179.214 241.801 180.319C239.888 184.504 237.745 188.581 235.384 192.53C228.76 203.619 220.492 213.634 210.863 222.23C209.821 223.159 208.764 224.072 207.694 224.971C184.959 244.006 156.266 254.413 126.642 254.367C56.6989 254.367 0 197.538 0 127.433C0 57.3291 56.6989 0.499913 126.642 0.499913C155.246 0.454709 183.014 10.1587 205.388 28.0187C206.437 28.8517 207.473 29.7034 208.495 30.5739C213.484 34.8148 218.14 39.4342 222.422 44.3911H222.426C242.37 67.4343 253.33 96.9278 253.285 127.433Z" fill="#F0748D"/>
<path d="M37.3847 149.359C25.3205 142.163 16.2149 128.713 17.3971 114.691C28.4267 125.272 42.8348 131.601 58.0721 132.56C63.9498 132.908 70.5234 132.682 74.8501 136.684C77.5423 139.175 78.7955 142.924 79.0011 146.591C79.2066 150.257 78.4738 153.904 77.7448 157.502L77.9957 158.384C63.9566 158.437 49.4489 156.556 37.3847 149.359Z" fill="#E6E6E6"/>
<path d="M17.6912 114.676C22.5251 125.268 30.5657 134.064 40.671 139.815C42.8434 141.033 45.153 142.08 47.6073 142.566C50.0033 143.021 52.4771 142.824 54.7717 141.997C56.9266 141.269 59.0467 140.273 61.3408 140.083C63.7589 139.882 65.9975 140.817 67.7563 142.455C69.9083 144.458 71.2136 147.118 72.3999 149.763C73.717 152.7 75.0387 155.771 77.5641 157.883C77.8701 158.139 77.456 158.6 77.1505 158.344C72.7568 154.67 72.0396 148.516 68.5275 144.189C66.8887 142.169 64.6328 140.633 61.9529 140.673C59.6094 140.709 57.4222 141.733 55.2467 142.489C52.9623 143.284 50.6739 143.657 48.2622 143.307C45.7952 142.95 43.4399 141.991 41.2459 140.834C36.2903 138.171 31.7832 134.744 27.8897 130.678C23.4204 126.062 19.7719 120.714 17.1018 114.865C16.9367 114.503 17.5272 114.317 17.6912 114.676Z" fill="white"/>
<path d="M37.3084 138.155C36.1156 139.724 34.4054 140.816 32.4833 141.237C30.5611 141.658 28.5522 141.381 26.8152 140.455C26.4644 140.266 26.7404 139.711 27.0917 139.9C28.7075 140.765 30.5789 141.023 32.368 140.627C34.1571 140.232 35.7461 139.208 36.8481 137.741C37.088 137.422 37.5469 137.838 37.3084 138.155Z" fill="white"/>
<path d="M53.7276 142.511C53.2256 138.511 51.2379 134.848 48.161 132.251C47.8559 131.994 48.2698 131.533 48.5745 131.79C51.7715 134.498 53.8322 138.314 54.3455 142.478C54.3941 142.874 53.776 142.905 53.7276 142.511Z" fill="white"/>
<path d="M24.1878 125.771C24.7754 125.261 25.2274 124.612 25.5031 123.883C25.7788 123.154 25.8696 122.368 25.7673 121.596C25.7137 121.2 26.3319 121.169 26.3852 121.563C26.4943 122.417 26.3929 123.285 26.0901 124.091C25.7873 124.897 25.2922 125.616 24.648 126.186C24.5918 126.245 24.5153 126.28 24.4342 126.284C24.353 126.288 24.2732 126.262 24.2111 126.209C24.1504 126.154 24.1139 126.077 24.1096 125.995C24.1052 125.913 24.1333 125.833 24.1878 125.771Z" fill="white"/>
<path d="M56.4479 87.5271C56.4884 87.7734 56.529 88.0198 56.5742 88.2685C57.1359 91.5776 57.965 94.8356 59.0532 98.0101C59.1334 98.2569 59.2185 98.5058 59.3056 98.7498C62.0087 106.37 66.0997 113.421 71.3708 119.544C73.4706 121.979 75.7521 124.25 78.1956 126.338C81.5703 129.221 85.4583 132.078 87.622 135.8C87.8521 136.186 88.0581 136.586 88.2389 136.997L79.0492 158.009C79.0044 158.046 78.9643 158.086 78.9194 158.123L78.5907 158.979C78.4572 158.88 78.3209 158.775 78.1873 158.676C78.1096 158.619 78.034 158.557 77.9563 158.5C77.9052 158.461 77.8541 158.421 77.8057 158.388C77.7886 158.375 77.7716 158.362 77.7593 158.351C77.7109 158.318 77.6694 158.283 77.6258 158.252C76.8619 157.665 76.1008 157.071 75.3425 156.472C75.3377 156.469 75.3377 156.469 75.335 156.463C69.5687 151.877 64.1337 146.769 59.645 140.996C59.51 140.823 59.3702 140.647 59.2394 140.464C57.2305 137.85 55.4381 135.077 53.8801 132.171C53.032 130.577 52.265 128.941 51.582 127.269C49.8256 122.946 48.7585 118.373 48.4198 113.718C47.746 104.438 50.0409 95.0449 55.9883 88.0566C56.1406 87.8779 56.2909 87.7037 56.4479 87.5271Z" fill="#E6E6E6"/>
<path d="M56.6933 87.6914C54.1905 99.0653 55.3269 110.94 59.9411 121.63C60.9435 123.914 62.1587 126.144 63.8267 128.013C65.4665 129.822 67.5597 131.158 69.8888 131.882C72.0469 132.6 74.3375 133.085 76.2838 134.317C78.3352 135.616 79.5609 137.714 79.9815 140.083C80.496 142.981 79.9408 145.892 79.2992 148.72C78.5867 151.86 77.7971 155.11 78.5448 158.32C78.6354 158.709 78.0279 158.827 77.9375 158.439C76.6366 152.853 79.7604 147.507 79.5556 141.932C79.4601 139.331 78.5819 136.743 76.4178 135.158C74.5253 133.772 72.1637 133.27 69.9722 132.561C67.6712 131.817 65.6199 130.734 63.9042 129C62.1491 127.226 60.8444 125.039 59.7881 122.791C57.4307 117.674 55.8906 112.218 55.2243 106.622C54.4284 100.24 54.7277 93.7679 56.1091 87.4867C56.1948 87.098 56.7784 87.3052 56.6933 87.6914Z" fill="white"/>
<path d="M58.2532 118.276C56.3587 118.808 54.3371 118.648 52.5494 117.825C50.7616 117.001 49.3242 115.567 48.4937 113.779C48.3269 113.417 48.8808 113.14 49.0478 113.503C49.8181 115.169 51.1572 116.505 52.8235 117.268C54.4898 118.032 56.3736 118.173 58.1347 117.667C58.5176 117.557 58.6339 118.167 58.2532 118.276Z" fill="white"/>
<path d="M68.7466 131.662C70.7484 128.165 71.3618 124.041 70.4645 120.111C70.3753 119.722 70.9827 119.603 71.0718 119.992C71.998 124.083 71.3509 128.374 69.2598 132.008C69.0603 132.354 68.5481 132.006 68.7466 131.662Z" fill="white"/>
<path d="M55.2159 100.47C55.9918 100.417 56.7424 100.172 57.4003 99.7565C58.0582 99.3409 58.6028 98.7681 58.9853 98.0895C59.1804 97.7409 59.6923 98.0896 59.4985 98.4359C59.0725 99.1838 58.4702 99.8156 57.7443 100.276C57.0184 100.737 56.191 101.013 55.3344 101.079C55.2542 101.092 55.172 101.074 55.1046 101.028C55.0372 100.983 54.9896 100.913 54.9715 100.834C54.9562 100.753 54.9733 100.67 55.0191 100.602C55.0649 100.534 55.1356 100.486 55.2159 100.47Z" fill="white"/>
<path d="M87.7263 29.9194L103.227 211.789L72.2258 214.125V32.2333C75.9198 29.7833 81.2226 29.4 87.7263 29.9194Z" fill="#CCCCCC"/>
<path d="M164.239 29.9194L148.739 211.789L179.74 214.125V32.2333C176.046 29.7833 170.743 29.4 164.239 29.9194Z" fill="#CCCCCC"/>
<path d="M175.098 221.642H76.5378C74.9574 221.64 73.4422 221.01 72.3247 219.89C71.2072 218.77 70.5785 217.251 70.5768 215.667V34.9024C70.5786 33.3184 71.2072 31.7998 72.3247 30.6797C73.4422 29.5596 74.9574 28.9295 76.5378 28.9277H175.098C176.679 28.9295 178.194 29.5596 179.311 30.6797C180.429 31.7998 181.057 33.3184 181.059 34.9024V215.667C181.057 217.251 180.429 218.77 179.311 219.89C178.194 221.01 176.679 221.64 175.098 221.642ZM76.5378 30.9111C75.482 30.9122 74.4698 31.3331 73.7232 32.0814C72.9767 32.8297 72.5567 33.8442 72.5556 34.9024V215.667C72.5567 216.725 72.9767 217.74 73.7232 218.488C74.4698 219.236 75.482 219.657 76.5378 219.658H175.098C176.154 219.657 177.166 219.236 177.913 218.488C178.659 217.74 179.079 216.725 179.08 215.667V34.9024C179.079 33.8442 178.659 32.8297 177.913 32.0814C177.166 31.3331 176.154 30.9122 175.098 30.9111L76.5378 30.9111Z" fill="#CCCCCC"/>
<path d="M180.07 59.0083H71.5662V60.9916H180.07V59.0083Z" fill="#CCCCCC"/>
<path d="M180.07 92.064H71.5662V94.0473H180.07V92.064Z" fill="#CCCCCC"/>
<path d="M106.777 29.9194H104.798V120.161H106.777V29.9194Z" fill="#CCCCCC"/>
<path d="M146.838 29.9194H144.859V120.161H146.838V29.9194Z" fill="#CCCCCC"/>
<path d="M192.437 227.096H62.4967C60.1351 227.096 57.8702 226.156 56.2002 224.482C54.5303 222.808 53.5922 220.538 53.5922 218.171C53.5922 215.804 54.5303 213.534 56.2002 211.86C57.8702 210.186 60.1351 209.246 62.4967 209.246H192.437C194.799 209.246 197.064 210.186 198.734 211.86C200.404 213.534 201.342 215.804 201.342 218.171C201.342 220.538 200.404 222.808 198.734 224.482C197.064 226.156 194.799 227.096 192.437 227.096Z" fill="#CCCCCC"/>
<path d="M180.07 115.533H72.2258V122.145H180.07V115.533Z" fill="#CCCCCC"/>
<path d="M107.084 136.574L106.947 136.507C99.5952 132.948 89.9679 132.951 75.7304 136.519L75.5784 136.557L75.5328 136.407C74.0267 131.457 72.3205 125.851 75.5257 123.093C75.5707 114.999 82.6541 108.427 91.3546 108.427C100.053 108.427 107.136 114.995 107.183 123.087C111.951 126.741 109.679 132.14 107.161 136.442L107.084 136.574Z" fill="#2F2E41"/>
<path d="M152.27 119.242C152.138 119.898 151.864 120.517 151.468 121.056C151.072 121.594 150.563 122.039 149.976 122.359C149.39 122.678 148.741 122.865 148.075 122.906C147.408 122.948 146.741 122.842 146.12 122.597L120.14 148.765L117.822 140.64L143.625 116.339C144.105 115.32 144.942 114.514 145.975 114.072C147.009 113.63 148.169 113.584 149.234 113.942C150.3 114.3 151.197 115.037 151.757 116.014C152.316 116.991 152.499 118.14 152.27 119.242Z" fill="#FFB6B6"/>
<path d="M88.0587 144.435C88.0587 144.435 85.7016 149.789 91.5178 153.09C97.334 156.392 117.662 151.83 120.96 151.193C124.259 150.557 136.578 132.078 136.578 132.078L134.836 123.016L118.498 137.232L88.0587 144.435Z" fill="#E6E6E6"/>
<path d="M83.7687 174.042L84.0985 180.322C84.0985 180.322 83.1251 185.886 83.9257 187.086C84.7202 188.281 106.402 188.432 106.402 188.432C106.402 188.432 107.834 180.691 109.068 173.916L83.7687 174.042Z" fill="#FFB6B6"/>
<path d="M146.105 257.085L150.638 256.167L149.341 237.816L142.651 239.171L146.105 257.085Z" fill="#FFB6B6"/>
<path d="M152.598 233.204L156.812 231.305L151.345 213.747L145.126 216.55L152.598 233.204Z" fill="#FFB6B6"/>
<path d="M156.268 223.311L148.334 227.814L128.767 196.298C115.03 205.574 101.597 210.016 88.0561 212.386C83.4779 213.203 78.8101 212.789 77.9312 208.119C77.8901 207.9 77.8573 207.681 77.8329 207.46C77.2922 202.359 83.6236 195.82 84.4284 189.578L101.756 188.535L103.893 191.281L123.932 178.933C127.962 176.45 133.262 177.793 135.77 181.933C135.903 182.152 136.026 182.376 136.139 182.605L156.268 223.311Z" fill="#2F2E41"/>
<path d="M151.412 244.512L142.333 245.358L125.872 211.614C109.549 214.428 94.1489 215.33 80.8288 211.926C76.3189 210.789 73.5622 206.122 74.6714 201.501C74.7233 201.285 74.7832 201.071 74.8513 200.86C76.4455 195.985 80.6184 192.535 83.9061 187.173L107.921 187.539L105.239 196.815L128.567 193.789C133.259 193.181 137.544 196.584 138.137 201.392C138.169 201.645 138.189 201.9 138.199 202.156L151.412 244.512Z" fill="#2F2E41"/>
<path d="M93.1456 131.776C98.5312 131.776 102.897 127.4 102.897 122.002C102.897 116.604 98.5312 112.229 93.1456 112.229C87.7601 112.229 83.3942 116.604 83.3942 122.002C83.3942 127.4 87.7601 131.776 93.1456 131.776Z" fill="#FFB6B6"/>
<path d="M87.4289 135.304L96.37 136.359C96.747 136.403 97.1009 136.564 97.3822 136.82C97.6634 137.076 97.8582 137.413 97.9392 137.785L99.3612 144.306L108.225 154.768C108.225 154.768 111.408 160.75 110.214 167.529C109.021 174.309 108.496 179.346 108.496 179.346C108.496 179.346 84.7191 188.281 83.9233 187.085C83.1276 185.889 82.8694 180.455 82.8694 180.455L79.6865 144.963C79.6865 144.963 83.2673 138.981 85.2566 138.981C86.5405 138.938 86.3758 136.042 87.4289 135.304Z" fill="#E6E6E6"/>
<path d="M108.738 181.528C109.992 181.528 111.008 180.306 111.008 178.797C111.008 177.289 109.992 176.067 108.738 176.067C107.484 176.067 106.468 177.289 106.468 178.797C106.468 180.306 107.484 181.528 108.738 181.528Z" fill="#E6E6E6"/>
<path d="M143.856 252.36L150.766 248.888L152.069 251.934L160.807 253.704C161.239 253.792 161.631 254.015 161.927 254.342C162.223 254.669 162.407 255.082 162.452 255.521C162.498 255.96 162.402 256.402 162.178 256.782C161.955 257.163 161.616 257.462 161.212 257.635L152.769 261.263L150.025 258.876L150.745 262.132L147.562 263.5L143.856 252.36Z" fill="#2F2E41"/>
<path d="M150.62 231.743L157.469 228.151L158.824 231.173L167.593 232.789C168.026 232.869 168.422 233.085 168.724 233.407C169.025 233.728 169.216 234.138 169.269 234.576C169.322 235.014 169.234 235.458 169.018 235.842C168.801 236.226 168.468 236.531 168.066 236.712L159.688 240.488L156.903 238.149L157.68 241.393L154.521 242.816L150.62 231.743Z" fill="#2F2E41"/>
<path d="M87.5743 118.937C84.998 118.941 82.4836 118.146 80.3762 116.661L80.3058 116.611V116.525C80.3087 114.027 81.2999 111.633 83.0619 109.867C84.824 108.101 87.2131 107.107 89.7051 107.104H93.6627C96.1546 107.107 98.5437 108.101 100.306 109.867C102.068 111.633 103.059 114.027 103.062 116.525C103.059 117.097 102.834 117.645 102.434 118.053C102.034 118.46 101.492 118.695 100.921 118.708L87.7967 118.935C87.7226 118.936 87.6482 118.937 87.5743 118.937Z" fill="#2F2E41"/>
<path d="M103.722 114.716C104.983 113.985 105.194 111.984 104.193 110.245C103.191 108.505 101.356 107.688 100.094 108.418C98.8318 109.148 98.6209 111.15 99.6227 112.889C100.625 114.628 102.46 115.446 103.722 114.716Z" fill="#2F2E41"/>
<path d="M83.9854 112.776C85.4021 111.356 85.7153 109.367 84.685 108.335C83.6546 107.302 81.6709 107.616 80.2541 109.036C78.8374 110.456 78.5242 112.444 79.5545 113.477C80.5849 114.51 82.5686 114.196 83.9854 112.776Z" fill="#2F2E41"/>
<path d="M170.287 202.139H160.554C160.335 202.139 160.118 202.186 159.918 202.279C159.719 202.371 159.542 202.506 159.4 202.674C159.041 202.608 158.672 202.628 158.322 202.733C157.972 202.837 157.652 203.024 157.389 203.276C157.125 203.529 156.924 203.841 156.804 204.186C156.684 204.532 156.647 204.901 156.696 205.263C156.746 205.626 156.88 205.971 157.089 206.272C157.298 206.572 157.574 206.818 157.896 206.99C158.218 207.163 158.577 207.256 158.942 207.262C159.307 207.269 159.668 207.189 159.996 207.028L160.803 209.658C160.899 209.969 161.092 210.242 161.353 210.435C161.615 210.629 161.932 210.734 162.257 210.734H168.585C168.91 210.734 169.227 210.629 169.488 210.435C169.75 210.242 169.943 209.969 170.038 209.658L171.741 204.112C171.811 203.884 171.827 203.643 171.787 203.407C171.747 203.172 171.652 202.95 171.511 202.758C171.369 202.566 171.185 202.41 170.973 202.303C170.76 202.195 170.525 202.139 170.287 202.139ZM158.99 206.602C158.552 206.602 158.133 206.428 157.824 206.118C157.514 205.808 157.341 205.387 157.341 204.949C157.341 204.511 157.514 204.09 157.824 203.78C158.133 203.47 158.552 203.296 158.99 203.296C159.02 203.296 159.048 203.303 159.078 203.305C159.012 203.571 159.02 203.85 159.101 204.112L159.797 206.381C159.552 206.524 159.273 206.6 158.99 206.602Z" fill="#3F3D56"/>
<path d="M126.825 194.963C126.16 195.025 125.49 194.94 124.862 194.714C124.233 194.488 123.662 194.127 123.188 193.655C122.715 193.184 122.349 192.615 122.119 191.987C121.889 191.359 121.798 190.688 121.854 190.021L89.3895 172.584L96.4904 168.027L127.12 185.83C128.231 185.999 129.241 186.57 129.96 187.436C130.679 188.302 131.056 189.402 131.02 190.528C130.983 191.654 130.536 192.727 129.763 193.545C128.99 194.362 127.944 194.867 126.825 194.963Z" fill="#FFB6B6"/>
<path d="M84.3236 140.539C84.3236 140.539 78.5302 139.812 77.0433 146.343C75.5564 152.875 85.7486 171.084 87.3038 174.069C88.8589 177.053 110.054 183.579 110.054 183.579L118.216 179.307L99.9414 167.698L84.3236 140.539Z" fill="#E6E6E6"/>
<path d="M125.158 113.55H127.137C128.099 113.55 129.022 113.933 129.702 114.615C130.383 115.297 130.765 116.222 130.765 117.186H121.531C121.531 116.222 121.913 115.297 122.593 114.615C123.274 113.933 124.196 113.55 125.158 113.55Z" fill="#CCCCCC"/>
<path d="M62.4116 45.7086C73.2384 45.7086 82.0154 36.9115 82.0154 26.0597C82.0154 15.208 73.2384 6.41089 62.4116 6.41089C51.5847 6.41089 42.8077 15.208 42.8077 26.0597C42.8077 36.9115 51.5847 45.7086 62.4116 45.7086Z" fill="#F0748D"/>
<path d="M122.434 25.0359C117.246 19.5809 111.22 14.6045 104.087 11.9748C102.1 11.2392 100.04 10.7203 97.9421 10.427C97.9253 10.4247 97.9093 10.4281 97.8925 10.4268C97.8584 10.418 97.8238 10.4112 97.7889 10.4064C94.8548 10.0318 91.8767 10.212 89.0089 10.9377C87.6065 11.2904 86.2384 11.7681 84.9209 12.3651C83.5987 13.0116 82.3176 13.7393 81.0849 14.544C78.4757 16.1095 75.6029 17.1836 72.6082 17.7136C71.1051 17.9848 69.5826 18.1346 68.0555 18.1614C66.7305 18.1881 65.4809 18.2342 64.2255 18.714C62.8844 19.2194 61.6798 20.0321 60.7078 21.087C59.7357 22.1419 59.0231 23.41 58.6269 24.79C58.5963 24.9128 58.6055 25.0423 58.6532 25.1596C58.7008 25.2769 58.7844 25.376 58.8918 25.4426C59.2314 25.6864 59.5625 25.963 59.9193 26.1801C60.2367 26.3258 60.5757 26.4184 60.9229 26.4545C61.4902 26.5745 62.0582 26.6909 62.6269 26.8039C64.722 27.22 66.8259 27.5883 68.9384 27.9088C73.2131 28.5574 77.5108 29.0143 81.8316 29.2795C90.4875 29.805 99.1731 29.5433 107.782 28.4977C112.62 27.9104 117.425 27.0773 122.179 26.0018C122.276 25.9736 122.363 25.9209 122.433 25.8489C122.503 25.7769 122.553 25.688 122.579 25.5909C122.604 25.4937 122.604 25.3915 122.579 25.2943C122.554 25.197 122.504 25.108 122.434 25.0359Z" fill="#E6E6E6"/>
<path d="M63.3419 38.1733C61.355 37.4377 59.2948 36.9188 57.1969 36.6255C57.1801 36.6232 57.1641 36.6266 57.1473 36.6253C57.1132 36.6165 57.0786 36.6096 57.0437 36.6049C54.1096 36.2302 51.1315 36.4104 48.2637 37.1362C46.8613 37.4889 45.4932 37.9666 44.1757 38.5635C42.8535 39.2101 41.5724 39.9378 40.3397 40.7425C37.7305 42.3079 34.8577 43.3821 31.8631 43.912C30.3599 44.1833 28.8374 44.3331 27.3103 44.3599C25.9853 44.3865 24.7357 44.4327 23.4803 44.9125C22.1393 45.4179 20.9347 46.2305 19.9626 47.2855C18.9906 48.3404 18.278 49.6084 17.8817 50.9884C17.8511 51.1113 17.8604 51.2407 17.908 51.358C17.9556 51.4754 18.0392 51.5745 18.1467 51.641C18.4863 51.8848 18.8173 52.1614 19.1741 52.3786C19.4915 52.5242 19.8305 52.6169 20.1777 52.653C20.745 52.7729 21.313 52.8894 21.8817 53.0024C23.9768 53.4184 26.0807 53.7867 28.1932 54.1073C32.4679 54.7559 36.7656 55.2128 41.0865 55.4779C49.7423 56.0034 58.4279 55.7418 67.0366 54.6962C71.8748 54.1089 76.6801 53.2758 81.4341 52.2003C81.5303 52.1721 81.6177 52.1194 81.6876 52.0474C81.7576 51.9754 81.8078 51.8865 81.8334 51.7893C81.859 51.6921 81.8591 51.59 81.8338 51.4927C81.8084 51.3955 81.7583 51.3065 81.6885 51.2344C76.5004 45.7794 70.4749 40.803 63.3419 38.1733Z" fill="#E6E6E6"/>
<path d="M204.713 184.652L189.638 164.802L177.742 171.544L202.949 201.546L204.713 184.652Z" fill="#3F3D56"/>
<path d="M239.44 152.384C239.775 160.703 241.061 168.955 243.272 176.98C242.797 178.101 242.307 179.214 241.801 180.319C239.888 184.504 237.745 188.581 235.384 192.53C228.76 203.619 220.492 213.634 210.863 222.23C209.821 223.159 208.764 224.073 207.694 224.971C201.589 216.535 198.294 207.226 196.992 197.647C196.827 196.43 196.692 195.201 196.589 193.978V193.971C196.339 190.999 196.259 188.014 196.349 185.033C196.352 184.795 196.359 184.553 196.368 184.312C196.484 181.126 196.771 177.932 197.203 174.769V174.766C197.252 174.402 197.302 174.038 197.358 173.675C197.516 172.584 197.694 171.493 197.889 170.409C199.021 164.156 200.602 157.993 202.618 151.967V151.964C202.674 151.789 202.73 151.617 202.793 151.445C203.011 150.79 203.232 150.143 203.459 149.495C203.473 149.444 203.491 149.394 203.512 149.346C203.805 148.5 204.105 147.66 204.412 146.827C204.495 146.596 204.58 146.364 204.669 146.133C205.016 145.204 205.369 144.282 205.728 143.373C205.84 143.082 205.956 142.791 206.071 142.503C206.16 142.282 206.246 142.06 206.338 141.842V141.839C206.863 140.54 207.394 139.266 207.931 138.018C209.438 134.507 210.988 131.205 212.499 128.161L212.502 128.157C218.772 115.553 224.471 107.369 224.471 107.369L245.871 114.31C243.318 118.849 241.343 125.543 240.261 133.44C239.428 139.716 239.153 146.055 239.44 152.38L239.44 152.384Z" fill="#3F3D56"/>
<path d="M203.871 150.364C203.746 150.07 203.604 149.782 203.459 149.495C202.707 148.035 201.738 146.697 200.587 145.528C200.415 145.353 200.237 145.178 200.052 145.012C198.066 143.178 195.65 141.876 193.028 141.225C190.407 140.575 187.664 140.597 185.053 141.29L185.04 141.297L184.941 141.323L184.964 141.436C185.063 141.959 185.206 142.474 185.393 142.973C185.442 143.108 185.498 143.237 185.554 143.366C185.577 143.426 185.607 143.479 185.633 143.538C185.633 143.538 185.63 143.541 185.637 143.541C185.637 143.545 185.64 143.548 185.64 143.551C185.703 143.674 185.762 143.799 185.828 143.918C185.693 143.789 185.564 143.657 185.439 143.522C185.317 143.396 185.205 143.264 185.093 143.131C184.708 142.682 184.361 142.202 184.054 141.697L184.001 141.608L183.909 141.644C182.664 142.076 181.477 142.659 180.373 143.379L180.254 143.459C179.412 144.013 178.462 144.384 177.467 144.547C176.473 144.71 175.455 144.661 174.48 144.404C172.943 144.007 171.34 143.934 169.774 144.191C168.207 144.448 166.711 145.028 165.381 145.895C164.499 146.471 163.702 147.167 163.013 147.964C162.953 148.034 162.894 148.106 162.835 148.176C162.709 148.328 162.59 148.483 162.475 148.642C161.235 150.303 160.474 152.273 160.275 154.337L160.269 154.413L160.331 154.456C161.447 155.223 162.709 155.75 164.038 156.003C163.204 156.12 162.358 156.141 161.519 156.066H161.515C161.135 156.035 160.756 155.982 160.381 155.908L160.312 155.894H160.308L160.223 155.878L160.236 156.036C160.334 158.056 160.968 160.013 162.073 161.705L162.106 161.752C162.118 161.769 162.129 161.786 162.139 161.805C162.607 162.522 162.996 163.288 163.3 164.089C164.071 166.079 164.24 168.253 163.788 170.34C163.275 172.571 163.446 174.906 164.276 177.039C165.107 179.172 166.559 181.005 168.444 182.299C170.1 183.441 172.03 184.12 174.034 184.266C174.308 184.289 174.585 184.302 174.862 184.302C176.448 184.307 178.018 183.979 179.47 183.34L179.522 183.321L179.536 183.261C179.815 182.358 180.207 181.494 180.703 180.689C180.541 181.323 180.459 181.975 180.459 182.63V182.848L180.647 182.739C180.809 182.643 180.973 182.54 181.122 182.445C182.013 181.861 182.819 181.159 183.519 180.355C183.793 180.038 184.07 179.731 184.36 179.423L184.364 179.42C184.928 178.818 185.525 178.23 186.145 177.668C187.464 176.481 188.875 175.401 190.366 174.438C191.856 173.48 193.413 172.631 195.026 171.9H195.029C195.211 171.814 195.396 171.731 195.577 171.652C196.38 171.301 197.153 170.886 197.889 170.409C197.915 170.392 197.938 170.379 197.961 170.363C201.149 168.27 203.493 165.112 204.576 161.45C205.658 157.788 205.408 153.859 203.871 150.364Z" fill="#F0748D"/>
<path opacity="0.15" d="M164.331 175.033C164.241 175.435 164.173 175.841 164.127 176.251C163.513 174.306 163.424 172.233 163.869 170.242C163.937 169.938 163.989 169.63 164.029 169.32C164.639 171.163 164.743 173.136 164.331 175.033Z" fill="black"/>
<path opacity="0.15" d="M164.58 160.694C163.604 160.83 162.613 160.835 161.635 160.708C161.379 160.224 161.157 159.722 160.973 159.206C162.062 159.943 163.29 160.449 164.58 160.694Z" fill="black"/>
<path opacity="0.15" d="M161.556 155.96C161.196 156.884 160.956 157.852 160.844 158.838C160.543 157.898 160.365 156.924 160.315 155.939L160.307 155.78L160.463 155.811C160.825 155.879 161.19 155.929 161.556 155.96Z" fill="black"/>
<path opacity="0.15" d="M165.466 145.797C166.795 144.929 168.29 144.347 169.856 144.09C171.421 143.833 173.023 143.906 174.56 144.304C175.535 144.562 176.553 144.612 177.549 144.449C178.544 144.287 179.495 143.916 180.338 143.36L180.457 143.282C181.559 142.559 182.746 141.975 183.99 141.542L184.085 141.509L184.137 141.595C184.629 142.41 185.225 143.158 185.91 143.818C185.494 143.041 185.203 142.203 185.047 141.336L185.024 141.221L185.137 141.191C187.585 140.542 190.153 140.482 192.629 141.016C195.105 141.55 197.42 142.663 199.385 144.265C201.351 145.867 202.91 147.912 203.937 150.233C204.963 152.554 205.428 155.085 205.293 157.62C204.773 155.553 203.85 153.61 202.576 151.904C201.302 150.197 199.703 148.761 197.871 147.679C196.039 146.596 194.011 145.889 191.904 145.597C189.798 145.306 187.655 145.437 185.599 145.982L185.486 146.012L185.509 146.126C185.665 146.994 185.956 147.832 186.372 148.609C185.687 147.948 185.091 147.201 184.599 146.386L184.547 146.3L184.452 146.333C183.208 146.766 182.021 147.35 180.919 148.072L180.8 148.151C179.957 148.706 179.007 149.077 178.011 149.24C177.016 149.403 175.997 149.353 175.022 149.095C172.469 148.431 169.765 148.675 167.371 149.786C164.978 150.896 163.043 152.805 161.896 155.186C161.385 154.94 160.891 154.663 160.414 154.356L160.349 154.315L160.357 154.239C160.521 152.537 161.066 150.895 161.95 149.433C162.834 147.972 164.036 146.729 165.466 145.797Z" fill="black"/>
<path d="M288.072 61.3356L287.759 61.1273L287.531 61.4248C285.77 63.6473 284.369 66.1338 283.379 68.7929C283.516 65.7295 284.05 62.697 284.969 59.7721L285.068 59.4646L284.784 59.3027C281.094 57.2084 277.162 55.5743 273.076 54.4369L272.631 54.3179C269.499 53.4566 266.584 51.9435 264.075 49.8771C261.566 47.8108 259.52 45.2376 258.07 42.3253C254.701 35.6417 249.378 30.1469 242.812 26.5743C236.246 23.0016 228.748 21.521 221.321 22.33H221.318C221.238 22.3366 221.156 22.3465 221.077 22.3564C220.942 22.3697 220.81 22.3862 220.678 22.4027C220.407 22.4391 220.144 22.4754 219.88 22.5151C219.655 22.5482 219.428 22.5845 219.204 22.6242C219.085 22.6407 218.969 22.6605 218.854 22.6837C218.739 22.7035 218.62 22.7233 218.504 22.7465H218.501C216.287 23.1663 214.116 23.7915 212.017 24.6141H212.014V24.6174L211.483 24.8257C210.936 25.0504 210.393 25.2884 209.854 25.5397C209.732 25.5959 209.613 25.6554 209.491 25.7116C209.458 25.7281 209.422 25.7446 209.389 25.7644C209.043 25.9297 208.7 26.1016 208.36 26.2834C208.31 26.3066 208.261 26.333 208.211 26.3594L207.895 26.528C207.199 26.9049 206.515 27.3048 205.844 27.7279C205.787 27.761 205.735 27.7941 205.679 27.8304C205.619 27.8701 205.557 27.9098 205.497 27.9494C205.461 27.9693 205.425 27.9957 205.388 28.0188C205.286 28.0816 205.187 28.1478 205.088 28.2172C204.89 28.3461 204.693 28.4783 204.498 28.6138C204.297 28.7494 204.099 28.8915 203.901 29.0336L203.703 29.1758L203.739 29.4204C203.772 29.622 203.802 29.8237 203.838 30.022C203.871 30.2203 203.904 30.4154 203.941 30.6104C203.997 30.9376 204.059 31.2616 204.122 31.5756C204.165 31.7839 204.204 31.9888 204.251 32.1905C204.293 32.3987 204.34 32.607 204.389 32.8152C204.485 33.2449 204.587 33.6614 204.696 34.0713C204.749 34.2763 204.805 34.4812 204.864 34.6828C204.897 34.8051 204.93 34.9275 204.966 35.0465C204.993 35.1291 205.019 35.2117 205.045 35.2944C205.052 35.3208 205.059 35.3506 205.069 35.3803C205.076 35.4083 205.085 35.4359 205.095 35.463C205.131 35.5853 205.167 35.7043 205.204 35.82C205.224 35.8828 205.243 35.9456 205.266 36.0051C205.313 36.1472 205.362 36.2927 205.411 36.4315C205.464 36.5902 205.52 36.7488 205.576 36.9042C205.59 36.9438 205.603 36.9802 205.616 37.0199C205.626 37.0496 205.636 37.0794 205.649 37.1091C205.662 37.1422 205.675 37.1785 205.689 37.2116C205.745 37.3603 205.801 37.5124 205.86 37.6612C205.88 37.714 205.9 37.7702 205.923 37.8231C206.457 39.1698 207.114 40.4644 207.885 41.6906C207.031 40.9568 206.209 40.1789 205.418 39.3569C204.198 38.086 203.073 36.7258 202.054 35.2878C201.972 35.1754 201.889 35.0597 201.813 34.944C201.658 34.7225 201.507 34.501 201.358 34.2763C201.2 34.0449 201.048 33.8036 200.9 33.5656C200.801 33.4069 200.702 33.2449 200.606 33.0863C200.511 32.9342 200.422 32.7855 200.336 32.6334L200.079 32.1905H200.075V32.1938L199.713 32.5507C199.567 32.6929 199.422 32.835 199.281 32.9772C194.848 37.4473 191.637 42.9853 189.957 49.0587L189.908 49.2405L189.858 49.4289C189.763 49.7661 189.667 50.0933 189.565 50.4272V50.4305C189.466 50.7611 189.36 51.0916 189.248 51.4156C189.146 51.723 189.04 52.0271 188.928 52.3312C188.892 52.4337 188.852 52.5362 188.809 52.6386C188.74 52.837 188.664 53.032 188.589 53.2303C188.552 53.3196 188.516 53.4121 188.48 53.5014C188.391 53.7195 188.302 53.9377 188.213 54.1526C188.199 54.1856 188.183 54.222 188.166 54.255C188.14 54.3212 188.11 54.3873 188.084 54.4501C188.015 54.6087 187.942 54.7707 187.873 54.9294C187.823 55.0318 187.777 55.1376 187.731 55.2401C187.711 55.2864 187.688 55.3327 187.668 55.3789C187.546 55.6434 187.421 55.9045 187.289 56.1624C187.141 56.4665 186.989 56.7706 186.827 57.0681C186.686 57.3458 186.537 57.6168 186.382 57.8879C186.115 58.3672 185.835 58.8432 185.544 59.306C185.432 59.4845 185.32 59.663 185.205 59.8415C185.178 59.8844 185.152 59.9274 185.126 59.9671C185.03 60.1224 184.931 60.2712 184.829 60.4232C184.76 60.5257 184.69 60.6282 184.621 60.7273C184.506 60.9058 184.384 61.0777 184.258 61.2463C184.225 61.2992 184.189 61.3488 184.153 61.3984C183.968 61.6562 183.783 61.9074 183.595 62.1587C183.589 62.162 183.589 62.1653 183.585 62.1686C183.579 62.1686 183.579 62.1719 183.576 62.1752C183.493 62.2843 183.411 62.3933 183.325 62.4991C183.213 62.6545 183.091 62.8065 182.969 62.9553C182.771 63.2065 182.563 63.461 182.352 63.709C182.345 63.7156 182.342 63.7222 182.336 63.7255C181.243 65.0123 180.059 66.2187 178.794 67.3352C178.77 67.355 178.754 67.3748 178.731 67.3914C178.553 67.5467 178.375 67.7021 178.19 67.8541C178.114 67.9169 178.038 67.9797 177.962 68.0426C177.837 68.1483 177.708 68.2541 177.583 68.35C177.568 68.3652 177.552 68.3785 177.534 68.3896C177.422 68.4822 177.313 68.5681 177.201 68.6541C177.065 68.7632 176.93 68.8656 176.792 68.9681C176.139 69.4639 175.468 69.9322 174.78 70.373C174.678 70.4424 174.569 70.5118 174.463 70.5779C174.401 70.6176 174.338 70.6573 174.279 70.6903C174.028 70.8457 173.777 70.9977 173.527 71.1432C173.276 71.2919 173.019 71.4341 172.765 71.5729C172.221 71.8704 171.683 72.1811 171.159 72.5051C170.895 72.6703 170.631 72.8356 170.37 73.0042C169.335 73.6785 168.338 74.4003 167.379 75.1693C166.421 75.9389 165.502 76.7564 164.625 77.6188C164.517 77.7245 164.408 77.8336 164.299 77.946C164.081 78.1609 163.87 78.379 163.669 78.5972C163.346 78.9311 163.036 79.2748 162.729 79.6219C161.112 81.4613 159.68 83.4565 158.455 85.5785C157.84 86.6381 157.28 87.7293 156.779 88.8477C156.4 89.684 156.054 90.5402 155.741 91.4062C155.533 91.9847 155.338 92.5687 155.157 93.1582C155.068 93.4524 154.982 93.7499 154.9 94.0474C154.619 95.0556 154.385 96.0737 154.194 97.0951C154.039 97.9149 153.914 98.7358 153.818 99.5577C153.768 99.9709 153.729 100.384 153.693 100.794C153.608 101.801 153.564 102.81 153.562 103.819C153.557 106.848 153.924 109.865 154.656 112.803C154.817 113.451 154.996 114.096 155.193 114.737C155.292 115.058 155.398 115.375 155.503 115.692C155.77 116.486 156.066 117.271 156.39 118.049C156.585 118.515 156.789 118.978 157.004 119.437C158.366 122.358 160.105 125.088 162.175 127.556C162.515 127.962 162.865 128.362 163.227 128.756C163.23 128.756 163.227 128.759 163.227 128.759C164.125 129.74 165.075 130.671 166.073 131.549H166.076C166.476 131.903 166.881 132.245 167.293 132.577C167.297 132.574 167.297 132.577 167.297 132.577C167.712 132.914 168.131 133.238 168.56 133.552C168.774 133.707 168.992 133.863 169.213 134.018C169.645 134.326 170.086 134.622 170.535 134.907H170.539C170.987 135.198 171.442 135.476 171.904 135.74C172.831 136.273 173.781 136.772 174.757 137.225L174.922 137.301L175.09 137.225C176.655 136.519 178.269 135.925 179.918 135.45C180.281 135.344 180.647 135.248 181.01 135.155C181.927 134.927 182.85 134.736 183.78 134.58C182.874 135.036 181.999 135.551 181.161 136.124C180.512 136.563 179.872 137.043 179.229 137.572C179.014 137.747 178.8 137.929 178.586 138.114L178.051 138.577L178.721 138.798C178.965 138.877 179.209 138.957 179.453 139.029C179.786 139.135 180.116 139.231 180.439 139.32C181.145 139.519 181.855 139.694 182.57 139.846C182.744 139.882 182.916 139.919 183.091 139.955C183.43 140.021 183.773 140.087 184.116 140.147C184.131 140.15 184.145 140.152 184.159 140.153C184.516 140.213 184.875 140.269 185.231 140.319C185.894 140.414 186.557 140.49 187.22 140.547C187.292 140.557 187.365 140.56 187.441 140.563C187.602 140.576 187.761 140.59 187.922 140.6C188.279 140.623 188.638 140.639 188.997 140.652C189.024 140.652 189.047 140.656 189.073 140.656C189.255 140.662 189.436 140.669 189.617 140.672C189.617 140.672 189.617 140.676 189.621 140.672C189.802 140.676 189.984 140.679 190.165 140.679H191.168C191.356 140.679 191.544 140.682 191.735 140.682C191.999 140.682 192.266 140.686 192.53 140.689C192.599 140.689 192.671 140.692 192.744 140.692C193.166 140.699 193.588 140.709 194.01 140.719C194.037 140.719 194.063 140.722 194.09 140.722C194.512 140.735 194.934 140.748 195.356 140.768C195.448 140.771 195.541 140.775 195.636 140.781C196.042 140.798 196.448 140.818 196.853 140.841C196.969 140.847 197.087 140.857 197.206 140.864C197.513 140.881 197.823 140.9 198.13 140.924C198.311 140.933 198.489 140.947 198.67 140.963C199.403 141.019 200.131 141.082 200.864 141.155C201.108 141.175 201.352 141.201 201.596 141.228C202.249 141.297 202.904 141.373 203.561 141.456C203.855 141.489 204.148 141.528 204.442 141.568C204.475 141.571 204.508 141.575 204.541 141.581C204.904 141.631 205.263 141.68 205.626 141.733C205.863 141.766 206.101 141.803 206.338 141.839C206.582 141.876 206.826 141.912 207.07 141.955C207.202 141.975 207.334 141.998 207.469 142.021C207.786 142.071 208.106 142.123 208.426 142.183C208.455 142.186 208.483 142.19 208.512 142.196C209.191 142.315 209.874 142.441 210.553 142.576C210.952 142.652 211.348 142.732 211.744 142.814C212.054 142.877 212.364 142.943 212.674 143.009C212.726 143.019 212.779 143.032 212.832 143.046C212.844 143.049 212.856 143.051 212.868 143.052C213.337 143.155 213.808 143.261 214.277 143.373C215.902 143.75 217.526 144.168 219.148 144.629C219.52 144.732 219.893 144.841 220.266 144.95C220.424 144.996 220.579 145.042 220.734 145.089C221.057 145.184 221.377 145.28 221.7 145.383C221.984 145.469 222.271 145.558 222.554 145.65C222.733 145.707 222.911 145.763 223.089 145.822C223.366 145.908 223.643 145.998 223.916 146.093C224.151 146.166 224.382 146.242 224.612 146.325C224.942 146.434 225.275 146.546 225.605 146.665C225.701 146.698 225.8 146.731 225.895 146.768C226.298 146.907 226.7 147.049 227.102 147.197C227.495 147.34 227.887 147.485 228.276 147.63C228.547 147.733 228.817 147.832 229.084 147.938C229.385 148.054 229.685 148.169 229.981 148.288C230.41 148.457 230.842 148.629 231.271 148.804C231.667 148.963 232.059 149.125 232.455 149.293C232.528 149.323 232.603 149.353 232.676 149.386C233.019 149.528 233.362 149.677 233.702 149.825C233.923 149.918 234.14 150.014 234.358 150.11C235.308 150.526 236.256 150.957 237.204 151.402H237.207C237.801 151.683 238.405 151.951 239.011 152.205C239.153 152.265 239.295 152.324 239.44 152.381C239.681 152.483 239.925 152.579 240.169 152.678C240.327 152.741 240.486 152.804 240.647 152.863C240.881 152.956 241.119 153.045 241.356 153.131C241.607 153.224 241.854 153.316 242.108 153.402C242.197 153.435 242.286 153.465 242.379 153.498C242.672 153.597 242.966 153.696 243.262 153.792C243.292 153.802 243.322 153.812 243.355 153.822C243.665 153.921 243.975 154.02 244.288 154.113C244.313 154.122 244.338 154.13 244.364 154.136C244.7 154.238 245.043 154.338 245.383 154.433C245.884 154.572 246.389 154.704 246.894 154.827C246.986 154.85 247.078 154.873 247.171 154.893C247.441 154.959 247.708 155.022 247.979 155.081C248.266 155.147 248.556 155.207 248.843 155.266C249.133 155.326 249.423 155.385 249.71 155.438C249.865 155.468 250.02 155.498 250.172 155.524L250.577 155.594C250.858 155.643 251.138 155.686 251.422 155.732C251.43 155.732 251.437 155.733 251.445 155.736C251.765 155.785 252.081 155.832 252.401 155.871C252.708 155.914 253.015 155.951 253.321 155.987C253.384 155.994 253.45 156 253.516 156.007C253.77 156.037 254.024 156.066 254.278 156.089C254.35 156.096 254.423 156.103 254.495 156.109C254.746 156.132 254.997 156.156 255.247 156.172C255.298 156.179 255.348 156.182 255.399 156.182C255.623 156.202 255.848 156.218 256.072 156.228C256.23 156.241 256.385 156.248 256.543 156.258C256.626 156.261 256.705 156.265 256.787 156.268C257.005 156.281 257.223 156.288 257.444 156.294C257.711 156.304 257.978 156.311 258.242 156.318C258.562 156.324 258.885 156.327 259.205 156.327H259.212C259.525 156.327 259.841 156.324 260.155 156.318H260.273L260.62 156.308C260.798 156.304 260.976 156.298 261.151 156.291C261.487 156.278 261.82 156.261 262.153 156.241C262.285 156.235 262.42 156.225 262.552 156.218C262.612 156.215 262.674 156.208 262.734 156.205C262.942 156.192 263.146 156.179 263.354 156.162C263.568 156.146 263.786 156.126 264 156.103C264.277 156.076 264.554 156.046 264.831 156.017C265.049 155.994 265.267 155.967 265.481 155.941C265.51 155.938 265.539 155.934 265.567 155.927C265.775 155.904 265.982 155.878 266.187 155.848C266.431 155.815 266.672 155.779 266.912 155.742C266.939 155.739 266.962 155.736 266.988 155.732C267.404 155.666 267.823 155.6 268.241 155.524C268.68 155.445 269.119 155.359 269.554 155.27C269.716 155.237 269.874 155.2 270.036 155.167C270.125 155.147 270.217 155.131 270.303 155.111C270.438 155.081 270.57 155.051 270.702 155.018C270.725 155.015 270.751 155.009 270.774 155.005C270.959 154.966 271.14 154.919 271.325 154.873C271.694 154.784 272.057 154.691 272.42 154.592C272.582 154.552 272.743 154.509 272.898 154.466C272.944 154.453 272.991 154.44 273.033 154.427C273.703 154.238 274.367 154.039 275.025 153.828C275.316 153.736 275.603 153.64 275.889 153.538C276.506 153.326 277.117 153.103 277.723 152.87C277.885 152.81 278.046 152.744 278.208 152.681C278.445 152.586 278.683 152.49 278.917 152.394C279.128 152.305 279.339 152.215 279.554 152.123C279.659 152.08 279.765 152.034 279.87 151.987C280.187 151.848 280.503 151.706 280.817 151.564C281.028 151.465 281.235 151.369 281.443 151.27C281.773 151.111 282.1 150.949 282.426 150.787C282.508 150.744 282.588 150.701 282.667 150.662C282.875 150.556 283.082 150.447 283.293 150.341C283.627 150.163 283.96 149.984 284.289 149.799C284.402 149.739 284.51 149.677 284.623 149.614C284.985 149.409 285.345 149.201 285.701 148.989C286.489 148.516 287.266 148.023 288.033 147.508C288.224 147.383 288.415 147.25 288.603 147.121C288.959 146.877 289.309 146.626 289.659 146.374C289.695 146.348 289.728 146.322 289.764 146.298C289.939 146.169 290.114 146.041 290.288 145.908C290.651 145.634 291.011 145.356 291.37 145.072C291.377 145.069 291.387 145.059 291.397 145.052C291.558 144.923 291.72 144.794 291.878 144.665C292.369 144.265 292.854 143.859 293.329 143.439C293.563 143.237 293.794 143.029 294.022 142.821C294.193 142.666 294.365 142.51 294.533 142.352C294.873 142.031 295.206 141.714 295.536 141.39C295.7 141.231 295.862 141.066 296.027 140.9C296.189 140.735 296.353 140.57 296.515 140.401C296.571 140.345 296.627 140.286 296.683 140.226C296.848 140.051 297.013 139.872 297.178 139.697C297.32 139.545 297.458 139.386 297.6 139.228C297.838 138.963 298.078 138.699 298.312 138.431C298.325 138.416 298.338 138.402 298.352 138.388C298.365 138.372 298.378 138.358 298.388 138.345H298.385C303.179 132.789 306.741 126.276 308.835 119.237C310.929 112.197 311.508 104.793 310.533 97.5125C309.558 90.2322 307.051 83.2426 303.179 77.006C299.307 70.7694 294.158 65.4281 288.072 61.3356Z" fill="#F0748D"/>
<g opacity="0.15">
<path d="M221.318 22.3274C221.976 24.6943 222.965 26.9558 224.256 29.0442C222.094 27.1831 220.163 25.0691 218.503 22.7474C219.436 22.5707 220.374 22.4307 221.318 22.3274Z" fill="black"/>
<path d="M189.137 58.9321C186.696 60.2674 184.414 61.8753 182.334 63.7253C185.846 59.5629 188.413 54.6847 189.857 49.4289C189.874 49.3658 189.892 49.3022 189.909 49.239L189.958 49.0601C191.692 42.7873 195.058 37.0889 199.711 32.5477L200.077 32.1904L200.335 32.6319C201.761 35.0627 203.468 37.3168 205.42 39.3477C202.429 47.8079 196.608 54.8491 189.137 58.9321Z" fill="black"/>
<path d="M206.329 36.4163L206.28 36.5952C206.263 36.6584 206.246 36.722 206.228 36.7851C206.132 37.1329 206.029 37.4782 205.924 37.8219C204.88 35.1134 204.148 32.2948 203.74 29.4204L203.702 29.1765L203.902 29.0332C206.411 27.2258 209.137 25.7406 212.015 24.6125C209.431 28.1748 207.505 32.1726 206.329 36.4163Z" fill="black"/>
<path d="M172.766 71.576C174.926 70.3908 176.948 68.9683 178.794 67.3347C175.106 71.6381 172.463 76.7389 171.071 82.2375C169.679 87.7361 169.576 93.4831 170.771 99.0281C171.966 104.573 174.425 109.766 177.957 114.199C181.488 118.631 185.996 122.185 191.127 124.579L191.294 124.657L191.46 124.581C194.231 123.326 197.153 122.437 200.153 121.936C198.281 122.891 196.535 124.079 194.958 125.47L194.425 125.933L195.094 126.154C195.672 126.346 196.25 126.522 196.811 126.678C200.112 127.6 203.524 128.057 206.95 128.038C222.517 127.938 238.205 131.545 253.578 138.759C256.214 139.994 258.949 141.007 261.753 141.787C273.973 145.198 287.02 143.971 298.394 138.342C291.981 145.776 283.596 151.233 274.212 154.081C264.829 156.929 254.831 157.051 245.381 154.431C242.577 153.651 239.843 152.638 237.206 151.403C221.834 144.189 206.146 140.582 190.579 140.682C187.153 140.701 183.74 140.243 180.44 139.322C179.878 139.166 179.3 138.989 178.722 138.798L178.053 138.576L178.587 138.114C180.164 136.723 181.909 135.535 183.781 134.579C180.782 135.081 177.86 135.97 175.088 137.225L174.922 137.3L174.755 137.223C168.594 134.349 163.35 129.815 159.61 124.127C155.87 118.44 153.78 111.823 153.574 105.014C153.368 98.2055 155.053 91.4733 158.442 85.5689C161.831 79.6644 166.79 74.8199 172.766 71.576Z" fill="black"/>
</g>
</g>
<defs>
<clipPath id="clip0_703_4816">
<rect width="311" height="263" fill="white" transform="translate(0 0.5)"/>
</clipPath>
</defs>
</svg>
