<svg width="311" height="207" viewBox="0 0 311 207" fill="none" xmlns="http://www.w3.org/2000/svg">
<g clip-path="url(#clip0_60_1089)">
<g opacity="0.3">
<path d="M138.585 128.157C141.05 130.402 142.886 133.187 144.311 136.209V136.213C144.447 136.497 144.578 136.782 144.703 137.07V137.073L144.707 137.077L144.703 137.081V137.084L144.704 137.085L144.706 137.085L144.706 137.087L144.707 137.088V137.092L144.703 137.095C144.707 137.099 144.707 137.099 144.703 137.103L144.707 137.106L144.703 137.11V137.114C144.707 137.117 144.707 137.117 144.703 137.121V137.125C145.582 139.147 146.329 141.225 146.938 143.344C150.491 155.804 151.178 168.9 148.949 181.661C148.905 181.905 148.861 182.146 148.817 182.39H119.101C118.998 182.149 118.896 181.905 118.797 181.661C118.134 180.068 117.524 178.455 116.969 176.824C116.163 174.476 115.471 172.095 114.895 169.682C112.98 161.809 112.32 153.685 112.939 145.608C113.048 144.138 113.207 142.673 113.415 141.211C113.844 138.153 114.591 134.945 115.888 132.123V132.119C116.082 131.707 116.284 131.303 116.5 130.902C117.866 128.394 119.746 126.279 122.321 124.989C123.246 124.525 124.232 124.192 125.249 123.997H125.256C125.608 123.924 125.963 123.873 126.315 123.833C130.653 123.374 135.295 125.164 138.585 128.157Z" fill="#F0748D"/>
<path d="M126.315 123.833C126.324 123.869 126.329 123.906 126.329 123.943C126.604 130.187 127.012 136.423 127.553 142.651V142.662C127.557 142.687 127.557 142.709 127.56 142.735C128.117 149.129 128.815 155.51 129.652 161.877C129.689 162.147 129.726 162.413 129.759 162.679C130.349 167.083 131.003 171.478 131.722 175.865C132.041 177.801 132.373 179.733 132.719 181.661C132.763 181.905 132.803 182.146 132.851 182.39H131.741C131.693 182.146 131.653 181.902 131.609 181.661C130.466 175.238 129.468 168.793 128.616 162.326C128.396 160.7 128.188 159.071 127.993 157.441C127.421 152.731 126.928 148.014 126.513 143.289C126.483 142.943 126.454 142.6 126.425 142.254C125.908 136.206 125.516 130.15 125.249 124.085C125.247 124.055 125.25 124.026 125.256 123.997C125.307 123.414 126.187 123.29 126.315 123.833Z" fill="white"/>
<path d="M143.624 136.801C143.681 144.581 140.366 152.245 134.878 157.747C133.324 159.3 131.594 160.668 129.724 161.825C129.126 162.196 129.785 163.063 130.378 162.695C137.266 158.422 142.172 151.304 143.976 143.455C144.484 141.227 144.729 138.947 144.707 136.662C144.702 135.964 143.618 136.109 143.624 136.801Z" fill="white"/>
<path d="M114.895 169.682C114.998 169.715 115.09 169.775 115.163 169.855C115.236 169.935 115.286 170.032 115.309 170.138C115.778 171.921 116.455 173.643 117.324 175.27C118.586 177.647 120.225 179.805 122.178 181.661C122.277 181.759 122.376 181.854 122.479 181.945C122.64 182.099 122.805 182.244 122.974 182.39H121.376C121.127 182.157 120.882 181.913 120.647 181.661C119.237 180.196 118.003 178.572 116.969 176.824C116.163 174.476 115.471 172.095 114.895 169.682Z" fill="white"/>
<path d="M115.599 131.478C117.737 136.427 121.406 140.567 126.072 143.297C126.206 143.353 126.356 143.353 126.49 143.299C126.624 143.245 126.731 143.141 126.788 143.008C126.841 142.875 126.84 142.727 126.786 142.594C126.732 142.462 126.629 142.355 126.498 142.296C122.09 139.69 118.629 135.759 116.612 131.07C116.335 130.426 115.322 130.833 115.599 131.478Z" fill="white"/>
<path d="M84.4826 116.561C87.714 117.406 90.6413 119.028 93.3121 121.044L93.3158 121.048C93.5649 121.234 93.8177 121.427 94.0595 121.628H94.0632C95.7961 123.027 97.4349 124.539 98.9689 126.152C104.523 131.95 109.226 138.5 112.939 145.608C118.808 156.788 122.277 169.285 122.475 181.661C122.479 181.756 122.479 181.851 122.479 181.945C122.483 182.095 122.483 182.244 122.483 182.39H105.831C105.377 182.153 104.922 181.909 104.472 181.661C98.6555 178.445 93.2628 174.523 88.4174 169.985C88.2965 169.875 88.1756 169.762 88.0584 169.649C86.2485 167.943 84.5253 166.155 82.8889 164.283C76.5273 157.084 71.5755 148.764 68.289 139.753C67.2411 136.847 66.4022 133.661 66.2373 130.563C66.2116 130.107 66.2006 129.655 66.2043 129.199C66.2446 126.345 66.9224 123.607 68.6004 121.27C69.2044 120.434 69.9206 119.683 70.729 119.039C71.0111 118.813 71.3005 118.606 71.5973 118.405H71.601C75.228 115.992 80.1704 115.43 84.4826 116.561Z" fill="#F0748D"/>
<path d="M71.5972 118.405H71.6009C71.6246 118.432 71.6454 118.461 71.6632 118.493C74.8176 123.888 78.0869 129.215 81.4709 134.474C81.4746 134.482 81.4783 134.485 81.4819 134.492C81.4967 134.514 81.5101 134.535 81.5222 134.558C85.0028 139.964 88.6005 145.294 92.3155 150.547C92.4694 150.766 92.627 150.988 92.7845 151.21C95.3601 154.838 97.9906 158.427 100.676 161.979C105.754 168.687 111.02 175.248 116.474 181.661C116.679 181.905 116.888 182.146 117.097 182.39H115.672C115.463 182.149 115.254 181.905 115.049 181.661C112.964 179.204 110.909 176.725 108.883 174.224C108.278 173.477 107.674 172.726 107.077 171.975C101.739 165.304 96.5997 158.483 91.6597 151.513V151.51C90.6889 150.139 89.7265 148.766 88.7727 147.39C86.0689 143.482 83.4298 139.53 80.8554 135.535C80.6686 135.247 80.4817 134.955 80.2949 134.664C77.0122 129.549 73.837 124.368 70.7692 119.12C70.7536 119.094 70.7401 119.067 70.7289 119.039C70.5091 118.493 71.2345 117.979 71.5972 118.405Z" fill="white"/>
<path d="M92.98 121.887C96.6627 128.75 97.3048 137.069 95.0143 144.478C94.3628 146.572 93.4696 148.583 92.3528 150.471C91.9966 151.076 92.9854 151.54 93.3386 150.94C97.4433 143.972 98.4652 135.401 96.399 127.617C95.8079 125.408 94.9607 123.276 93.8743 121.263C93.5441 120.647 92.652 121.276 92.98 121.887Z" fill="white"/>
<path d="M106.385 173.232C104.467 173.572 102.516 173.689 100.571 173.58C96.135 173.334 91.8325 171.983 88.059 169.65C86.2497 167.941 84.5263 166.152 82.8887 164.282C82.9958 164.265 83.1056 164.275 83.2075 164.312C83.3093 164.35 83.3995 164.413 83.4693 164.496C84.7176 165.857 86.12 167.069 87.6487 168.109C93.0967 171.823 99.7874 173.273 106.294 172.149C106.368 172.131 106.445 172.132 106.519 172.152C106.592 172.172 106.659 172.21 106.713 172.263C106.781 172.341 106.828 172.436 106.848 172.537C106.868 172.639 106.861 172.744 106.828 172.842C106.795 172.94 106.737 173.027 106.659 173.096C106.581 173.164 106.487 173.211 106.385 173.232Z" fill="white"/>
<path d="M65.6776 130.126C69.8807 133.52 75.0629 135.491 80.4698 135.752C80.6138 135.739 80.747 135.67 80.8404 135.561C80.9339 135.451 80.98 135.309 80.9688 135.165C80.9535 135.023 80.8837 134.892 80.7739 134.799C80.6641 134.707 80.5227 134.66 80.3791 134.669C75.2597 134.398 70.3588 132.517 66.3833 129.296C65.8382 128.854 65.1314 129.683 65.6776 130.126Z" fill="white"/>
<path d="M77.7158 167.878H77.7195C78.0346 167.903 78.346 167.932 78.6574 167.965H78.6647C80.8814 168.219 83.0793 168.614 85.2447 169.15C86.3072 169.405 87.3624 169.682 88.4175 169.985C88.5531 170.021 88.6886 170.061 88.8205 170.101H88.8242C91.893 170.992 94.9082 172.055 97.8553 173.287C103.281 175.554 108.463 178.36 113.323 181.661C113.679 181.898 114.034 182.142 114.386 182.39H57.0121C56.9975 182.146 56.9975 181.905 57.0048 181.661C57.0048 181.544 57.0085 181.428 57.0158 181.311C57.0701 180.282 57.2687 179.266 57.6057 178.293C57.7193 177.95 57.8475 177.618 57.9904 177.29C59.7416 173.313 63.6032 170.189 67.8494 168.833C71.0295 167.816 74.3745 167.611 77.7158 167.878Z" fill="#F0748D"/>
<path d="M57.9903 177.29C58.0262 177.299 58.0607 177.312 58.0929 177.33C60.9762 178.807 63.8742 180.25 66.7869 181.661C67.2888 181.905 67.7944 182.149 68.2963 182.39H65.805C65.3067 182.149 64.8084 181.906 64.3102 181.661C62.09 180.571 59.8795 179.463 57.6789 178.336C57.6532 178.324 57.6286 178.309 57.6056 178.293C57.122 177.957 57.4517 177.126 57.9903 177.29Z" fill="white"/>
<path d="M78.3055 167.761C78.4227 167.826 78.54 167.892 78.6572 167.965C80.532 169.036 82.2817 170.31 83.8743 171.764C86.9196 174.557 89.381 177.92 91.1175 181.661C91.2347 181.902 91.3447 182.146 91.4472 182.39H90.2565C90.1466 182.146 90.033 181.902 89.9158 181.661C87.3198 176.246 83.1249 171.747 77.8915 168.767C77.8168 168.724 77.7522 168.666 77.7022 168.596C77.6521 168.526 77.6178 168.446 77.6015 168.361C77.5851 168.277 77.5872 168.19 77.6075 168.107C77.6279 168.023 77.666 167.945 77.7193 167.878C77.7501 167.832 77.7896 167.792 77.8358 167.761C77.8819 167.731 77.9337 167.709 77.9881 167.698C78.0425 167.687 78.0986 167.687 78.1531 167.698C78.2075 167.709 78.2593 167.73 78.3055 167.761Z" fill="white"/>
</g>
<path d="M278.339 12.0903V39.9345H277.61V39.6378H33.7291V39.9345H33V12.0903C33.0031 8.88469 34.2716 5.81131 36.527 3.54463C38.7823 1.27795 41.8404 0.00314654 45.03 0H266.309C269.499 0.00314654 272.557 1.27795 274.812 3.54463C277.067 5.81131 278.336 8.88469 278.339 12.0903Z" fill="#F0748D"/>
<path d="M266.309 0H45.03C41.8404 0.00314654 38.7823 1.27795 36.527 3.54463C34.2716 5.81131 33.0031 8.88469 33 12.0903V171.096C33.0031 174.301 34.2716 177.375 36.527 179.641C38.7823 181.908 41.8404 183.183 45.03 183.186H266.309C269.499 183.183 272.557 181.908 274.812 179.641C277.067 177.375 278.336 174.301 278.339 171.096V12.0903C278.336 8.88469 277.067 5.81131 274.812 3.54463C272.557 1.27795 269.499 0.00314654 266.309 0ZM277.61 171.096C277.606 174.107 276.414 176.993 274.296 179.122C272.177 181.251 269.305 182.449 266.309 182.453H45.03C42.034 182.449 39.1618 181.251 37.0433 179.122C34.9248 176.993 33.7329 174.107 33.7291 171.096V12.0903C33.7329 9.07924 34.9248 6.19265 37.0433 4.06353C39.1618 1.93441 42.034 0.736585 45.03 0.732743H266.309C269.305 0.736586 272.177 1.93441 274.296 4.06353C276.414 6.19265 277.606 9.07924 277.61 12.0903V171.096Z" fill="#3F3D56"/>
<path d="M82.5782 27.2948C86.6048 27.2948 89.8691 24.0142 89.8691 19.9673C89.8691 15.9205 86.6048 12.6399 82.5782 12.6399C78.5515 12.6399 75.2873 15.9205 75.2873 19.9673C75.2873 24.0142 78.5515 27.2948 82.5782 27.2948Z" fill="white"/>
<path d="M228.761 27.2948C232.788 27.2948 236.052 24.0142 236.052 19.9673C236.052 15.9205 232.788 12.6399 228.761 12.6399C224.734 12.6399 221.47 15.9205 221.47 19.9673C221.47 24.0142 224.734 27.2948 228.761 27.2948Z" fill="white"/>
<path d="M103.643 101.669H60.271C58.4336 101.667 56.672 100.932 55.3727 99.6264C54.0734 98.3206 53.3426 96.5502 53.3405 94.7035V74.1015C53.3426 72.2548 54.0734 70.4844 55.3727 69.1786C56.672 67.8728 58.4336 67.1383 60.271 67.1362H103.643C105.481 67.1383 107.242 67.8728 108.542 69.1786C109.841 70.4844 110.572 72.2548 110.574 74.1015V94.7035C110.572 96.5502 109.841 98.3206 108.542 99.6264C107.242 100.932 105.481 101.667 103.643 101.669Z" fill="#F0748D"/>
<path d="M177.427 101.669H134.054C132.217 101.667 130.455 100.932 129.156 99.6264C127.857 98.3206 127.126 96.5502 127.124 94.7035V74.1015C127.126 72.2548 127.857 70.4844 129.156 69.1786C130.455 67.8728 132.217 67.1383 134.054 67.1362H177.427C179.264 67.1383 181.026 67.8728 182.325 69.1786C183.624 70.4844 184.355 72.2548 184.357 74.1015V94.7035C184.355 96.5502 183.624 98.3206 182.325 99.6264C181.026 100.932 179.264 101.667 177.427 101.669Z" fill="#F0748D"/>
<path d="M177.426 154.399H134.055C132.295 154.397 130.607 153.694 129.362 152.443C128.117 151.191 127.416 149.494 127.414 147.723V127.121C127.416 125.35 128.117 123.653 129.362 122.402C130.607 121.15 132.295 120.447 134.055 120.445H177.426C179.186 120.447 180.874 121.15 182.119 122.402C183.364 123.653 184.065 125.35 184.067 127.121V147.723C184.065 149.494 183.364 151.191 182.119 152.443C180.874 153.694 179.186 154.397 177.426 154.399Z" fill="#EFF0F0" fill-opacity="0.7" stroke="#9097A0"/>
<path d="M103.5 154.399H60.1294C58.3695 154.397 56.6817 153.694 55.4365 152.443C54.1913 151.191 53.4903 149.494 53.4883 147.723V127.121C53.4903 125.35 54.1913 123.653 55.4365 122.402C56.6816 121.15 58.3693 120.447 60.1291 120.445H103.501C105.261 120.447 106.948 121.15 108.193 122.402C109.439 123.653 110.14 125.35 110.142 127.121V147.723C110.14 149.494 109.439 151.191 108.193 152.443C106.948 153.694 105.26 154.397 103.5 154.399Z" fill="#EFF0F0" fill-opacity="0.7" stroke="#9097A0"/>
<path d="M251.21 154.399H207.839C206.079 154.397 204.391 153.694 203.146 152.443C201.9 151.191 201.2 149.494 201.197 147.723V127.121C201.2 125.35 201.9 123.653 203.146 122.402C204.391 121.15 206.078 120.447 207.838 120.445H251.21C252.97 120.447 254.657 121.15 255.903 122.402C257.148 123.653 257.849 125.35 257.851 127.121V147.723C257.849 149.494 257.148 151.191 255.903 152.443C254.657 153.694 252.97 154.397 251.21 154.399Z" fill="#EFF0F0" fill-opacity="0.7" stroke="#9097A0"/>
<path d="M251.21 101.21H207.839C206.079 101.208 204.391 100.505 203.146 99.2533C201.9 98.0019 201.2 96.3046 201.197 94.5337V73.932C201.2 72.1611 201.9 70.4638 203.146 69.2123C204.391 67.9609 206.078 67.2574 207.838 67.2554H251.21C252.97 67.2574 254.657 67.9609 255.903 69.2123C257.148 70.4638 257.849 72.1612 257.851 73.9323V94.5334C257.849 96.3044 257.148 98.0018 255.903 99.2533C254.657 100.505 252.97 101.208 251.21 101.21Z" fill="#EFF0F0" fill-opacity="0.7" stroke="#9097A0"/>
<path d="M81.9572 96.2224C88.4525 96.2224 93.7181 90.9305 93.7181 84.4026C93.7181 77.8747 88.4525 72.5828 81.9572 72.5828C75.4618 72.5828 70.1963 77.8747 70.1963 84.4026C70.1963 90.9305 75.4618 96.2224 81.9572 96.2224Z" fill="white"/>
<path d="M80.7914 88.9115C80.5268 88.912 80.2692 88.826 80.0575 88.6665L80.0444 88.6566L77.2805 86.5299C77.1523 86.4314 77.0447 86.3084 76.9638 86.1681C76.8829 86.0278 76.8304 85.8728 76.8091 85.7121C76.7878 85.5513 76.7983 85.3879 76.8399 85.2313C76.8816 85.0746 76.9535 84.9277 77.0516 84.799C77.1498 84.6702 77.2722 84.5622 77.4119 84.4811C77.5516 84.3999 77.7058 84.3472 77.8658 84.326C78.0258 84.3048 78.1883 84.3155 78.3442 84.3575C78.5 84.3995 78.6461 84.4719 78.7741 84.5707L80.5644 85.9503L84.795 80.4053C84.8931 80.2767 85.0155 80.1688 85.1551 80.0877C85.2947 80.0066 85.4489 79.9539 85.6087 79.9327C85.7686 79.9115 85.9311 79.9222 86.0868 79.9641C86.2426 80.006 86.3886 80.0783 86.5166 80.1769L86.4903 80.2128L86.5173 80.1774C86.7754 80.3768 86.9443 80.6709 86.9869 80.9953C87.0295 81.3197 86.9423 81.6478 86.7445 81.9077L81.7683 88.4299C81.6532 88.5802 81.5052 88.7018 81.3358 88.7853C81.1664 88.8689 80.9801 88.912 80.7914 88.9115Z" fill="#F0748D"/>
<path d="M155.951 96.0527C162.446 96.0527 167.712 90.7608 167.712 84.2329C167.712 77.705 162.446 72.4131 155.951 72.4131C149.455 72.4131 144.19 77.705 144.19 84.2329C144.19 90.7608 149.455 96.0527 155.951 96.0527Z" fill="white"/>
<path d="M154.785 88.7418C154.52 88.7423 154.263 88.6563 154.051 88.4968L154.038 88.4869L151.274 86.3602C151.015 86.1611 150.846 85.867 150.803 85.5425C150.761 85.2181 150.848 84.8898 151.046 84.63C151.244 84.3702 151.537 84.2001 151.86 84.1572C152.183 84.1142 152.509 84.2019 152.768 84.401L154.558 85.7806L158.788 80.2356C158.887 80.107 159.009 79.9991 159.149 79.918C159.288 79.8369 159.442 79.7843 159.602 79.7631C159.762 79.7418 159.925 79.7525 160.08 79.7944C160.236 79.8363 160.382 79.9086 160.51 80.0072L160.484 80.0431L160.511 80.0077C160.769 80.2071 160.938 80.5013 160.98 80.8256C161.023 81.15 160.936 81.4781 160.738 81.738L155.762 88.2602C155.647 88.4105 155.499 88.5322 155.329 88.6157C155.16 88.6992 154.974 88.7424 154.785 88.7418Z" fill="#F0748D"/>
<path d="M278.444 207H139.552C139.455 207 139.363 206.961 139.294 206.893C139.226 206.824 139.188 206.731 139.188 206.634C139.188 206.537 139.226 206.443 139.294 206.375C139.363 206.306 139.455 206.267 139.552 206.267H278.444C278.541 206.267 278.633 206.306 278.702 206.375C278.77 206.443 278.808 206.537 278.808 206.634C278.808 206.731 278.77 206.824 278.702 206.893C278.633 206.961 278.541 207 278.444 207Z" fill="#3F3D56"/>
<path d="M238.569 130.86C238.352 130.624 238.189 130.343 238.092 130.037C237.996 129.73 237.967 129.407 238.009 129.089C238.05 128.77 238.162 128.465 238.334 128.194C238.507 127.923 238.736 127.694 239.007 127.521L237.207 119.928L241.016 121.32L242.142 128.317C242.401 128.791 242.477 129.344 242.356 129.871C242.235 130.398 241.925 130.862 241.485 131.175C241.045 131.489 240.505 131.63 239.967 131.572C239.43 131.514 238.932 131.26 238.569 130.86Z" fill="#9E616A"/>
<path d="M229.409 99.0396L230.938 102.97C230.938 102.97 230.283 106.901 231.375 107.775C232.467 108.648 232.03 108.648 232.03 109.303C232.068 109.773 232.204 110.23 232.429 110.644C232.655 111.058 232.966 111.42 233.34 111.706C234.214 112.361 238.145 125.682 238.145 125.682H242.076C241.949 124.667 241.949 123.64 242.076 122.625C242.294 121.096 241.42 117.165 240.984 116.51C240.547 115.855 240.984 114.981 240.984 113.671C240.984 112.361 240.11 111.706 240.11 109.522C240.11 107.338 237.49 90.3044 237.708 88.3389C237.926 86.3735 235.524 84.6265 235.524 84.6265H233.34L229.409 99.0396Z" fill="#F0748D"/>
<path d="M215.228 201.437H212.202L210.762 189.765H215.228V201.437Z" fill="#9E616A"/>
<path d="M216.215 199.365L211.381 199.076V201.147L206.784 204.322C206.557 204.479 206.386 204.704 206.296 204.965C206.206 205.225 206.202 205.508 206.284 205.772C206.366 206.035 206.531 206.265 206.753 206.429C206.975 206.592 207.244 206.68 207.52 206.68H213.275L214.267 204.631L214.655 206.68H216.825L216.215 199.365Z" fill="#2F2E41"/>
<path d="M253.154 198.866L250.342 199.985L244.688 189.674L248.837 188.022L253.154 198.866Z" fill="#9E616A"/>
<path d="M253.305 196.576L248.707 198.096L249.473 200.02L246.376 204.669C246.223 204.899 246.148 205.171 246.161 205.447C246.173 205.722 246.274 205.987 246.448 206.201C246.622 206.415 246.859 206.569 247.126 206.638C247.393 206.708 247.675 206.691 247.932 206.588L253.279 204.46L253.443 202.189L254.561 203.95L256.577 203.147L253.305 196.576Z" fill="#2F2E41"/>
<path d="M221.327 166.706L226.373 143.158L234.253 169.322L246.729 194.132L246.796 194.264L250.748 192.136C251.306 182.062 249.981 172.622 245.136 164.367L242.841 141.71C242.771 140.936 241.06 122.761 235.641 119.537L234.054 115.919L218.269 112.02L218.211 112.085C216.694 113.791 215.691 115.893 215.32 118.146L210.603 146.719L210.601 146.735L211.865 166.668L210.136 196.076H216.395C220.267 188.789 221.911 179 221.327 166.706Z" fill="#2F2E41"/>
<path d="M206.402 88.2835L196.833 84.9358C196.536 84.8332 196.211 84.8523 195.928 84.989C195.646 85.1257 195.429 85.3689 195.325 85.6652C195.222 85.9615 195.24 86.2868 195.375 86.5699C195.511 86.8529 195.753 87.0706 196.049 87.1753L205.618 90.523C205.915 90.6256 206.24 90.6065 206.523 90.4698C206.805 90.3331 207.022 90.0899 207.126 89.7936C207.23 89.4973 207.212 89.172 207.076 88.889C206.94 88.6059 206.698 88.3882 206.402 88.2835Z" fill="#2F2E41"/>
<path d="M196.12 86.8705C195.933 87.5185 195.125 87.8332 194.473 87.6605C193.828 87.4395 193.292 86.9806 192.973 86.3775C192.623 85.8011 192.382 85.1626 192.022 84.5925C191.33 83.5091 190.248 82.7333 189 82.4258C190.112 82.2793 191.242 82.4933 192.224 83.0364C192.569 83.2734 192.95 83.4532 193.353 83.5687C193.783 83.5915 194.213 83.5858 194.642 83.5518C195.021 83.5711 195.386 83.6983 195.695 83.9183C196.004 84.1384 196.243 84.4421 196.385 84.7937C196.527 85.1454 196.566 85.5303 196.496 85.9031C196.426 86.2759 196.252 86.621 195.993 86.8978" fill="#6C63FF"/>
<path d="M197.372 87.9012C197.412 88.2197 197.521 88.5255 197.693 88.7971C197.864 89.0687 198.092 89.2994 198.363 89.473C198.633 89.6467 198.937 89.759 199.256 89.802C199.574 89.8451 199.897 89.8179 200.204 89.7223L204.841 95.9992L206.237 92.1919L201.62 86.8151C201.425 86.3108 201.052 85.8955 200.572 85.6478C200.092 85.4001 199.537 85.3373 199.013 85.4712C198.49 85.605 198.033 85.9264 197.731 86.3742C197.428 86.8221 197.3 87.3654 197.372 87.9012Z" fill="#9E616A"/>
<path d="M238.706 123.585C239.131 123.585 239.373 123.502 239.466 123.323C239.603 123.06 239.365 122.718 239.09 122.321C238.897 122.044 238.336 121.494 238.612 121.46C242.799 120.949 240.789 95.1328 238.975 91.7203C238.606 91.027 238.996 89.9632 238.581 88.7865C237.447 85.5731 235.898 84.5855 232.814 82.6183C232.564 82.4586 232.303 82.2918 232.032 82.1178C231.682 81.8925 231.701 81.1455 231.722 80.3544C231.745 79.4752 231.768 78.566 231.338 77.9977L231.31 77.9606L231.265 77.9501C230.223 77.7093 226.719 77.2622 224.644 77.9534L224.615 77.9631L224.594 77.9844C224.101 78.4773 224.056 79.4321 224.012 80.3554C223.977 81.1135 223.943 81.8292 223.664 82.1401C221.532 84.5166 219.114 84.4703 219.09 84.4698L218.97 84.4663L218.958 84.5855C217.463 87.4306 218.633 97.997 217.594 104.561C216.539 111.229 207.524 116.905 215.243 117.913C215.226 117.938 215.217 117.968 215.216 117.999C215.215 118.029 215.223 118.059 215.238 118.086C215.704 118.957 237.104 123.585 238.706 123.585Z" fill="#F0748D"/>
<path d="M214.271 104.165L218.439 101.82C225.708 96.7822 227.498 92.7812 227.722 90.3108C227.961 87.675 226.557 86.2332 226.497 86.1734L226.464 86.1496L222.707 84.2297C222.229 83.9859 221.706 83.8463 221.17 83.8202C220.635 83.7941 220.1 83.882 219.601 84.0783C219.103 84.2745 218.651 84.5745 218.277 84.9584C217.903 85.3423 217.615 85.8014 217.432 86.3051L213.956 95.864L210.103 93.0218L208.459 92.3742L207.133 90.601L203.491 88.4768L200.786 90.9119L204.188 97.7168L206.079 98.1982L206.48 99.2309L206.515 99.2537L214.271 104.165Z" fill="#F0748D"/>
<path d="M221.731 73.5823C222.505 74.997 223.737 76.106 225.226 76.7268C226.714 77.3475 228.369 77.4429 229.919 76.9973C231.468 76.5517 232.82 75.5916 233.751 74.2752C234.682 72.9587 235.137 71.3644 235.041 69.7549C234.945 68.1453 234.304 66.6164 233.223 65.42C232.142 64.2235 230.686 63.4309 229.094 63.1727C227.502 62.9144 225.87 63.2059 224.466 63.9991C223.063 64.7924 221.971 66.0401 221.371 67.5367C221.338 67.6179 221.309 67.6991 221.28 67.7836C220.941 68.7271 220.805 69.7318 220.883 70.7314C220.961 71.731 221.25 72.7027 221.731 73.5823Z" fill="#9E616A"/>
<path d="M220.711 67.7836C221.017 66.9293 220.883 67.3743 221.192 66.5232C221.093 66.9425 221.123 67.3821 221.28 67.7836H229.729V62.8718C227.254 61.8908 224.834 61.0559 223.372 62.8718C222.069 62.8719 220.82 63.3894 219.899 64.3105C218.978 65.2316 218.46 66.4809 218.46 67.7836H220.711Z" fill="#2F2E41"/>
<path d="M223.706 81.4373C223.713 81.3464 223.723 81.2522 223.736 81.1612C223.849 80.4939 224.033 79.8405 224.285 79.2121C224.528 78.5266 224.775 77.838 225.022 77.1525C224.704 78.3967 224.801 79.7107 225.298 80.8948C226.724 79.7838 225.824 77.2435 227.689 77.2435C232.172 77.2435 236.785 73.6084 236.785 69.1221C236.785 64.6391 234.862 61.2866 230.379 61.2866C225.893 61.2866 222.254 63.3397 222.167 67.8227C227.689 69.1221 222.664 80.9826 223.706 81.4373Z" fill="#2F2E41"/>
<path d="M236.225 68.4349C233.354 68.4349 231.027 66.1078 231.027 63.2372C231.027 60.3666 233.354 58.0396 236.225 58.0396C239.095 58.0396 241.423 60.3666 241.423 63.2372C241.423 66.1078 239.095 68.4349 236.225 68.4349Z" fill="#2F2E41"/>
<path d="M234.482 63.4391C235.372 64.4754 236.766 64.8782 238.023 65.4174C240.242 66.3908 242.19 67.8907 243.698 69.7871C245.206 71.6835 246.228 73.9191 246.677 76.3001C247.025 78.2395 246.979 80.2471 247.528 82.1377C248.074 84.0284 249.425 85.8833 251.365 86.2114C252.677 86.4355 253.993 85.9288 255.227 85.4285C255.906 85.1556 256.585 84.8816 257.264 84.6066C256.556 82.8296 255.849 81.0527 255.143 79.2757C256.277 80.9527 257.597 82.4968 259.077 83.8789C261.51 82.8979 263.945 81.9168 266.383 80.9357C260.386 80.9585 261.409 75.1371 260.068 69.2962C259.33 66.0866 253.051 63.9134 251.819 60.8597C251.154 59.2035 250.028 57.7725 248.575 56.7361C247.122 55.6997 245.402 55.1013 243.62 55.0118C241.837 54.9222 240.066 55.3453 238.516 56.2308C236.967 57.1164 235.703 58.4273 234.875 60.0086C233.644 60.4992 233.608 62.4158 234.482 63.4391Z" fill="#2F2E41"/>
</g>
<defs>
<clipPath id="clip0_60_1089">
<rect width="311" height="207" fill="white"/>
</clipPath>
</defs>
</svg>
