<svg width="311" height="236" viewBox="0 0 311 236" fill="none" xmlns="http://www.w3.org/2000/svg">
<path d="M226.302 71.1166C226.689 71.1343 227.072 71.033 227.399 70.8265C227.726 70.62 227.982 70.3182 228.131 69.962C228.281 69.6058 228.317 69.2125 228.234 68.8352C228.152 68.458 227.955 68.1151 227.671 67.853C227.623 67.6643 227.589 67.5288 227.541 67.3401C227.558 67.299 227.575 67.258 227.593 67.217C229.332 63.0835 235.226 63.112 236.951 67.2516C238.481 70.9258 240.43 74.6061 240.91 78.4909C241.121 80.2081 241.032 81.9488 240.646 83.6356C244.241 75.8197 246.108 67.3248 246.12 58.7268C246.12 56.5692 246 54.4133 245.759 52.2691C245.56 50.5114 245.284 48.7661 244.931 47.0333C243.005 37.6316 238.868 28.8195 232.861 21.3207C229.953 19.7396 227.602 17.3081 226.124 14.354C225.588 13.2921 225.21 12.1585 225 10.9885C225.328 11.0314 226.237 6.05278 225.989 5.74732C226.446 5.05603 227.264 4.71239 227.764 4.03782C230.246 0.682937 233.667 1.26872 235.452 5.82774C239.267 7.7466 239.304 10.9289 236.963 13.9895C235.474 15.9367 235.269 18.5715 233.963 20.6561C234.097 20.8276 234.237 20.9938 234.372 21.1653C236.829 24.3145 238.97 27.6962 240.766 31.2618C240.258 27.3072 241.008 22.5429 242.286 19.4718C243.741 15.9727 246.469 13.0256 248.871 10.0006C251.756 6.36707 257.673 7.95282 258.181 12.5589C258.186 12.6035 258.191 12.6481 258.196 12.6926C257.839 12.8933 257.49 13.1062 257.148 13.3315C256.719 13.6173 256.386 14.0258 256.194 14.5033C256.001 14.9808 255.958 15.5052 256.07 16.0076C256.181 16.51 256.443 16.967 256.819 17.3189C257.196 17.6707 257.671 17.9009 258.181 17.9793L258.233 17.9874C258.106 19.269 257.881 20.5392 257.561 21.7869C260.643 33.665 253.99 37.9912 244.49 38.1856C244.281 38.2928 244.076 38.3999 243.867 38.5018C245.671 43.5967 246.802 48.9037 247.233 54.2895C247.476 57.4669 247.462 60.6588 247.19 63.8339L247.206 63.7214C247.894 60.1907 249.784 57.005 252.555 54.7021C256.672 51.3313 262.489 50.09 266.93 47.3805C269.068 46.0762 271.808 47.7617 271.435 50.2323C271.429 50.2717 271.423 50.3112 271.417 50.3506C270.755 50.6194 270.11 50.929 269.487 51.2777C269.13 51.4783 268.781 51.6913 268.439 51.9165C268.01 52.2024 267.677 52.6108 267.485 53.0884C267.292 53.5659 267.249 54.0902 267.361 54.5926C267.472 55.095 267.734 55.5521 268.11 55.9039C268.487 56.2558 268.962 56.486 269.472 56.5644L269.524 56.5724C269.562 56.5778 269.594 56.5831 269.632 56.5885C268.501 59.2808 266.913 61.7589 264.938 63.9143C263.011 74.2834 254.735 75.2672 245.883 72.2476H245.878C244.906 76.4545 243.499 80.5493 241.678 84.4662H226.678C226.624 84.3001 226.575 84.1286 226.527 83.9624C227.915 84.0494 229.309 83.9667 230.678 83.716C229.565 82.3547 228.452 80.9828 227.339 79.6216C227.314 79.5962 227.291 79.5693 227.269 79.5412C226.704 78.8446 226.134 78.1533 225.57 77.4566L225.57 77.4558C225.54 75.3203 225.785 73.1898 226.301 71.1168L226.302 71.1166Z" fill="#9CABC2" fill-opacity="0.35"/>
<path d="M101.168 97.3797C100.781 97.3974 100.398 97.2962 100.071 97.0897C99.7432 96.8831 99.4876 96.5814 99.3381 96.2252C99.1887 95.869 99.1527 95.4756 99.2351 95.0984C99.3175 94.7211 99.5142 94.3782 99.7986 94.1162C99.8463 93.9275 99.8805 93.7919 99.9281 93.6032C99.911 93.5621 99.8939 93.5211 99.8767 93.4801C98.1375 89.3466 92.2432 89.3751 90.5188 93.5148C88.9882 97.1889 87.0396 100.869 86.5598 104.754C86.3485 106.471 86.4376 108.212 86.8233 109.899C83.2285 102.083 81.3618 93.5879 81.3498 84.99C81.349 82.8324 81.4693 80.6765 81.71 78.5323C81.909 76.7745 82.185 75.0293 82.5381 73.2965C84.4648 63.8948 88.6016 55.0827 94.6087 47.5839C97.5161 46.0027 99.8674 43.5713 101.346 40.6172C101.881 39.5553 102.26 38.4217 102.469 37.2517C102.141 37.2945 101.233 32.316 101.48 32.0105C101.023 31.3192 100.205 30.9756 99.7058 30.301C97.2232 26.9461 93.8027 27.5319 92.0171 32.0909C88.2026 34.0098 88.1657 37.1921 90.5063 40.2527C91.9953 42.1999 92.1999 44.8347 93.5065 46.9193C93.372 47.0908 93.2322 47.257 93.0978 47.4285C90.6407 50.5777 88.4991 53.9594 86.7038 57.525C87.2117 53.5704 86.4618 48.8061 85.1834 45.735C83.7281 42.2358 81.0004 39.2888 78.5983 36.2638C75.7131 32.6303 69.7965 34.216 69.2882 38.8221C69.2833 38.8667 69.2785 38.9113 69.2738 38.9558C69.6306 39.1564 69.9798 39.3694 70.3215 39.5947C70.7508 39.8805 71.0835 40.289 71.2759 40.7665C71.4683 41.244 71.5115 41.7683 71.3998 42.2707C71.2881 42.7732 71.0268 43.2302 70.65 43.5821C70.2733 43.9339 69.7987 44.1641 69.2884 44.2425L69.2362 44.2505C69.3633 45.5322 69.5879 46.8024 69.9082 48.0501C66.8267 59.9282 73.4796 64.2544 82.9789 64.4488C83.1886 64.5559 83.393 64.6631 83.6027 64.765C81.7989 69.8599 80.6675 75.1669 80.2369 80.5527C79.9931 83.7301 80.0074 86.922 80.2799 90.0971L80.2637 89.9845C79.5755 86.4539 77.6858 83.2681 74.9139 80.9653C70.7969 77.5945 64.9804 76.3532 60.539 73.6437C58.401 72.3394 55.6613 74.0249 56.0344 76.4955C56.0403 76.5349 56.0464 76.5743 56.0526 76.6138C56.7147 76.8826 57.3593 77.1922 57.9828 77.5409C58.3396 77.7415 58.6888 77.9545 59.0305 78.1797C59.4598 78.4656 59.7924 78.874 59.9848 79.3516C60.1772 79.8291 60.2204 80.3534 60.1088 80.8558C59.9971 81.3582 59.7357 81.8153 59.359 82.1671C58.9822 82.519 58.5076 82.7492 57.9974 82.8276L57.9451 82.8356C57.9075 82.841 57.8752 82.8463 57.8376 82.8517C58.9689 85.544 60.5567 88.0221 62.5314 90.1775C64.4582 100.547 72.7339 101.53 81.5864 98.5108H81.5918C82.5631 102.718 83.9704 106.812 85.791 110.729H100.792C100.846 110.563 100.894 110.392 100.942 110.226C99.5539 110.313 98.1599 110.23 96.7916 109.979C97.9046 108.618 99.0175 107.246 100.131 105.885C100.155 105.859 100.179 105.833 100.2 105.804C100.765 105.108 101.335 104.416 101.899 103.72L101.9 103.719C101.93 101.583 101.684 99.4529 101.168 97.38L101.168 97.3797Z" fill="#9CABC2" fill-opacity="0.35"/>
<path d="M173.948 202.785V203.117C173.935 203.006 173.935 202.895 173.948 202.785Z" fill="#2F2E41"/>
<path d="M184.189 145.422C184.455 145.35 184.726 145.298 184.999 145.265C184.685 145.316 184.415 145.368 184.189 145.422Z" fill="#2F2E41"/>
<path d="M183.952 145.482C184.024 145.462 184.104 145.442 184.189 145.422C184.11 145.442 184.033 145.458 183.952 145.482Z" fill="#2F2E41"/>
<path d="M259.613 235.998H221.281C220.735 235.563 220.355 234.954 220.205 234.273C220.056 233.592 220.146 232.88 220.461 232.257C221.508 229.863 219.456 227.676 219.456 227.676C218.759 226.862 218.275 225.89 218.046 224.845C217.817 223.801 217.85 222.716 218.142 221.687C219.158 218.151 215.178 208.172 215.178 208.172C215.178 208.172 213.032 221.058 210.403 235.998H173.948C173.337 234.962 173.015 233.781 173.015 232.579C173.015 231.377 173.337 230.196 173.948 229.159C176.072 225.569 173.948 224.88 173.948 224.88C173.948 224.88 171.824 220.863 173.948 217.945C176.072 215.028 173.948 203.117 173.948 203.117C174.028 203.643 174.633 202.686 175.565 200.678C176.984 197.623 179.152 192.13 181.342 185.753C182.908 181.202 184.487 176.194 185.806 171.297H185.809C186.155 170.011 186.483 168.737 186.792 167.474C187.398 164.997 187.916 162.59 188.31 160.33C189.165 155.463 189.447 151.282 188.791 148.562C188.246 146.299 187.055 145.051 184.999 145.265C186.101 145.083 187.715 144.911 189.703 144.748C190.062 144.719 190.433 144.691 190.818 144.659C205.651 143.541 237.476 142.9 237.476 142.9L247.223 160.298L259.568 182.338C259.568 182.338 259.232 211.904 259.613 235.998Z" fill="#2F2E41"/>
<path d="M218.699 67.7004L196.241 62.9521L191.782 71.8983L176.766 80.5635C176.766 80.5635 186.445 120.011 186.39 125.559C186.25 139.644 163.638 171.22 180.718 168.791C197.797 166.361 201.266 156.187 206.749 157.795C211.694 159.246 217.732 165.701 221.774 161.085C225.817 156.468 227.24 161.799 229.796 161.983C231.011 162.071 230.279 156.154 233.336 162.167C236.392 168.18 252.599 160.086 247.106 154.611C237.958 145.493 236.098 78.2773 236.098 78.2773L225.915 75.1542L218.699 67.7004Z" fill="#E6E6E6"/>
<path d="M176.341 210.955C177.244 209.883 177.69 208.502 177.587 207.106C177.483 205.71 176.837 204.41 175.786 203.481C175.569 203.296 175.338 203.129 175.093 202.981L178.848 184.613L170.168 179.435L167.753 205.151C167.219 206.208 167.051 207.412 167.275 208.574C167.499 209.736 168.103 210.791 168.992 211.575C169.503 212.017 170.095 212.354 170.736 212.567C171.377 212.78 172.054 212.865 172.728 212.817C173.402 212.77 174.06 212.59 174.664 212.289C175.268 211.988 175.807 211.572 176.25 211.063C176.281 211.027 176.311 210.992 176.341 210.955Z" fill="#A0616A"/>
<path d="M203.294 114.135C203.24 113.545 202.484 113.277 201.437 112.907C200.385 112.584 199.385 112.112 198.468 111.505C196.15 109.836 197.062 108.09 198.324 105.677C198.571 105.208 198.827 104.72 199.067 104.212C199.781 102.709 198.644 96.507 195.682 85.7762C194.769 82.4727 194.773 80.1395 194.142 78.5914C193.514 77.0434 192.256 76.2806 188.826 76.121C184.68 75.9124 180.621 77.3506 177.538 80.1203C177.455 80.1937 177.368 80.2735 177.285 80.3501C177.128 80.4969 176.974 80.647 176.824 80.8002C173.972 83.6593 172.341 87.5067 172.27 91.5374L172.254 92.2236L171.546 125.01L169.558 153.781L166.816 193.413L168.847 193.512L176.949 193.915L177.932 193.962L180.263 184.215L183.068 172.485L184.099 168.176L187.298 154.809L188.791 148.562L189.703 144.748L190.075 143.19L191.887 135.619C191.929 135.46 196.098 119.064 200.905 116.322C202.698 115.3 203.345 114.707 203.294 114.135Z" fill="#E6E6E6"/>
<path d="M257.225 210.76C256.212 209.79 255.619 208.465 255.572 207.066C255.524 205.667 256.026 204.305 256.971 203.27C257.167 203.062 257.379 202.871 257.606 202.699L251.894 184.839L259.966 178.761L265.138 204.07C265.782 205.064 266.079 206.242 265.982 207.422C265.884 208.601 265.397 209.715 264.598 210.59C264.138 211.083 263.585 211.482 262.971 211.762C262.357 212.043 261.693 212.2 261.018 212.224C260.343 212.249 259.669 212.141 259.036 211.907C258.403 211.672 257.822 211.316 257.327 210.857C257.292 210.825 257.258 210.793 257.225 210.76Z" fill="#A0616A"/>
<path d="M261.174 172.006C261.174 172.006 254.878 149.927 256.798 147.537C258.718 145.147 253.047 144.68 255.491 140.229C257.935 135.777 254.562 135.033 254.562 135.033L252.731 124.798L249.459 99.6588L249.36 98.9112L248.408 91.5974C248.143 89.5084 247.457 87.4943 246.392 85.6755C245.328 83.8567 243.906 82.2706 242.212 81.0119C242.126 80.9459 242.037 80.8825 241.949 80.8191C241.546 80.5301 241.135 80.2623 240.714 80.0157C237.573 78.1688 233.885 77.4705 230.283 78.0409C223.497 79.0943 225.609 81.6167 224.508 88.3741C222.72 99.3615 222.256 105.647 223.128 107.068C223.422 107.546 223.73 108.004 224.025 108.443C225.54 110.71 226.635 112.345 224.509 114.257C223.662 114.956 222.719 115.531 221.709 115.965C220.71 116.447 219.986 116.793 219.996 117.386C220.007 117.96 220.714 118.479 222.605 119.302C224.898 120.302 227.36 124.082 229.377 127.944C230.977 131.057 232.404 134.255 233.651 137.524L250.984 186.113L253.812 194.037L254.787 193.883L262.796 192.618L264.804 192.301L261.174 172.006Z" fill="#E6E6E6"/>
<path d="M191.743 32.852C188.954 22.716 211.451 14.0242 217.358 22.1867C218.18 21.0263 221.216 20.3214 222.609 20.6774C224.002 21.0334 225.173 21.9233 226.316 22.7848C227.887 23.988 229.516 25.234 230.48 26.964C231.452 28.687 231.602 31.0365 230.295 32.5316C229.259 33.7206 226.202 34.4895 224.644 34.8028C223.559 35.0235 222.644 35.2015 221.859 35.3296C221.145 34.3047 220.816 33.062 220.93 31.8196C220.401 32.1752 219.958 32.6431 219.632 33.1896C219.306 33.7361 219.105 34.3478 219.044 34.9808C219.023 35.2442 227.823 67.5175 227.823 67.5175C226.766 68.1173 225.653 68.6155 224.502 69.0055C222.223 65.534 220.477 61.7424 219.323 57.7565C219.057 60.4217 219.091 63.1082 219.423 65.7661C219.599 67.2565 219.852 68.7369 220.18 70.2016C209.722 72.4514 193.993 71.711 187.15 62.1422C187.149 62.1026 187.148 62.063 187.147 62.0233C187.142 61.6457 187.005 61.2816 186.76 60.9934C186.515 60.7053 186.177 60.511 185.804 60.4439C185.431 60.3768 185.046 60.441 184.715 60.6256C184.385 60.8101 184.129 61.1035 183.991 61.4555C183.825 61.8777 183.672 62.2431 183.536 62.5338C181.543 55.4283 184.122 47.2052 191.743 32.852Z" fill="#2F2E41"/>
<path d="M209.224 62.6165C219.344 62.6165 227.547 54.4402 227.547 44.3543C227.547 34.2683 219.344 26.092 209.224 26.092C199.105 26.092 190.902 34.2683 190.902 44.3543C190.902 54.4402 199.105 62.6165 209.224 62.6165Z" fill="#A0616A"/>
<path d="M181.743 34.2758C178.954 24.1398 201.451 15.4481 207.358 23.6106C208.18 22.4501 211.215 21.7452 212.608 22.1012C214.001 22.4572 215.173 23.3472 216.316 24.2086C217.887 25.4119 219.516 26.6578 220.48 28.3879C221.451 30.1108 221.601 32.4603 220.294 33.9554C219.259 35.1444 216.201 35.9133 214.644 36.2266C213.558 36.4473 212.644 36.6253 211.858 36.7534C211.145 35.7286 210.816 34.4859 210.93 33.2435C210.401 33.599 209.957 34.0669 209.631 34.6134C209.305 35.16 209.105 35.7716 209.044 36.4046C209.022 36.668 217.823 68.9413 217.823 68.9413C216.765 69.5411 215.653 70.0394 214.501 70.4293C212.222 66.9578 210.477 63.1662 209.323 59.1803C209.057 61.8456 209.091 64.532 209.423 67.1899C209.599 68.6803 209.852 70.1607 210.18 71.6254C199.722 73.8752 183.993 73.1348 177.15 63.566C177.149 63.5264 177.148 63.4868 177.147 63.4472C177.141 63.0695 177.004 62.7054 176.759 62.4172C176.514 62.1291 176.176 61.9349 175.803 61.8677C175.43 61.8006 175.046 61.8649 174.715 62.0494C174.384 62.234 174.128 62.5274 173.991 62.8794C173.825 63.3015 173.672 63.667 173.536 63.9576C171.543 56.8522 174.121 48.629 181.743 34.2758Z" fill="#2F2E41"/>
<path d="M105.883 22.187C105.543 22.9778 95.0451 22.8931 94.5643 23.5973C90.8573 29.0338 104.22 52.1648 100.513 57.6083L99.9969 58.2218C101.206 57.6663 102.368 57.013 103.47 56.2686C103.569 54.0404 103.669 51.8051 103.775 49.577C104.885 50.9927 105.781 52.563 106.435 54.2378C107.298 53.6314 108.006 52.5073 111.705 50.2962C113.203 48.6564 114.929 47.2398 116.832 46.09L105.883 22.187Z" fill="#2F2E41"/>
<path d="M113.506 66.7422C112.348 65.99 111.026 65.524 109.651 65.3829C108.276 65.2419 106.886 65.4297 105.598 65.9309C104.311 66.4321 103.161 67.2322 102.246 68.2648C101.33 69.2974 100.675 70.5328 100.334 71.8683L84.3812 113.299L56.9599 97.7821C56.8395 95.9986 56.1554 94.2989 55.0059 92.9267C53.8564 91.5546 52.3005 90.5806 50.5612 90.1444C48.822 89.7082 46.9888 89.8321 45.3246 90.4985C43.6605 91.1649 42.2508 92.3395 41.2978 93.8538C40.3448 95.3682 39.8974 97.1444 40.0198 98.9278C40.1422 100.711 40.8282 102.41 41.9792 103.781C43.1303 105.152 44.6873 106.124 46.4271 106.558C48.1668 106.993 49.9998 106.867 51.6633 106.198C57.438 112.341 82.4734 137.528 92.8379 127.687C101.55 119.415 114.122 87.3566 117.148 76.2861C117.633 74.5159 117.542 72.638 116.887 70.9228C116.233 69.2077 115.049 67.7439 113.506 66.7422Z" fill="#FFB6B6"/>
<path d="M83.5511 129.423L88.5854 152.103L125.398 155.421L128.781 135.674L83.5511 129.423Z" fill="#FFB6B6"/>
<path d="M139.783 187.582C139.766 187.907 139.746 188.229 139.722 188.554C139.369 193.253 138.965 198.673 138.528 204.612C137.839 214.038 137.069 224.77 136.292 235.999H59.0778L74.0527 191.136C74.0527 191.136 80.0992 187.818 77.0208 182.244C73.9425 176.67 79.9996 181.112 80.0559 173.151C80.1123 165.191 85.54 156.722 85.54 156.722L86.4311 144.669L86.9389 144.679L127.121 145.346L127.855 145.359L129.089 155.706C136.582 164.594 140.405 175.989 139.783 187.582Z" fill="#2F2E41"/>
<path d="M106.527 55.7511L124.85 54.8103L133.361 68.214C133.361 68.214 149.374 70.8824 148.264 89.6899C147.154 108.497 128.781 125.001 128.781 125.001L129.566 122.317L128.202 126.202L128.377 128.383L130.238 130.693L130.429 133.082L128.781 136.862C128.995 137.205 129.109 137.6 129.109 138.004C129.109 138.408 128.996 138.803 128.782 139.146C128.568 139.489 128.262 139.765 127.899 139.943C127.535 140.121 127.129 140.195 126.726 140.154L100.25 137.51C99.6477 135.857 99.1641 133.879 96.7479 137.171L94.2538 136.931L83.886 135.929L83.2758 133.714C82.929 132.455 82.875 131.134 83.1178 129.851C83.3606 128.568 83.8938 127.357 84.6768 126.31C83.7763 123.5 84.0121 120.449 85.3342 117.81L85.3838 117.711L86.4848 116.796C86.4848 116.796 74.4394 98.7587 88.2672 85.1734L93.817 75.7697L100.027 68.2183L106.527 55.7511Z" fill="#F0748D"/>
<path d="M111.087 47.8388C120.683 47.8388 128.463 40.0851 128.463 30.5204C128.463 20.9556 120.683 13.2019 111.087 13.2019C101.491 13.2019 93.7117 20.9556 93.7117 30.5204C93.7117 40.0851 101.491 47.8388 111.087 47.8388Z" fill="#FFB6B6"/>
<path d="M124.284 55.4689C122.869 54.2905 121.884 52.6793 121.483 50.8856C121.161 53.0634 121.245 55.2816 121.73 57.4291C120.789 58.1343 119.877 58.8041 119.014 59.4105C118.36 57.7357 117.464 56.1654 116.354 54.7497C116.247 56.9778 116.148 59.2131 116.049 61.4413C114.947 62.1857 113.785 62.839 112.576 63.3945L113.092 62.781C116.799 57.3375 107.206 47.3177 110.913 41.8812C111.953 40.3581 107.256 28.3217 103.676 27.7787C100.493 27.2992 100.627 28.2159 97.5426 28.8858C97.2223 27.5543 96.725 26.2714 96.0641 25.071C96.24 26.4086 96.1994 27.7656 95.9438 29.0902C94.8473 29.1326 93.9846 28.4362 92.8169 28.2582C85.3675 27.123 86.1245 19.0917 88.1973 16.5461C90.2772 14.0077 97.1818 13.2462 100.365 12.4211C100.655 12.1391 101.313 12.3154 101.603 12.0474C107.704 6.48224 115.864 5.5606 123.207 8.02722C131.038 10.6577 135.92 15.7488 138.426 23.5974L139.145 29.8782C139.789 31.8977 138.978 41.2943 138.426 43.3408C136.279 51.296 131.706 47.3247 124.284 55.4689Z" fill="#2F2E41"/>
<path d="M149.619 137.519L148.935 84.4186C148.899 82.169 147.978 80.0236 146.369 78.4453C144.76 76.867 142.593 75.9824 140.336 75.9824C139.168 75.9824 138.013 76.2195 136.94 76.6791C135.867 77.1387 134.899 77.8113 134.096 78.6559C133.292 79.5005 132.67 80.4993 132.266 81.5915C131.863 82.6837 131.686 83.8463 131.748 85.0086L134.155 140.146L134.201 173.71C132.782 174.31 131.583 175.33 130.767 176.633C129.95 177.936 129.556 179.457 129.637 180.991C129.718 182.525 130.271 183.996 131.221 185.206C132.17 186.416 133.471 187.305 134.945 187.752C136.419 188.2 137.995 188.184 139.46 187.707C140.925 187.231 142.207 186.316 143.133 185.088C144.058 183.859 144.581 182.377 144.632 180.842C144.682 179.307 144.257 177.793 143.415 176.507L149.619 137.519Z" fill="#FFB6B6"/>
</svg>
