<svg width="311" height="251" viewBox="0 0 311 251" fill="none" xmlns="http://www.w3.org/2000/svg">
<g clip-path="url(#clip0_705_4853)">
<path d="M87.544 167.017C107.031 167.017 122.828 151.22 122.828 131.733C122.828 112.246 107.031 96.449 87.544 96.449C68.0573 96.449 52.2601 112.246 52.2601 131.733C52.2601 151.22 68.0573 167.017 87.544 167.017Z" fill="#E6E6E6"/>
<path d="M78.011 183.257L86.6903 188.635V152.28L76.9618 146.251C76.1575 145.753 75.5698 144.971 75.3151 144.059C76.2445 143.882 77.2067 144.06 78.011 144.558L86.6904 149.937V135.839C86.6904 133.112 87.0248 130.395 87.6863 127.749C88.3477 130.395 88.6822 133.112 88.6822 135.839V158.849L101.487 150.914C102.509 150.281 103.692 149.954 104.895 149.974C104.377 151.06 103.558 151.974 102.536 152.608L88.6821 161.192V247.169H86.6903V190.978L76.9618 184.95C76.1575 184.452 75.5698 183.669 75.3151 182.758C76.2445 182.58 77.2067 182.758 78.011 183.257Z" fill="#CCCCCC"/>
<path d="M35.2839 170.013C54.7706 170.013 70.5678 154.215 70.5678 134.729C70.5678 115.242 54.7706 99.4448 35.2839 99.4448C15.7971 99.4448 0 115.242 0 134.729C0 154.215 15.7971 170.013 35.2839 170.013Z" fill="#E6E6E6"/>
<path d="M44.8169 186.253L36.1375 191.631V155.276L45.866 149.247C46.6703 148.749 47.2581 147.967 47.5127 147.055C46.5833 146.878 45.6211 147.056 44.8168 147.554L36.1375 152.933V138.835C36.1375 136.108 35.803 133.391 35.1416 130.745C34.4801 133.391 34.1456 136.108 34.1456 138.835V161.845L21.3412 153.91C20.3188 153.277 19.1358 152.95 17.9332 152.97C18.4508 154.056 19.2696 154.97 20.2921 155.603L34.1457 164.188V247.359H36.1375V193.974L45.866 187.946C46.6703 187.447 47.2581 186.665 47.5127 185.754C46.5834 185.576 45.6212 185.754 44.8169 186.253Z" fill="#CCCCCC"/>
<path d="M60.9146 121.828C94.4659 121.828 121.665 94.6296 121.665 61.0783C121.665 27.527 94.4659 0.328369 60.9146 0.328369C27.3634 0.328369 0.164703 27.527 0.164703 61.0783C0.164703 94.6296 27.3634 121.828 60.9146 121.828Z" fill="#E6E6E6"/>
<path d="M77.328 149.789L62.3844 159.05V96.4551L79.1344 86.0756C80.5192 85.2175 81.5312 83.8705 81.9697 82.3015C80.3695 81.9958 78.7128 82.3024 77.328 83.1605L62.3844 92.4206V68.1483C62.3844 63.4527 61.8085 58.7749 60.6697 54.2195C59.5309 58.7749 58.955 63.4527 58.955 68.1483V107.765L36.9089 94.1039C35.1486 93.0131 33.1118 92.4512 31.0411 92.4851C31.9324 94.3544 33.3422 95.9282 35.1025 97.019L58.955 111.8V247.492H62.3844V163.084L79.1344 152.705C80.5193 151.846 81.5312 150.499 81.9697 148.93C80.3695 148.625 78.7128 148.931 77.328 149.789Z" fill="#CCCCCC"/>
<path d="M311 247.169H24.2289V247.895H311V247.169Z" fill="#3F3D56"/>
<path d="M237.145 109.931L222.912 118.148L231.13 132.381L245.363 124.164L237.145 109.931Z" fill="#FF6584"/>
<path d="M237.326 135.347L228.745 120.486L243.607 111.905L252.188 126.767L237.326 135.347ZM229.737 120.751L237.592 134.356L251.196 126.501L243.341 112.897L229.737 120.751Z" fill="#2F2E41"/>
<path d="M224.011 175.284C227.82 175.284 230.908 172.196 230.908 168.387C230.908 164.577 227.82 161.49 224.011 161.49C220.202 161.49 217.114 164.577 217.114 168.387C217.114 172.196 220.202 175.284 224.011 175.284Z" fill="#D0CDE1"/>
<path d="M229.093 175.647C227.657 175.647 226.254 175.221 225.06 174.423C223.866 173.625 222.935 172.491 222.386 171.165C221.836 169.838 221.693 168.378 221.973 166.97C222.253 165.562 222.944 164.268 223.96 163.253C224.975 162.238 226.269 161.546 227.677 161.266C229.085 160.986 230.545 161.13 231.872 161.679C233.198 162.229 234.332 163.159 235.13 164.353C235.927 165.547 236.353 166.951 236.353 168.387C236.353 170.312 235.588 172.159 234.227 173.52C232.865 174.882 231.019 175.647 229.093 175.647ZM229.093 161.852C227.801 161.852 226.538 162.236 225.463 162.954C224.389 163.672 223.551 164.692 223.057 165.886C222.562 167.08 222.433 168.394 222.685 169.661C222.937 170.929 223.559 172.093 224.473 173.007C225.387 173.921 226.551 174.543 227.818 174.795C229.086 175.047 230.4 174.918 231.594 174.423C232.788 173.929 233.808 173.091 234.526 172.017C235.244 170.942 235.627 169.679 235.627 168.387C235.627 166.654 234.939 164.992 233.713 163.766C232.488 162.541 230.826 161.852 229.093 161.852Z" fill="#2F2E41"/>
<path d="M267.521 248.82H200.729C199.911 248.819 199.127 248.494 198.548 247.916C197.97 247.337 197.644 246.553 197.643 245.735V183.662C197.644 182.844 197.97 182.059 198.548 181.481C199.127 180.902 199.911 180.577 200.729 180.576H267.521C268.339 180.577 269.124 180.902 269.702 181.481C270.28 182.059 270.606 182.844 270.607 183.662V245.735C270.606 246.553 270.28 247.337 269.702 247.916C269.124 248.494 268.339 248.819 267.521 248.82Z" fill="#F0748D"/>
<path d="M238.844 251H229.406C228.587 250.999 227.803 250.674 227.225 250.095C226.646 249.517 226.321 248.732 226.32 247.914V181.818C226.321 181 226.646 180.215 227.225 179.637C227.803 179.058 228.587 178.733 229.406 178.732H238.844C239.662 178.733 240.446 179.058 241.024 179.637C241.603 180.215 241.928 181 241.929 181.818V247.914C241.928 248.732 241.603 249.517 241.024 250.095C240.446 250.674 239.662 250.999 238.844 251Z" fill="#3F3D56"/>
<path d="M285.267 174.432C284.877 180.835 276.227 185.518 276.227 185.518C276.227 185.518 268.21 179.82 268.6 173.416C268.99 167.013 277.64 162.329 277.64 162.329C277.64 162.329 285.657 168.028 285.267 174.432Z" fill="#3F3D56"/>
<path d="M285.659 194.411C279.254 194.041 274.544 185.405 274.544 185.405C274.544 185.405 280.218 177.37 286.622 177.741C293.027 178.111 297.737 186.746 297.737 186.746C297.737 186.746 292.063 194.781 285.659 194.411Z" fill="#3F3D56"/>
<path opacity="0.1" d="M270.425 188.17V211.867L246.855 180.758H264.81L270.425 188.17Z" fill="black"/>
<path d="M290.435 228.734C289.958 228.735 289.487 228.625 289.059 228.413C288.632 228.201 288.26 227.893 287.972 227.513L238.867 162.702C238.622 162.379 238.444 162.011 238.341 161.619C238.239 161.227 238.214 160.819 238.27 160.418C238.325 160.016 238.459 159.63 238.664 159.28C238.868 158.93 239.14 158.624 239.463 158.38L246.696 152.899C247.019 152.654 247.387 152.476 247.779 152.373C248.171 152.271 248.58 152.247 248.981 152.302C249.382 152.357 249.769 152.491 250.119 152.696C250.468 152.901 250.774 153.172 251.019 153.495L300.124 218.306C300.368 218.629 300.547 218.997 300.649 219.389C300.752 219.781 300.776 220.189 300.721 220.59C300.666 220.992 300.532 221.378 300.327 221.728C300.122 222.078 299.851 222.384 299.528 222.628L292.294 228.109C291.759 228.515 291.106 228.735 290.435 228.734Z" fill="#F0748D"/>
<path d="M270.779 178.373L258.338 187.8L267.764 200.241L280.205 190.815L270.779 178.373Z" fill="#3F3D56"/>
<path d="M206.779 130.963L202.525 146.838L218.4 151.091L222.654 135.217L206.779 130.963Z" fill="#D0CDE1"/>
<path d="M211.666 153.465L195.09 149.023L199.531 132.447L216.107 136.888L211.666 153.465ZM195.979 148.51L211.152 152.576L215.218 137.402L200.045 133.336L195.979 148.51Z" fill="#2F2E41"/>
<path d="M141.842 191.993C142.279 191.575 142.618 191.067 142.836 190.503C143.055 189.94 143.147 189.336 143.107 188.733C143.066 188.131 142.894 187.544 142.603 187.015C142.311 186.486 141.907 186.027 141.419 185.671L134.753 131.936L126.141 134.497L135.439 186.791C134.895 187.65 134.685 188.679 134.85 189.683C135.014 190.686 135.541 191.595 136.33 192.236C137.119 192.877 138.116 193.207 139.132 193.162C140.148 193.117 141.113 192.701 141.842 191.993Z" fill="#FFB8B8"/>
<path d="M149.826 243.354H154.863L157.261 223.924H149.826V243.354Z" fill="#FFB8B8"/>
<path d="M164.578 248.031H148.747V241.915H159.021C160.495 241.915 161.908 242.5 162.951 243.542C163.993 244.585 164.578 245.998 164.578 247.472V248.031Z" fill="#2F2E41"/>
<path d="M114.991 235.508L119.713 237.264L128.733 219.889L121.765 217.297L114.991 235.508Z" fill="#FFB8B8"/>
<path d="M127.187 245.035L112.349 239.515L114.481 233.782L124.111 237.364C125.493 237.878 126.613 238.92 127.227 240.26C127.84 241.6 127.896 243.129 127.382 244.51L127.187 245.035Z" fill="#2F2E41"/>
<path d="M140.789 117.987C146.05 117.987 150.314 113.723 150.314 108.462C150.314 103.202 146.05 98.9375 140.789 98.9375C135.529 98.9375 131.265 103.202 131.265 108.462C131.265 113.723 135.529 117.987 140.789 117.987Z" fill="#FFB8B8"/>
<path d="M125.892 132.907C125.593 124.134 134.814 118.048 142.571 122.156C143.56 122.679 153.766 131.35 154.15 136.734C154.535 142.119 155.304 150.965 155.304 150.965L166.073 231.349L142.996 230.195L145.783 206.746L130.783 230.592L112.612 224.81L134.92 160.58C134.92 160.58 126.344 146.202 125.892 132.907Z" fill="#2F2E41"/>
<path d="M126.073 135.961L127.555 155.225C127.57 155.426 127.661 155.614 127.809 155.751C127.957 155.889 128.152 155.965 128.353 155.965H134.874C135.005 155.965 135.135 155.932 135.251 155.87C135.367 155.808 135.466 155.718 135.54 155.608C135.613 155.499 135.658 155.373 135.671 155.242C135.683 155.111 135.664 154.978 135.613 154.857L127.611 135.593C127.538 135.417 127.405 135.273 127.235 135.186C127.065 135.1 126.87 135.077 126.685 135.121C126.5 135.166 126.336 135.275 126.224 135.429C126.112 135.583 126.059 135.771 126.073 135.961Z" fill="#2F2E41"/>
<path d="M159.557 188.655C159.941 188.189 160.218 187.644 160.369 187.059C160.52 186.475 160.541 185.864 160.431 185.27C160.32 184.676 160.081 184.114 159.729 183.622C159.378 183.131 158.923 182.723 158.397 182.426L145.488 129.841L137.234 133.392L152.588 184.238C152.149 185.155 152.061 186.201 152.342 187.179C152.622 188.156 153.252 188.997 154.111 189.541C154.969 190.086 155.998 190.296 157.002 190.133C158.006 189.97 158.915 189.444 159.557 188.655Z" fill="#FFB8B8"/>
<path d="M138.381 125.196C138.381 125.196 135.689 130.58 138.381 140.196C141.073 149.811 142.996 157.888 142.996 157.888C142.996 157.888 149.15 154.042 151.842 155.196C154.535 156.349 147.584 129.564 147.584 129.564C147.584 129.564 143.381 120.58 138.381 125.196Z" fill="#2F2E41"/>
<path d="M143.024 109.948C143.153 107.972 145.646 107.904 147.627 107.886C149.607 107.867 151.975 107.938 153.096 106.305C153.836 105.225 153.695 103.727 153.083 102.57C152.471 101.413 151.465 100.523 150.475 99.6671C147.919 97.4568 145.284 95.2641 142.216 93.8494C139.147 92.4347 135.551 91.8631 132.368 92.9987C128.459 94.3938 123.174 101.575 122.717 105.701C122.261 109.827 123.91 114.033 126.689 117.116C129.469 120.199 135.83 118.955 139.834 120.052C137.4 116.607 139.004 110.348 142.903 108.739L143.024 109.948Z" fill="#2F2E41"/>
</g>
<defs>
<clipPath id="clip0_705_4853">
<rect width="311" height="250.672" fill="white" transform="translate(0 0.328369)"/>
</clipPath>
</defs>
</svg>
