<svg width="24" height="24" viewBox="0 0 24 24" fill="none" xmlns="http://www.w3.org/2000/svg">
<path d="M7.37087 7.99976C8.36197 6.47538 9.34354 4.90945 9.95605 3.37687C10.2157 2.72708 11.0161 2.42175 11.5727 2.84579C14.9439 5.41385 20 10.3781 20 15C20 16.1735 19.8008 17.1654 19.4698 17.9998M5.46561 10.9998C4.61333 12.4537 4 13.8131 4 15C4 18.1068 6.24558 20.3088 8.08142 21.3715C8.50204 21.615 8.91147 21.107 8.69077 20.674C8.20479 19.7205 7.73333 18.4892 7.73333 17.5C7.73333 16.1285 8.77825 15.0265 9.52461 14.3198C9.71604 14.1385 10.016 14.1413 10.182 14.3462C10.4901 14.7264 10.7982 15.2078 11.1063 15.5975C11.2872 15.8262 11.6241 15.8059 11.7828 15.5613C12.7689 14.0417 12.9976 12.1028 13.0507 10.6536C13.0667 10.2162 13.5786 10.0013 13.8721 10.3261C15.1559 11.7465 16.8 14.0494 16.8 16C16.8 17.8158 15.7823 19.7462 14.9019 21.0114C14.6438 21.3823 14.9274 21.8852 15.3588 21.751C15.8734 21.5908 16.4265 21.3506 16.9653 21.0114" stroke="#1C274C" stroke-width="1.5" stroke-linecap="round"/>
</svg>
