<svg width="24" height="24" viewBox="0 0 24 24" fill="none" xmlns="http://www.w3.org/2000/svg">
<path d="M17.8445 6.15547C17.8445 6.15547 17.4119 8.39999 14.9057 10.9061C12.3996 13.4123 10.1555 13.8445 10.1555 13.8445M21.7828 11.038C21.5355 10.1888 21.0771 9.38806 20.4075 8.71849L15.2815 3.59246C13.1582 1.46918 9.71573 1.46918 7.59246 3.59246C5.46918 5.71573 5.46918 9.15824 7.59246 11.2815L12.7185 16.4075C14.8418 18.5308 18.2843 18.5308 20.4075 16.4075C20.8312 15.9839 21.1703 15.5077 21.4249 15" stroke="#1C274C" stroke-width="1.5" stroke-linecap="round"/>
<path d="M14.5 6.5L13 5" stroke="#1C274C" stroke-width="1.5" stroke-linecap="round"/>
<path d="M6.88819 10.8677C7.29311 10.7805 7.55064 10.3815 7.46339 9.97655C7.37615 9.57163 6.97717 9.3141 6.57225 9.40135L6.88819 10.8677ZM5.81285 20.7742C5.43639 20.6014 4.99115 20.7666 4.81836 21.143C4.64558 21.5195 4.8107 21.9647 5.18715 22.1375L5.81285 20.7742ZM1.86246 18.8129C2.03525 19.1893 2.48049 19.3544 2.85695 19.1816C3.2334 19.0088 3.39851 18.5636 3.22572 18.1871L1.86246 18.8129ZM2.75 15.9999C2.75 13.4825 4.52254 11.3774 6.88819 10.8677L6.57225 9.40135C3.53021 10.0568 1.25 12.7612 1.25 15.9999H2.75ZM13.139 17.0795C12.6416 19.4612 10.5288 21.2499 8 21.2499V22.7499C11.2534 22.7499 13.9676 20.449 14.6074 17.3862L13.139 17.0795ZM8 21.2499C7.21794 21.2499 6.47774 21.0794 5.81285 20.7742L5.18715 22.1375C6.04437 22.5309 6.99764 22.7499 8 22.7499V21.2499ZM3.22572 18.1871C2.92053 17.5222 2.75 16.782 2.75 15.9999H1.25C1.25 17.0023 1.46899 17.9556 1.86246 18.8129L3.22572 18.1871Z" fill="#1C274C"/>
</svg>
