<svg width="24" height="24" viewBox="0 0 24 24" fill="none" xmlns="http://www.w3.org/2000/svg">
<path d="M3.74181 20.5545C4.94143 22 7.17414 22 11.6395 22H12.3607C16.8261 22 19.0589 22 20.2585 20.5545M3.74181 20.5545C2.54219 19.1091 2.95365 16.9146 3.77657 12.5257C4.36179 9.40452 4.65441 7.84393 5.7653 6.92196M3.74181 20.5545V20.5545ZM20.2585 20.5545C21.4581 19.1091 21.0466 16.9146 20.2237 12.5257C19.6385 9.40452 19.3459 7.84393 18.235 6.92196M20.2585 20.5545V20.5545ZM18.235 6.92196C17.1241 6 15.5363 6 12.3607 6H11.6395C8.46398 6 6.8762 6 5.7653 6.92196M18.235 6.92196V6.92196ZM5.7653 6.92196V6.92196Z" stroke="#1C274C" stroke-width="1.5"/>
<path opacity="0.5" d="M9 6V5C9 3.34315 10.3431 2 12 2C13.6569 2 15 3.34315 15 5V6" stroke="#1C274C" stroke-width="1.5" stroke-linecap="round"/>
<path opacity="0.5" d="M12.7416 10.6292L12.4062 9.95841L12.4062 9.95841L12.7416 10.6292ZM14.0584 9.97087L13.7229 9.30005V9.30005L14.0584 9.97087ZM13.9416 13.0292L13.6062 12.3584L13.6062 12.3584L13.9416 13.0292ZM12.0598 12.7226L12.7649 12.4672V12.4672L12.0598 12.7226ZM13.1159 13.3753L13.029 12.6303H13.029L13.1159 13.3753ZM15.9822 11.57L16.7188 11.711V11.711L15.9822 11.57ZM15.6074 12.1764L16.0629 12.7722L16.0629 12.7722L15.6074 12.1764ZM14.8841 9.62482L14.971 10.3698L14.8841 9.62482ZM15.9402 10.2775L15.2351 10.5329V10.5329L15.9402 10.2775ZM12.3926 10.8237L12.8482 11.4195L12.8482 11.4195L12.3926 10.8237ZM12.0178 11.4301L11.2812 11.2891V11.2891L12.0178 11.4301ZM11.25 17.0001C11.25 17.6904 10.6904 18.2501 10 18.2501V19.7501C11.5188 19.7501 12.75 18.5188 12.75 17.0001H11.25ZM10 18.2501C9.30964 18.2501 8.75 17.6904 8.75 17.0001H7.25C7.25 18.5188 8.48122 19.7501 10 19.7501V18.2501ZM8.75 17.0001C8.75 16.3097 9.30964 15.7501 10 15.7501V14.2501C8.48122 14.2501 7.25 15.4813 7.25 17.0001H8.75ZM10 15.7501C10.6904 15.7501 11.25 16.3097 11.25 17.0001H12.75C12.75 15.4813 11.5188 14.2501 10 14.2501V15.7501ZM12.75 17.0001V12.0001H11.25V17.0001H12.75ZM13.0771 11.3001L14.3938 10.6417L13.7229 9.30005L12.4062 9.95841L13.0771 11.3001ZM14.9229 11.7001L13.6062 12.3584L14.2771 13.7001L15.5938 13.0417L14.9229 11.7001ZM11.25 11.8292C11.25 12.0638 11.2498 12.2691 11.2585 12.4355C11.2672 12.5999 11.2866 12.7902 11.3546 12.978L12.7649 12.4672C12.7732 12.4899 12.7627 12.4764 12.7564 12.3567C12.7502 12.239 12.75 12.0802 12.75 11.8292H11.25ZM13.6062 12.3584C13.3817 12.4707 13.2396 12.5415 13.1316 12.5885C13.0217 12.6364 13.0049 12.6331 13.029 12.6303L13.2028 14.1202C13.4012 14.0971 13.5801 14.0293 13.731 13.9636C13.8837 13.897 14.0673 13.8049 14.2771 13.7001L13.6062 12.3584ZM11.3546 12.978C11.6311 13.7414 12.3963 14.2143 13.2028 14.1202L13.029 12.6303C12.9138 12.6438 12.8044 12.5762 12.7649 12.4672L11.3546 12.978ZM15.25 11.1709C15.25 11.278 15.2499 11.3391 15.2482 11.3853C15.2468 11.4269 15.2446 11.434 15.2455 11.429L16.7188 11.711C16.7532 11.5313 16.75 11.3445 16.75 11.1709H15.25ZM15.5938 13.0417C15.7491 12.964 15.9176 12.8834 16.0629 12.7722L15.1518 11.5806C15.1559 11.5775 15.1505 11.5827 15.114 11.6026C15.0734 11.6247 15.0188 11.6521 14.9229 11.7001L15.5938 13.0417ZM15.2455 11.429C15.234 11.4893 15.2006 11.5433 15.1518 11.5806L16.0629 12.7722C16.4045 12.5111 16.638 12.1333 16.7188 11.711L15.2455 11.429ZM14.3938 10.6417C14.6183 10.5294 14.7604 10.4586 14.8684 10.4116C14.9783 10.3637 14.9951 10.367 14.971 10.3698L14.7972 8.87987C14.5988 8.90302 14.4199 8.97076 14.269 9.03653C14.1163 9.10311 13.9327 9.19516 13.7229 9.30005L14.3938 10.6417ZM16.75 11.1709C16.75 10.9363 16.7502 10.731 16.7415 10.5646C16.7328 10.4002 16.7134 10.2099 16.6454 10.0221L15.2351 10.5329C15.2268 10.5102 15.2373 10.5237 15.2436 10.6434C15.2498 10.7611 15.25 10.9199 15.25 11.1709H16.75ZM14.971 10.3698C15.0862 10.3563 15.1956 10.4239 15.2351 10.5329L16.6454 10.0221C16.3689 9.25874 15.6037 8.78581 14.7972 8.87987L14.971 10.3698ZM12.4062 9.95841C12.2509 10.0361 12.0824 10.1168 11.9371 10.2279L12.8482 11.4195C12.8441 11.4226 12.8495 11.4174 12.886 11.3975C12.9266 11.3754 12.9812 11.348 13.0771 11.3001L12.4062 9.95841ZM12.75 11.8292C12.75 11.7221 12.7501 11.661 12.7518 11.6148C12.7532 11.5732 12.7554 11.5661 12.7545 11.5711L11.2812 11.2891C11.2468 11.4688 11.25 11.6556 11.25 11.8292H12.75ZM11.9371 10.2279C11.5955 10.489 11.362 10.8668 11.2812 11.2891L12.7545 11.5711C12.766 11.5108 12.7994 11.4568 12.8482 11.4195L11.9371 10.2279Z" fill="#1C274C"/>
</svg>
