<svg width="24" height="24" viewBox="0 0 24 24" fill="none" xmlns="http://www.w3.org/2000/svg">
<path d="M3 13.0827C3 13.0059 3 12.9675 3.00211 12.9351C3.0347 12.4339 3.43395 12.0347 3.93511 12.0021C3.96752 12 4.00591 12 4.08268 12H19.9173C19.9941 12 20.0325 12 20.0649 12.0021C20.5661 12.0347 20.9653 12.4339 20.9979 12.9351C21 12.9675 21 13.0059 21 13.0827C21 13.4784 21 13.6762 20.9859 13.8977C20.7773 17.1854 17.983 20.0867 14.7053 20.4186C14.4845 20.441 14.3558 20.4458 14.0982 20.4555C13.364 20.4831 12.6493 20.5 12 20.5C11.3507 20.5 10.636 20.4831 9.90183 20.4555C9.64425 20.4458 9.51545 20.441 9.29467 20.4186C6.01705 20.0867 3.22272 17.1854 3.01406 13.8977C3 13.6762 3 13.4784 3 13.0827Z" stroke="#1C274C" stroke-width="1.5"/>
<path opacity="0.5" d="M6 20L5 22" stroke="#1C274C" stroke-width="1.5" stroke-linecap="round"/>
<path opacity="0.5" d="M18 20L19 22" stroke="#1C274C" stroke-width="1.5" stroke-linecap="round"/>
<path d="M2 12H22" stroke="#1C274C" stroke-width="1.5" stroke-linecap="round"/>
<path opacity="0.5" d="M3 13V4.38516C3 3.06787 4.06787 2 5.38516 2C6.36047 2 7.23752 2.59379 7.59973 3.49934L8 4.38516" stroke="#1C274C" stroke-width="1.5" stroke-linecap="round"/>
<path d="M7.97918 4.44719L8.30746 5.12153L7.97918 4.44719ZM6.36245 6.19238L7.05734 6.47457L6.36245 6.19238ZM10.5773 4.37789L10.2827 5.06759L10.5773 4.37789ZM6.34592 8.74162L5.64813 9.01657C5.72254 9.2054 5.8703 9.35602 6.05768 9.43402C6.24506 9.51202 6.45605 9.51075 6.64248 9.4305L6.34592 8.74162ZM12.3067 6.17554L12.6032 6.86442C12.9753 6.70423 13.153 6.2775 13.0045 5.90059L12.3067 6.17554ZM7.0437 8.46667C6.802 7.85327 6.78671 7.14098 7.05734 6.47457L5.66756 5.91019C5.24725 6.9452 5.26992 8.0567 5.64813 9.01657L7.0437 8.46667ZM12.0101 5.48666L6.04936 8.05274L6.64248 9.4305L12.6032 6.86442L12.0101 5.48666ZM10.2827 5.06759C10.9043 5.33313 11.3673 5.83747 11.6089 6.45049L13.0045 5.90059C12.6261 4.94035 11.8873 4.12195 10.872 3.68819L10.2827 5.06759ZM7.05734 6.47457C7.31151 5.84866 7.7686 5.38386 8.30746 5.12153L7.65091 3.77285C6.7837 4.19502 6.06286 4.93677 5.66756 5.91019L7.05734 6.47457ZM8.30746 5.12153C8.91485 4.82585 9.62539 4.78678 10.2827 5.06759L10.872 3.68819C9.79419 3.22774 8.62907 3.29667 7.65091 3.77285L8.30746 5.12153Z" fill="#1C274C"/>
</svg>
