<svg width="24" height="24" viewBox="0 0 24 24" fill="none" xmlns="http://www.w3.org/2000/svg">
<path d="M10.9313 16.6311C10.5378 17.0246 10.562 17.674 10.7105 18.2103C10.9908 19.2235 10.6058 20.519 9.86257 21.2622C8.87884 22.2459 7.28391 22.2459 6.30018 21.2622C5.31645 20.2785 5.31646 18.6835 6.30018 17.6998C5.31646 18.6835 3.72152 18.6835 2.73779 17.6998C1.75407 16.7161 1.75407 15.1212 2.73779 14.1374C3.48101 13.3942 4.77646 13.0092 5.7897 13.2895C6.32603 13.438 6.97541 13.4622 7.3689 13.0687M16.6311 10.9313C17.0246 10.5378 17.674 10.562 18.2103 10.7105C19.2235 10.9908 20.519 10.6058 21.2622 9.86257C22.2459 8.87884 22.2459 7.28391 21.2622 6.30018C20.2785 5.31646 18.6835 5.31646 17.6998 6.30018C18.6835 5.31646 18.6835 3.72152 17.6998 2.73779C16.7161 1.75407 15.1212 1.75407 14.1374 2.73779C13.3942 3.48102 13.0092 4.77646 13.2895 5.7897C13.438 6.32603 13.4622 6.97541 13.0687 7.3689" stroke="#1C274C" stroke-width="1.5" stroke-linejoin="round"/>
<path opacity="0.5" d="M17.1617 11.4616C17.4546 11.1687 17.4546 10.6938 17.1617 10.401C16.8688 10.1081 16.3939 10.1081 16.101 10.401L17.1617 11.4616ZM13.5993 7.89923C13.8922 7.60633 13.8922 7.13146 13.5993 6.83857C13.3064 6.54567 12.8315 6.54567 12.5386 6.83857L13.5993 7.89923ZM11.4619 17.1614L17.1617 11.4616L16.101 10.401L10.4012 16.1008L11.4619 17.1614ZM7.89947 13.599L13.5993 7.89923L12.5386 6.83857L6.83881 12.5384L7.89947 13.599Z" fill="#1C274C"/>
</svg>
