<svg width="24" height="24" viewBox="0 0 24 24" fill="none" xmlns="http://www.w3.org/2000/svg">
<path d="M12.7282 5.53587C14.2903 3.97377 16.8229 3.9737 18.385 5.53579C19.9471 7.09789 19.9471 9.63063 18.3851 11.1927M3.57976 12.9794L2.91289 11.8832C2.04084 10.1748 2.60107 7.96535 4.40797 7.01132C5.26178 6.56051 6.2187 6.13209 7.16958 5.86026C10.0291 5.0428 12.535 5.34253 12.535 5.34253L18.5782 11.3857C18.5782 11.3857 18.8779 13.8916 18.0604 16.7511C17.7886 17.702 17.3602 18.6589 16.9094 19.5127C15.9553 21.3196 13.7459 21.8799 12.0375 21.0078L10.9412 20.3409C7.93376 18.5113 5.40928 15.9868 3.57976 12.9794Z" stroke="#1C274C" stroke-width="1.5"/>
<path opacity="0.5" d="M20.5061 3.41406L18.3848 5.53538" stroke="#1C274C" stroke-width="1.5" stroke-linecap="round"/>
</svg>
