<svg width="24" height="24" viewBox="0 0 24 24" fill="none" xmlns="http://www.w3.org/2000/svg">
<path d="M18.2614 13.4823L17.731 14.0126L18.2614 13.4823ZM10.5179 5.73885L11.0483 5.20852L11.0483 5.20852L10.5179 5.73885ZM13.6153 2.64148L14.1456 2.11115V2.11115L13.6153 2.64148ZM21.3587 10.3849L20.8284 10.9152L21.3587 10.3849ZM21.889 9.85456L14.1456 2.11115L13.085 3.17181L20.8284 10.9152L21.889 9.85456ZM9.98762 6.26918L17.731 14.0126L18.7917 12.9519L11.0483 5.20852L9.98762 6.26918ZM17.731 14.0126C18.8792 15.1608 20.7408 15.1608 21.889 14.0126L20.8284 12.9519C20.266 13.5143 19.3541 13.5143 18.7917 12.9519L17.731 14.0126ZM9.98762 2.11115C8.83941 3.25936 8.83941 5.12097 9.98762 6.26918L11.0483 5.20852C10.4859 4.6461 10.4859 3.73423 11.0483 3.17181L9.98762 2.11115ZM14.1456 2.11115C12.9974 0.962948 11.1358 0.962948 9.98762 2.11115L11.0483 3.17181C11.6107 2.6094 12.5226 2.6094 13.085 3.17181L14.1456 2.11115ZM20.8284 10.9152C21.3908 11.4776 21.3908 12.3895 20.8284 12.9519L21.889 14.0126C23.0373 12.8644 23.0373 11.0028 21.889 9.85456L20.8284 10.9152Z" fill="#1C274C"/>
<path opacity="0.5" d="M1.46967 21.4695C1.17678 21.7624 1.17678 22.2372 1.46967 22.5301C1.76256 22.823 2.23744 22.823 2.53033 22.5301L1.46967 21.4695ZM4.55227 19.4475L4.02194 18.9172L4.55227 19.4475ZM4.767 18.205L4.08919 18.5261H4.08919L4.767 18.205ZM3.81775 16.201L3.13994 16.5221L3.13994 16.5221L3.81775 16.201ZM4.60611 15.5044L4.20405 16.1375L4.20405 16.1375L4.60611 15.5044ZM11.3132 19.7637L11.7153 19.1305H11.7152L11.3132 19.7637ZM12.0559 18.9884L11.4406 19.4172L12.0559 18.9884ZM6.46344 10.9644L5.84814 11.3932L5.84814 11.3932L6.46344 10.9644ZM7.22572 10.2021L7.65457 9.58679V9.58679L7.22572 10.2021ZM12.7735 14.0687L12.3446 14.684L12.7735 14.0687ZM13.5529 13.3325L12.9141 13.7256L12.9141 13.7256L13.5529 13.3325ZM12.9069 12.2829L13.5457 11.8898L13.5457 11.8898L12.9069 12.2829ZM14.9198 10.1407C15.2127 9.84779 15.2127 9.37291 14.9198 9.08002C14.6269 8.78713 14.152 8.78713 13.8591 9.08002L14.9198 10.1407ZM2.53033 22.5301L5.0826 19.9779L4.02194 18.9172L1.46967 21.4695L2.53033 22.5301ZM5.4448 17.8839L4.49555 15.88L3.13994 16.5221L4.08919 18.5261L5.4448 17.8839ZM4.20405 16.1375L10.9111 20.3968L11.7152 19.1305L5.00816 14.8713L4.20405 16.1375ZM12.6712 18.5595L7.07874 10.5355L5.84814 11.3932L11.4406 19.4172L12.6712 18.5595ZM6.79688 10.8174L12.3446 14.684L13.2023 13.4534L7.65457 9.58679L6.79688 10.8174ZM14.1916 12.9395L13.5457 11.8898L12.2682 12.6759L12.9141 13.7256L14.1916 12.9395ZM13.5955 11.4649L14.9198 10.1407L13.8591 9.08002L12.5349 10.4043L13.5955 11.4649ZM13.5457 11.8898C13.4619 11.7537 13.4826 11.5779 13.5955 11.4649L12.5349 10.4043C11.9307 11.0084 11.8204 11.9483 12.2682 12.6759L13.5457 11.8898ZM12.3446 14.684C13.499 15.4885 14.929 14.1378 14.1916 12.9395L12.9141 13.7256C12.8971 13.698 12.8811 13.6438 12.8917 13.582C12.9007 13.5289 12.9252 13.4934 12.9475 13.4723C12.9699 13.4512 13.0067 13.4288 13.0602 13.4228C13.1226 13.4157 13.1757 13.4348 13.2023 13.4534L12.3446 14.684ZM7.07874 10.5355C7.0968 10.5614 7.11677 10.6163 7.10832 10.6813C7.10113 10.7365 7.07711 10.7731 7.0558 10.7945C7.03449 10.8158 6.99789 10.8398 6.94266 10.847C6.87765 10.8554 6.82279 10.8354 6.79688 10.8174L7.65457 9.58679C6.46624 8.75856 5.01991 10.2049 5.84814 11.3932L7.07874 10.5355ZM10.9111 20.3968C12.1075 21.1565 13.4816 19.7222 12.6712 18.5595L11.4406 19.4172C11.4222 19.3907 11.4028 19.3372 11.4102 19.2742C11.4166 19.2202 11.4393 19.1835 11.4605 19.1614C11.4817 19.1393 11.5174 19.1149 11.5711 19.1063C11.6337 19.0962 11.688 19.1132 11.7153 19.1305L10.9111 20.3968ZM4.49555 15.88C4.51012 15.9107 4.51904 15.9617 4.50603 16.016C4.49456 16.064 4.47046 16.0973 4.44664 16.1183C4.42281 16.1394 4.38677 16.1592 4.33777 16.1647C4.28222 16.1709 4.23278 16.1558 4.20405 16.1375L5.00816 14.8713C3.91 14.1739 2.58305 15.3464 3.13994 16.5221L4.49555 15.88ZM5.0826 19.9779C5.63444 19.426 5.77831 18.588 5.4448 17.8839L4.08919 18.5261C4.15191 18.6585 4.12458 18.8146 4.02194 18.9172L5.0826 19.9779Z" fill="#1C274C"/>
<path opacity="0.5" d="M22 12C22 13.1874 21.0374 14.15 19.85 14.15C18.6626 14.15 17.7 13.1874 17.7 12C17.7 10.8126 18.6626 9.85 19.85 9.85C21.0374 9.85 22 10.8126 22 12Z" stroke="#1C274C" stroke-width="1.5"/>
</svg>
