<svg width="24" height="24" viewBox="0 0 24 24" fill="none" xmlns="http://www.w3.org/2000/svg">
<path d="M20.9754 11.8148L20.2364 11.9426L20.9754 11.8148ZM20.2699 7.73505L19.5308 7.86285L20.2699 7.73505ZM6.93801 3.52293L6.19079 3.45832H6.19079L6.93801 3.52293ZM6.12584 12.9156L6.87305 12.9802L6.12584 12.9156ZM13.9952 18.7786L14.7353 18.6573V18.6573L13.9952 18.7786ZM13.3325 14.734L14.0726 14.6128V14.6128L13.3325 14.734ZM6.69838 14.3225L6.20878 14.8907H6.20878L6.69838 14.3225ZM8.13711 15.5623L8.62671 14.9942H8.62671L8.13711 15.5623ZM10.5183 19.2163L9.79232 19.4046L10.5183 19.2163ZM10.994 21.0501L11.72 20.8618L11.72 20.8618L10.994 21.0501ZM12.6678 21.9356L12.4384 21.2216L12.4384 21.2216L12.6678 21.9356ZM12.8128 21.8891L13.0422 22.6031L13.0422 22.6031L12.8128 21.8891ZM9.86218 17.5374L10.5237 17.184V17.184L9.86218 17.5374ZM13.9049 20.7525L13.1789 20.5642V20.5642L13.9049 20.7525ZM11.6744 21.8676L11.3489 22.5433L11.3489 22.5433L11.6744 21.8676ZM20.2364 11.9426L19.5308 7.86285L21.0089 7.60724L21.7144 11.687L20.2364 11.9426ZM13.2452 2.75H8.59658V1.25H13.2452V2.75ZM7.68522 3.58754L6.87305 12.9802L5.37863 12.851L6.19079 3.45832L7.68522 3.58754ZM19.5308 7.86285C19.024 4.93226 16.3815 2.75 13.2452 2.75V1.25C17.0715 1.25 20.371 3.91895 21.0089 7.60724L19.5308 7.86285ZM13.2551 18.8998L12.5924 14.8553L14.0726 14.6128L14.7353 18.6573L13.2551 18.8998ZM7.18797 13.7544L8.62671 14.9942L7.64752 16.1305L6.20878 14.8907L7.18797 13.7544ZM11.2443 19.0279L11.72 20.8618L10.268 21.2384L9.79232 19.4046L11.2443 19.0279ZM12.4384 21.2216L12.5834 21.175L13.0422 22.6031L12.8972 22.6497L12.4384 21.2216ZM10.5237 17.184C10.8357 17.768 11.0779 18.3866 11.2443 19.0279L9.79232 19.4046C9.65596 18.8789 9.45722 18.3711 9.20065 17.8908L10.5237 17.184ZM12.5834 21.175C12.8898 21.0766 13.1074 20.8399 13.1789 20.5642L14.6309 20.9408C14.4254 21.7328 13.8192 22.3535 13.0422 22.6031L12.5834 21.175ZM11.72 20.8618C11.755 20.9968 11.8525 21.1209 12 21.192L11.3489 22.5433C10.8169 22.2869 10.4173 21.8137 10.268 21.2384L11.72 20.8618ZM12 21.192C12.1348 21.2569 12.2934 21.2682 12.4384 21.2216L12.8972 22.6497C12.3875 22.8135 11.8314 22.7758 11.3489 22.5433L12 21.192ZM14.1539 13.0158H19.335V14.5158H14.1539V13.0158ZM14.7353 18.6573C14.8599 19.4174 14.8243 20.1952 14.6309 20.9408L13.1789 20.5642C13.3199 20.0208 13.3458 19.4539 13.2551 18.8998L14.7353 18.6573ZM8.59658 2.75C8.12267 2.75 7.72625 3.11302 7.68522 3.58754L6.19079 3.45832C6.29876 2.20975 7.34293 1.25 8.59658 1.25V2.75ZM8.62671 14.9942C9.30656 15.58 10.0394 16.2773 10.5237 17.184L9.20065 17.8908C8.85428 17.2423 8.30274 16.6951 7.64752 16.1305L8.62671 14.9942ZM21.7144 11.687C21.9698 13.1635 20.8343 14.5158 19.335 14.5158V13.0158C19.9017 13.0158 20.3335 12.5041 20.2364 11.9426L21.7144 11.687ZM12.5924 14.8553C12.4346 13.8924 13.1768 13.0158 14.1539 13.0158V14.5158C14.104 14.5158 14.0642 14.561 14.0726 14.6128L12.5924 14.8553ZM6.87305 12.9802C6.84764 13.2742 6.96498 13.5622 7.18797 13.7544L6.20878 14.8907C5.62045 14.3837 5.31173 13.6247 5.37863 12.851L6.87305 12.9802Z" fill="#1C274C"/>
<path opacity="0.5" d="M3.9716 2.52911L3.22439 2.4645L3.9716 2.52911ZM3 13.7656L3.74721 13.8302C3.71261 14.2304 3.36893 14.5322 2.96767 14.5149C2.5664 14.4976 2.25 14.1673 2.25 13.7656L3 13.7656ZM4.71881 2.59372L3.74721 13.8302L2.25279 13.701L3.22439 2.4645L4.71881 2.59372ZM3.75 2.48709V13.7656H2.25V2.48709H3.75ZM3.22439 2.4645C3.2112 2.61704 3.33146 2.74983 3.48671 2.74983V1.24983C4.21268 1.24983 4.78122 1.87192 4.71881 2.59372L3.22439 2.4645ZM3.48671 2.74983C3.63292 2.74983 3.75 2.63139 3.75 2.48709H2.25C2.25 1.80457 2.80289 1.24983 3.48671 1.24983V2.74983Z" fill="#1C274C"/>
</svg>
