<svg width="24" height="24" viewBox="0 0 24 24" fill="none" xmlns="http://www.w3.org/2000/svg">
<path opacity="0.5" d="M14.3808 17.6471V18.3971C14.795 18.3971 15.1308 18.0613 15.1308 17.6471H14.3808ZM19.6189 12.4706V13.2206C19.8396 13.2206 20.0491 13.1234 20.1916 12.9548C20.3341 12.7863 20.3951 12.5635 20.3584 12.3459L19.6189 12.4706ZM18.6147 6.51663L17.8752 6.64136L18.6147 6.51663ZM14.3808 3.25C13.9666 3.25 13.6308 3.58579 13.6308 4C13.6308 4.41421 13.9666 4.75 14.3808 4.75V3.25ZM18.1628 4.84003L17.5406 5.25874V5.25874L18.1628 4.84003ZM17.3563 4.1649L17.6603 3.47926V3.47926L17.3563 4.1649ZM15.1308 17.6471C15.1308 15.2107 17.1318 13.2206 19.6189 13.2206V11.7206C16.3201 11.7206 13.6308 14.3656 13.6308 17.6471H15.1308ZM14.3808 16.8971H6.76172V18.3971H14.3808V16.8971ZM20.3584 12.3459L19.3543 6.39191L17.8752 6.64136L18.8793 12.5953L20.3584 12.3459ZM15.6086 3.25H14.3808V4.75H15.6086V3.25ZM19.3543 6.39191C19.2808 5.9561 19.2192 5.58781 19.1448 5.28811C19.068 4.979 18.9658 4.69002 18.785 4.42132L17.5406 5.25874C17.5855 5.32551 17.6339 5.42779 17.689 5.64959C17.7464 5.8808 17.7979 6.18308 17.8752 6.64136L19.3543 6.39191ZM15.6086 4.75C16.0783 4.75 16.3896 4.75049 16.631 4.76853C16.8632 4.78588 16.9759 4.81665 17.0524 4.85054L17.6603 3.47926C17.3648 3.34825 17.0622 3.29657 16.7428 3.2727C16.4326 3.24951 16.056 3.25 15.6086 3.25V4.75ZM18.785 4.42132C18.5067 4.00766 18.1164 3.68147 17.6603 3.47926L17.0524 4.85054C17.252 4.93904 17.4209 5.08096 17.5406 5.25874L18.785 4.42132Z" fill="#1C274C"/>
<path d="M6.0119 17.6469C6.0119 18.5238 5.2901 19.2498 4.38095 19.2498V20.7498C6.10174 20.7498 7.5119 19.3689 7.5119 17.6469H6.0119ZM4.38095 19.2498C3.47181 19.2498 2.75 18.5238 2.75 17.6469H1.25C1.25 19.3689 2.66017 20.7498 4.38095 20.7498V19.2498ZM2.75 17.6469C2.75 16.7699 3.47181 16.0439 4.38095 16.0439V14.5439C2.66017 14.5439 1.25 15.9248 1.25 17.6469H2.75ZM4.38095 16.0439C5.2901 16.0439 6.0119 16.7699 6.0119 17.6469H7.5119C7.5119 15.9248 6.10174 14.5439 4.38095 14.5439V16.0439Z" fill="#1C274C"/>
<path d="M21.2502 17.6469C21.2502 18.5238 20.5284 19.2498 19.6192 19.2498V20.7498C21.34 20.7498 22.7502 19.3689 22.7502 17.6469H21.2502ZM19.6192 19.2498C18.7101 19.2498 17.9883 18.5238 17.9883 17.6469H16.4883C16.4883 19.3689 17.8984 20.7498 19.6192 20.7498V19.2498ZM17.9883 17.6469C17.9883 16.7699 18.7101 16.0439 19.6192 16.0439V14.5439C17.8984 14.5439 16.4883 15.9248 16.4883 17.6469H17.9883ZM19.6192 16.0439C20.5284 16.0439 21.2502 16.7699 21.2502 17.6469H22.7502C22.7502 15.9248 21.34 14.5439 19.6192 14.5439V16.0439Z" fill="#1C274C"/>
</svg>
