<svg width="24" height="24" viewBox="0 0 24 24" fill="none" xmlns="http://www.w3.org/2000/svg">
<path opacity="0.5" d="M2 5.68421C2 3.64948 3.64948 2 5.68421 2C7.71894 2 9.36842 3.64948 9.36842 5.68421V15" stroke="#1C274C" stroke-width="1.5" stroke-linecap="round"/>
<path d="M22.0002 14.5V15.6842C22.0002 19.1723 19.1726 22 15.6844 22C12.1963 22 9.36865 19.1723 9.36865 15.6842V14.6316M22.0002 14.5C22.0002 15.8807 19.0541 17 16.0002 17C12.9463 17 9.36865 16.0123 9.36865 14.6316M22.0002 14.5C22.0002 13.1193 19.0541 12 16.0002 12C12.9463 12 9.36865 13.2509 9.36865 14.6316" stroke="#1C274C" stroke-width="1.5"/>
</svg>
