<svg width="24" height="24" viewBox="0 0 24 24" fill="none" xmlns="http://www.w3.org/2000/svg">
<path d="M20.9754 12.1852L20.2364 12.0574L20.9754 12.1852ZM20.2699 16.265L19.5308 16.1371L20.2699 16.265ZM6.93801 20.4771L6.19079 20.5417H6.19079L6.93801 20.4771ZM6.12584 11.0844L6.87305 11.0198L6.12584 11.0844ZM13.9952 5.22142L14.7353 5.34269V5.34269L13.9952 5.22142ZM13.3325 9.26598L14.0726 9.38725V9.38725L13.3325 9.26598ZM6.69838 9.67749L6.20878 9.10933H6.20878L6.69838 9.67749ZM8.13711 8.43769L8.62671 9.00585H8.62671L8.13711 8.43769ZM10.5183 4.78374L9.79232 4.59542L10.5183 4.78374ZM10.994 2.94989L11.72 3.13821L11.72 3.13821L10.994 2.94989ZM12.6678 2.06435L12.4384 2.77841L12.4384 2.77841L12.6678 2.06435ZM12.8128 2.11093L13.0422 1.39687L13.0422 1.39687L12.8128 2.11093ZM9.86218 6.46262L10.5237 6.81599V6.81599L9.86218 6.46262ZM13.9049 3.24752L13.1789 3.43584V3.43584L13.9049 3.24752ZM11.6744 2.13239L11.3489 1.45675L11.3489 1.45675L11.6744 2.13239ZM20.2364 12.0574L19.5308 16.1371L21.0089 16.3928L21.7144 12.313L20.2364 12.0574ZM13.2452 21.25H8.59658V22.75H13.2452V21.25ZM7.68522 20.4125L6.87305 11.0198L5.37863 11.149L6.19079 20.5417L7.68522 20.4125ZM19.5308 16.1371C19.024 19.0677 16.3815 21.25 13.2452 21.25V22.75C17.0715 22.75 20.371 20.081 21.0089 16.3928L19.5308 16.1371ZM13.2551 5.10015L12.5924 9.14472L14.0726 9.38725L14.7353 5.34269L13.2551 5.10015ZM7.18797 10.2456L8.62671 9.00585L7.64752 7.86954L6.20878 9.10933L7.18797 10.2456ZM11.2443 4.97206L11.72 3.13821L10.268 2.76157L9.79232 4.59542L11.2443 4.97206ZM12.4384 2.77841L12.5834 2.82498L13.0422 1.39687L12.8972 1.3503L12.4384 2.77841ZM10.5237 6.81599C10.8357 6.23198 11.0779 5.61339 11.2443 4.97206L9.79232 4.59542C9.65596 5.12107 9.45722 5.62893 9.20065 6.10924L10.5237 6.81599ZM12.5834 2.82498C12.8898 2.92342 13.1074 3.16009 13.1789 3.43584L14.6309 3.05921C14.4254 2.26719 13.8192 1.64648 13.0422 1.39687L12.5834 2.82498ZM11.72 3.13821C11.755 3.0032 11.8525 2.87913 12 2.80804L11.3489 1.45675C10.8169 1.71309 10.4173 2.18627 10.268 2.76157L11.72 3.13821ZM12 2.80804C12.1348 2.74311 12.2934 2.73181 12.4384 2.77841L12.8972 1.3503C12.3875 1.18655 11.8314 1.2242 11.3489 1.45675L12 2.80804ZM14.1539 10.9842H19.335V9.4842H14.1539V10.9842ZM14.7353 5.34269C14.8599 4.58256 14.8243 3.80477 14.6309 3.0592L13.1789 3.43584C13.3199 3.97923 13.3458 4.54613 13.2551 5.10016L14.7353 5.34269ZM8.59658 21.25C8.12267 21.25 7.72625 20.887 7.68522 20.4125L6.19079 20.5417C6.29876 21.7902 7.34293 22.75 8.59658 22.75V21.25ZM8.62671 9.00585C9.30656 8.42 10.0394 7.72267 10.5237 6.81599L9.20065 6.10924C8.85428 6.75767 8.30274 7.30493 7.64752 7.86954L8.62671 9.00585ZM21.7144 12.313C21.9698 10.8365 20.8343 9.4842 19.335 9.4842V10.9842C19.9017 10.9842 20.3335 11.4959 20.2364 12.0574L21.7144 12.313ZM12.5924 9.14471C12.4346 10.1076 13.1768 10.9842 14.1539 10.9842V9.4842C14.104 9.4842 14.0642 9.43901 14.0726 9.38725L12.5924 9.14471ZM6.87305 11.0198C6.84764 10.7258 6.96498 10.4378 7.18797 10.2456L6.20878 9.10933C5.62045 9.61631 5.31173 10.3753 5.37863 11.149L6.87305 11.0198Z" fill="#1C274C"/>
<path opacity="0.5" d="M3.9716 21.4709L3.22439 21.5355L3.9716 21.4709ZM3 10.2344L3.74721 10.1698C3.71261 9.76962 3.36893 9.46776 2.96767 9.48507C2.5664 9.50239 2.25 9.83274 2.25 10.2344L3 10.2344ZM4.71881 21.4063L3.74721 10.1698L2.25279 10.299L3.22439 21.5355L4.71881 21.4063ZM3.75 21.5129V10.2344H2.25V21.5129H3.75ZM3.22439 21.5355C3.2112 21.383 3.33146 21.2502 3.48671 21.2502V22.7502C4.21268 22.7502 4.78122 22.1281 4.71881 21.4063L3.22439 21.5355ZM3.48671 21.2502C3.63292 21.2502 3.75 21.3686 3.75 21.5129H2.25C2.25 22.1954 2.80289 22.7502 3.48671 22.7502V21.2502Z" fill="#1C274C"/>
</svg>
