<svg width="24" height="24" viewBox="0 0 24 24" fill="none" xmlns="http://www.w3.org/2000/svg">
<path d="M11.3355 5.47973L7.3632 9.01066C5.79457 10.405 5.01025 11.1022 5.01025 12.0003C5.01025 12.8984 5.79457 13.5956 7.3632 14.9899L11.3355 18.5209C12.0515 19.1573 12.4095 19.4755 12.7047 19.343C12.9999 19.2104 12.9999 18.7314 12.9999 17.7735V15.4289C16.5999 15.4289 20.4999 17.1432 21.9999 20.0003C21.9999 10.8574 16.6665 8.57172 12.9999 8.57172V6.22714C12.9999 5.26915 12.9999 4.79015 12.7047 4.6576C12.4095 4.52505 12.0515 4.84327 11.3355 5.47973Z" stroke="#1C274C" stroke-width="1.5" stroke-linecap="round" stroke-linejoin="round"/>
<path opacity="0.5" d="M8.46154 4.5L3.24533 9.34362C2.45122 10.081 2 11.1158 2 12.1994C2 13.3418 2.50122 14.4266 3.37112 15.1671L8.46154 19.5" stroke="#1C274C" stroke-width="1.5" stroke-linecap="round"/>
</svg>
