<svg width="24" height="24" viewBox="0 0 24 24" fill="none" xmlns="http://www.w3.org/2000/svg">
<path d="M5.00635 6.93309C5.04932 5.7996 5.7006 4.77423 6.5376 3.93723C7.93055 2.54428 10.153 2.73144 11.0374 4.31617L11.6864 5.4791C12.2721 6.52858 12.037 7.90533 11.1145 8.8278M17.0667 18.9934C18.2002 18.9505 19.2256 18.2992 20.0626 17.4622C21.4555 16.0692 21.2684 13.8468 19.6836 12.9624L18.5207 12.3134C17.4712 11.7277 16.0945 11.9628 15.172 12.8853" stroke="#1C274C" stroke-width="1.5"/>
<path opacity="0.5" d="M5.00655 6.93311C4.93421 8.84124 5.41713 12.0817 8.6677 15.3323C11.9183 18.5829 15.1588 19.0658 17.0669 18.9935M15.1722 12.8853C15.1722 12.8853 14.0532 14.0042 12.0245 11.9755C9.99578 9.94676 11.1147 8.82782 11.1147 8.82782" stroke="#1C274C" stroke-width="1.5"/>
</svg>
