<svg width="24" height="24" viewBox="0 0 24 24" fill="none" xmlns="http://www.w3.org/2000/svg">
<path d="M15.9892 4.9502L16.5198 4.42014L16.5198 4.42014L15.9892 4.9502ZM19.0715 8.03562L18.5409 8.56568L18.5409 8.56568L19.0715 8.03562ZM8.73821 19.429L8.20761 19.9591L8.73821 19.429ZM4.62152 15.3081L5.15212 14.7781L4.62152 15.3081ZM17.5668 14.9943L17.303 14.2922L17.5668 14.9943ZM15.6496 15.7146L15.9134 16.4167L15.6496 15.7146ZM8.33203 8.38177L7.62781 8.12375H7.62781L8.33203 8.38177ZM9.02649 6.48636L9.73071 6.74438L9.02649 6.48636ZM5.84487 10.6735L6.04421 11.3965H6.04421L5.84487 10.6735ZM7.3015 10.1351L6.86329 9.52646L6.86329 9.52646L7.3015 10.1351ZM7.67565 9.79038L8.24648 10.2768H8.24648L7.67565 9.79038ZM14.2508 16.3805L14.7418 16.9475L14.7418 16.9475L14.2508 16.3805ZM13.3804 18.2012L12.6573 18.0022V18.0022L13.3804 18.2012ZM13.9167 16.7466L13.3074 16.3094L13.3074 16.3094L13.9167 16.7466ZM2.71829 12.7552L1.96831 12.76V12.76L2.71829 12.7552ZM2.93029 11.9521L2.28037 11.5778H2.28037L2.93029 11.9521ZM11.3051 21.3431L11.3062 20.5931H11.3062L11.3051 21.3431ZM12.0931 21.1347L11.7214 20.4833L11.7214 20.4833L12.0931 21.1347ZM11.6971 2.03606L11.8587 2.76845L11.6971 2.03606ZM15.4586 5.48026L18.5409 8.56568L19.6021 7.50556L16.5198 4.42014L15.4586 5.48026ZM9.26881 18.8989L5.15212 14.7781L4.09092 15.8382L8.20761 19.9591L9.26881 18.8989ZM17.303 14.2922L15.3859 15.0125L15.9134 16.4167L17.8306 15.6964L17.303 14.2922ZM9.03625 8.63979L9.73071 6.74438L8.32227 6.22834L7.62781 8.12375L9.03625 8.63979ZM6.04421 11.3965C6.75566 11.2003 7.29702 11.0625 7.73971 10.7438L6.86329 9.52646C6.69036 9.65097 6.46584 9.72428 5.64554 9.95044L6.04421 11.3965ZM7.62781 8.12375C7.33486 8.92332 7.24321 9.14153 7.10482 9.30391L8.24648 10.2768C8.60024 9.86175 8.78213 9.33337 9.03625 8.63979L7.62781 8.12375ZM7.73971 10.7438C7.9268 10.6091 8.09695 10.4523 8.24648 10.2768L7.10482 9.30391C7.03353 9.38757 6.95243 9.46229 6.86329 9.52646L7.73971 10.7438ZM15.3859 15.0125C14.6968 15.2714 14.1715 15.4571 13.7599 15.8135L14.7418 16.9475C14.9027 16.8082 15.119 16.7152 15.9134 16.4167L15.3859 15.0125ZM14.1035 18.4001C14.3288 17.5813 14.4019 17.3569 14.5261 17.1838L13.3074 16.3094C12.99 16.7517 12.8527 17.2919 12.6573 18.0022L14.1035 18.4001ZM13.7599 15.8135C13.5901 15.9605 13.4383 16.1269 13.3074 16.3094L14.5261 17.1838C14.5885 17.0968 14.6609 17.0175 14.7418 16.9475L13.7599 15.8135ZM5.15212 14.7781C4.50598 14.1313 4.06782 13.691 3.78349 13.3338C3.49818 12.9753 3.46872 12.8201 3.46828 12.7505L1.96831 12.76C1.97199 13.3422 2.2611 13.8297 2.60986 14.2679C2.95959 14.7073 3.47099 15.2176 4.09092 15.8382L5.15212 14.7781ZM5.64554 9.95044C4.80031 10.1835 4.10379 10.3743 3.5828 10.5835C3.06324 10.792 2.57099 11.0732 2.28037 11.5778L3.58021 12.3264C3.61483 12.2663 3.71676 12.146 4.14163 11.9755C4.56506 11.8055 5.16321 11.6394 6.04421 11.3965L5.64554 9.95044ZM3.46828 12.7505C3.46734 12.6016 3.50599 12.4553 3.58021 12.3264L2.28037 11.5778C2.07337 11.9372 1.96569 12.3452 1.96831 12.76L3.46828 12.7505ZM8.20761 19.9591C8.83147 20.5836 9.34448 21.0987 9.7863 21.4506C10.2269 21.8015 10.7177 22.0922 11.3039 22.0931L11.3062 20.5931C11.2367 20.593 11.0812 20.5644 10.7208 20.2773C10.3617 19.9912 9.91906 19.5499 9.26881 18.8989L8.20761 19.9591ZM12.6573 18.0022C12.4131 18.8897 12.2461 19.4924 12.0749 19.9188C11.9032 20.3467 11.7819 20.4487 11.7214 20.4833L12.4648 21.7861C12.9739 21.4956 13.2571 21.0004 13.467 20.4775C13.6774 19.9532 13.8693 19.2516 14.1035 18.4001L12.6573 18.0022ZM11.3039 22.0931C11.7111 22.0937 12.1112 21.9879 12.4648 21.7861L11.7214 20.4833C11.5949 20.5555 11.4517 20.5933 11.3062 20.5931L11.3039 22.0931ZM18.5409 8.56568C19.6043 9.63022 20.3401 10.3695 20.7915 10.9788C21.2351 11.5774 21.2861 11.8959 21.2319 12.1464L22.6981 12.4634C22.8879 11.5854 22.538 10.8162 21.9967 10.0857C21.4633 9.36592 20.6303 8.53486 19.6021 7.50556L18.5409 8.56568ZM17.8306 15.6964C19.192 15.1849 20.2938 14.773 21.0769 14.3384C21.8717 13.8973 22.5082 13.3416 22.6981 12.4634L21.2319 12.1464C21.1778 12.3968 20.9999 12.6655 20.349 13.0268C19.6863 13.3946 18.711 13.7632 17.303 14.2922L17.8306 15.6964ZM16.5198 4.42014C15.4839 3.3832 14.6479 2.54353 13.9244 2.00638C13.1907 1.46165 12.4173 1.10912 11.5355 1.30367L11.8587 2.76845C12.1084 2.71335 12.4276 2.7633 13.0302 3.21075C13.6432 3.66579 14.3874 4.40801 15.4586 5.48026L16.5198 4.42014ZM9.73071 6.74438C10.2523 5.32075 10.6159 4.33403 10.981 3.66315C11.34 3.00338 11.6088 2.82357 11.8587 2.76845L11.5355 1.30367C10.6538 1.49819 10.1003 2.14332 9.66345 2.94618C9.23261 3.73793 8.82671 4.85154 8.32227 6.22834L9.73071 6.74438Z" fill="#1C274C"/>
<path opacity="0.5" d="M1.4694 21.4697C1.17666 21.7627 1.1769 22.2376 1.46994 22.5304C1.76298 22.8231 2.23786 22.8229 2.5306 22.5298L1.4694 21.4697ZM7.18383 17.8719C7.47657 17.5788 7.47633 17.1039 7.18329 16.8112C6.89024 16.5185 6.41537 16.5187 6.12263 16.8117L7.18383 17.8719ZM2.5306 22.5298L7.18383 17.8719L6.12263 16.8117L1.4694 21.4697L2.5306 22.5298Z" fill="#1C274C"/>
</svg>
