<svg width="24" height="24" viewBox="0 0 24 24" fill="none" xmlns="http://www.w3.org/2000/svg">
<g clip-path="url(#clip0_361_9370)">
<path d="M13 2.00098C16.1143 2.01009 17.7653 2.10853 18.8284 3.17162C20 4.34319 20 6.22881 20 10V14C20 17.7713 20 19.6569 18.8284 20.8285C17.6569 22 15.7712 22 12 22C8.22876 22 6.34315 22 5.17157 20.8285C4 19.6569 4 17.7713 4 14V11.001" stroke="#1C274C" stroke-width="1.5" stroke-linecap="round"/>
<path d="M2.73016 4H1.98016H2.73016ZM2.73016 4.8L2.17621 5.3056C2.31831 5.46129 2.51937 5.55 2.73016 5.55C2.94096 5.55 3.14202 5.46129 3.28412 5.3056L2.73016 4.8ZM4.01428 4.5056C4.29352 4.19966 4.27187 3.72528 3.96593 3.44604C3.65998 3.16681 3.1856 3.18846 2.90637 3.4944L4.01428 4.5056ZM2.55396 3.4944C2.27472 3.18846 1.80034 3.16681 1.4944 3.44604C1.18846 3.72528 1.16681 4.19966 1.44604 4.5056L2.55396 3.4944ZM8.53968 1.83047C8.79878 2.15364 9.27081 2.20559 9.59398 1.94649C9.91715 1.68739 9.9691 1.21537 9.71 0.892194L8.53968 1.83047ZM6.38098 -0.75C3.88747 -0.75 1.98016 1.4426 1.98016 4H3.48016C3.48016 2.13913 4.84191 0.75 6.38098 0.75V-0.75ZM1.98016 4L1.98016 4.8H3.48016L3.48016 4L1.98016 4ZM3.28412 5.3056L4.01428 4.5056L2.90637 3.4944L2.17621 4.2944L3.28412 5.3056ZM3.28412 4.2944L2.55396 3.4944L1.44604 4.5056L2.17621 5.3056L3.28412 4.2944ZM9.71 0.892194C8.9139 -0.10079 7.72551 -0.75 6.38098 -0.75V0.75C7.22351 0.75 7.99759 1.15432 8.53968 1.83047L9.71 0.892194Z" fill="#1C274C"/>
<path opacity="0.5" d="M10.2696 3.2002L10.8236 2.6946C10.6815 2.5389 10.4804 2.4502 10.2696 2.4502C10.0588 2.4502 9.85774 2.5389 9.71564 2.6946L10.2696 3.2002ZM8.98547 3.4946C8.70624 3.80054 8.72789 4.27492 9.03383 4.55415C9.33978 4.83339 9.81416 4.81174 10.0934 4.50579L8.98547 3.4946ZM10.4458 4.50579C10.725 4.81174 11.1994 4.83339 11.5054 4.55415C11.8113 4.27492 11.833 3.80054 11.5537 3.4946L10.4458 4.50579ZM4.57614 6.30637C4.29911 5.99843 3.8249 5.97337 3.51695 6.25039C3.20901 6.52742 3.18395 7.00163 3.46097 7.30958L4.57614 6.30637ZM6.61878 8.7502C9.11229 8.7502 11.0196 6.5576 11.0196 4.0002H9.5196C9.5196 5.86107 8.15785 7.2502 6.61878 7.2502V8.7502ZM11.0196 4.0002V3.2002H9.5196V4.0002H11.0196ZM9.71564 2.6946L8.98547 3.4946L10.0934 4.50579L10.8236 3.70579L9.71564 2.6946ZM9.71564 3.70579L10.4458 4.50579L11.5537 3.4946L10.8236 2.6946L9.71564 3.70579ZM3.46097 7.30958C4.25124 8.18804 5.36826 8.7502 6.61878 8.7502V7.2502C5.83391 7.2502 5.11005 6.89987 4.57614 6.30637L3.46097 7.30958Z" fill="#1C274C"/>
<path opacity="0.5" d="M15 19H9" stroke="#1C274C" stroke-width="1.5" stroke-linecap="round"/>
</g>
<defs>
<clipPath id="clip0_361_9370">
<rect width="24" height="24" fill="white"/>
</clipPath>
</defs>
</svg>
