<svg width="24" height="24" viewBox="0 0 24 24" fill="none" xmlns="http://www.w3.org/2000/svg">
<path d="M11.58 4.77604C12.2747 3.00516 12.6221 2.11971 13.3486 2.01056C14.075 1.90141 14.6994 2.64083 15.9483 4.11967L16.2714 4.50226C16.6263 4.9225 16.8037 5.13263 17.045 5.25261C17.2863 5.37259 17.564 5.38884 18.1196 5.42135L18.6254 5.45095C20.5803 5.56537 21.5578 5.62258 21.897 6.26168C22.2362 6.90079 21.7125 7.69854 20.6651 9.29403L20.3941 9.7068C20.0965 10.1602 19.9477 10.3869 19.9075 10.6457C19.8673 10.9045 19.9402 11.1662 20.0862 11.6895L20.219 12.166C20.7325 14.0076 20.9893 14.9284 20.4725 15.4325C19.9557 15.9367 19.0076 15.6903 17.1114 15.1975L16.6208 15.07C16.082 14.93 15.8125 14.86 15.5464 14.8999C15.2803 14.9399 15.0476 15.0854 14.5823 15.3763L14.1586 15.6412C12.521 16.6649 11.7022 17.1768 11.0436 16.8493C10.385 16.5217 10.3227 15.5717 10.1982 13.6717L10.166 13.1801C10.1306 12.6402 10.1129 12.3702 9.98865 12.1361C9.86439 11.902 9.64763 11.7302 9.2141 11.3867L8.81941 11.0739C7.2938 9.86506 6.531 9.26062 6.64075 8.55405C6.75051 7.84748 7.66013 7.50672 9.47939 6.8252L9.95005 6.64888C10.467 6.45522 10.7255 6.35839 10.9148 6.17371C11.1041 5.98903 11.2029 5.73742 11.4003 5.23419L11.58 4.77604Z" stroke="#1C274C" stroke-width="1.5" stroke-linecap="round"/>
<path opacity="0.5" d="M6.59527 8.55078C3.48192 10.6857 1.09828 14.7691 2.33125 21.9998C3.42268 18.9857 6.71261 16.5716 10.3877 15.4097" stroke="#1C274C" stroke-width="1.5" stroke-linecap="round" stroke-linejoin="round"/>
</svg>
