<svg width="24" height="24" viewBox="0 0 24 24" fill="none" xmlns="http://www.w3.org/2000/svg">
<path d="M11.5697 12.5532L12.1617 13.0137V13.0137L11.5697 12.5532ZM11.3142 3.64586L12.0065 3.93432V3.93432L11.3142 3.64586ZM3.5 15.75C3.08579 15.75 2.75 16.0858 2.75 16.5C2.75 16.9142 3.08579 17.25 3.5 17.25V15.75ZM19.876 16.916C20.1057 17.2607 20.5714 17.3538 20.916 17.124C21.2607 16.8943 21.3538 16.4286 21.124 16.084L19.876 16.916ZM12 21.25C6.89137 21.25 2.75 17.1086 2.75 12H1.25C1.25 17.9371 6.06294 22.75 12 22.75V21.25ZM21.25 12C21.25 17.1086 17.1086 21.25 12 21.25V22.75C17.9371 22.75 22.75 17.9371 22.75 12H21.25ZM12 2.75C17.1086 2.75 21.25 6.89137 21.25 12H22.75C22.75 6.06294 17.9371 1.25 12 1.25V2.75ZM12 1.25C6.06294 1.25 1.25 6.06294 1.25 12H2.75C2.75 6.89137 6.89137 2.75 12 2.75V1.25ZM12 12.75H12.0917V11.25H12V12.75ZM11.408 11.5395L10.9777 12.0928L12.1617 13.0137L12.592 12.4605L11.408 11.5395ZM11.3077 1.71154L10.6219 3.35739L12.0065 3.93432L12.6923 2.28846L11.3077 1.71154ZM10.6219 3.35739C9.39039 6.31308 9.66695 9.68222 11.364 12.3975L12.636 11.6025C11.1965 9.29929 10.9619 6.44145 12.0065 3.93432L10.6219 3.35739ZM10.9777 12.0928C9.18293 14.4003 6.42334 15.75 3.5 15.75V17.25C6.88622 17.25 10.0828 15.6866 12.1617 13.0137L10.9777 12.0928ZM12.0917 12.75C15.2197 12.75 18.1408 14.3133 19.876 16.916L21.124 16.084C19.1107 13.064 15.7213 11.25 12.0917 11.25V12.75Z" fill="#1C274C"/>
<path opacity="0.5" d="M21.2424 10.7427L21.777 10.2167L21.7727 10.2124L21.2424 10.7427ZM21.4528 12.0261C21.7433 12.3213 22.2181 12.3252 22.5134 12.0347C22.8087 11.7443 22.8126 11.2694 22.5221 10.9741L21.4528 12.0261ZM5.73242 19.0429C5.31821 19.0429 4.98242 19.3787 4.98242 19.7929C4.98242 20.2071 5.31821 20.5429 5.73242 20.5429V19.0429ZM8.19203 3.35584C8.35135 2.97349 8.17054 2.53439 7.78819 2.37508C7.40584 2.21576 6.96673 2.39657 6.80742 2.77892L8.19203 3.35584ZM5.85278 12.1447C5.93263 12.5511 6.32685 12.8159 6.7333 12.736C7.13974 12.6562 7.4045 12.262 7.32465 11.8555L5.85278 12.1447ZM15.4332 17.3226C15.7712 17.0832 15.8512 16.6151 15.6118 16.277C15.3724 15.939 14.9043 15.859 14.5663 16.0984L15.4332 17.3226ZM14.1551 6.08036C13.7498 5.99457 13.3518 6.25353 13.266 6.65876C13.1802 7.06399 13.4392 7.46204 13.8444 7.54784L14.1551 6.08036ZM20.7077 11.2687L21.4528 12.0261L22.5221 10.9741L21.777 10.2168L20.7077 11.2687ZM6.80742 2.77892C5.55791 5.77773 5.2389 9.01992 5.85278 12.1447L7.32465 11.8555C6.76804 9.0223 7.05636 6.08147 8.19203 3.35584L6.80742 2.77892ZM14.5663 16.0984C11.9689 17.9378 8.82217 19.0429 5.73242 19.0429V20.5429C9.16923 20.5429 12.6138 19.3191 15.4332 17.3226L14.5663 16.0984ZM13.8444 7.54784C16.4263 8.09446 18.8174 9.37844 20.712 11.2731L21.7727 10.2124C19.6711 8.11083 17.0188 6.68666 14.1551 6.08036L13.8444 7.54784Z" fill="#1C274C"/>
</svg>
